<svg width="69" height="76" viewBox="0 0 69 76" fill="none" xmlns="http://www.w3.org/2000/svg">
<g clip-path="url(#clip0_123_1714)">
<path d="M31.5147 11.1368C42.0045 11.1289 49.8789 18.5748 51.4902 27.5756C52.1015 30.9939 51.2283 34.2223 50.8473 37.5061C50.5576 39.9709 49.8431 42.3962 49.2121 44.8096C48.5255 47.4366 48.5929 49.9845 49.6765 52.485C51.1767 55.9587 51.7839 59.6777 52.4983 63.3373C53.312 67.4955 51.5379 70.8505 48.0889 73.1413C44.6598 75.4162 40.9448 76.3697 36.9005 74.5339C33.396 72.9434 32.3323 69.6715 31.6377 66.4589C30.7646 62.4234 29.824 58.3998 28.7246 54.4315C27.9308 51.5631 25.2597 50.1072 22.9697 48.4613C17.9014 44.8294 14.9525 39.6109 14.3333 33.7357C13.6229 26.9742 15.4525 20.6163 21.0566 15.8211C24.3548 13.0002 27.9189 11.2278 31.5187 11.1328L31.5147 11.1368ZM18.0561 31.5517C17.6989 32.5013 17.9966 33.2688 18.1474 34.0363C19.2984 39.8364 22.8784 43.9787 27.2759 47.6582C29.5779 49.5849 31.9116 51.6343 32.3958 54.9102C32.499 55.6145 32.761 55.9231 33.6024 55.5986C37.1188 54.2376 40.7504 53.2406 44.4176 52.4019C45.5924 52.1329 45.8266 51.6383 45.4535 50.6611C44.8979 49.2091 44.8185 47.7492 45.1638 46.2378C45.7949 43.4921 46.3148 40.7187 47.0173 37.9927C47.7118 35.3024 48.2437 32.5408 48.0492 29.8307C47.6483 24.2641 44.9138 19.8131 40.1789 16.834C35.1106 13.6412 30.0105 13.7203 24.9978 17.2454C19.9453 20.7983 18.0165 25.7794 18.0522 31.5596L18.0561 31.5517ZM40.3971 72.4766C44.1557 72.3975 46.8069 71.3451 48.5215 68.5716C48.9105 67.9426 49.5217 67.0761 48.9303 66.3917C48.4104 65.7943 47.561 66.364 46.9141 66.5578C43.6517 67.5548 40.413 68.6231 37.1585 69.6478C36.7854 69.7665 36.329 69.7427 36.3092 70.2768C36.2933 70.7912 36.5989 71.2026 37.0315 71.3728C38.3095 71.8713 39.5359 72.5913 40.3971 72.4726V72.4766ZM46.0925 55.7569C45.1876 55.9112 44.2867 56.0615 43.3818 56.2238C40.1511 56.8053 37.0037 57.6758 33.9238 58.8112C32.7054 59.2623 33.0388 60.0931 33.3245 60.9042C33.65 61.83 34.3247 61.5688 34.9359 61.2523C35.6503 60.8844 36.4203 60.7578 37.1823 60.552C40.29 59.7172 43.3699 58.7717 46.4735 57.925C47.2157 57.7232 47.4975 57.4107 47.2475 56.6906C47.057 56.1446 46.9736 55.4523 46.0886 55.7529L46.0925 55.7569ZM48.2278 60.6866C46.0211 61.3671 44.1557 61.9922 42.2625 62.5144C39.9407 63.1553 37.5514 63.5589 35.2892 64.4214C34.3922 64.7616 34.3088 65.3353 34.543 66.1385C34.8367 67.1513 35.4757 66.7715 36.0988 66.5816C39.1747 65.6479 42.2427 64.7023 45.394 64.0297C46.3426 63.8279 47.2197 63.3017 48.1325 62.9417C48.9303 62.6291 48.6128 61.9684 48.6088 61.4224C48.6088 60.9833 48.4104 60.6628 48.2278 60.6866Z" fill="#292929"/>
<path d="M15.5101 17.3168C12.1524 16.8539 9.54086 15.8134 7.25873 14.041C6.58799 13.5187 5.9093 12.8224 6.5086 11.8531C7.04837 10.9787 7.89772 10.9866 8.7947 11.2636C10.926 11.9243 12.8866 13.0321 15.141 13.4158C16.0102 13.5622 17.3199 14.0647 16.8 15.5919C16.5063 16.4504 16.3832 17.5028 15.5101 17.3208V17.3168Z" fill="#292929"/>
<path d="M49.2936 3.15228C48.3967 5.93362 47.3171 8.72683 45.6779 11.2747C45.0826 12.2005 44.2412 12.0344 43.4038 11.6743C42.4711 11.2708 42.3798 10.5032 42.7211 9.7001C43.7729 7.23527 44.8246 4.76648 45.9915 2.35309C46.3924 1.5262 47.1782 0.86153 48.2498 1.19387C49.115 1.4629 49.4444 2.15527 49.2976 3.14832L49.2936 3.15228Z" fill="#292929"/>
<path d="M5.70752 34.626C6.62434 34.5627 7.54115 34.4876 8.45797 34.4322C9.04537 34.3966 9.67643 34.2937 10.0693 34.8872C10.5456 35.6072 9.95426 36.1413 9.64071 36.6675C9.1446 37.4905 8.34684 37.9059 7.41018 38.1512C5.64402 38.6141 3.88579 38.3529 2.1236 38.2145C0.976581 38.1235 0.230422 37.4905 0.234391 36.3629C0.234391 35.2037 1.13136 34.6023 2.17519 34.4915C3.34205 34.3649 4.53272 34.4638 5.71149 34.4638C5.71149 34.5153 5.71149 34.5706 5.71149 34.6221L5.70752 34.626Z" fill="#292929"/>
<path d="M8.54603 53.4922C7.90307 53.5594 7.35933 53.3656 7.02197 52.7998C6.56555 52.0402 6.66874 51.2014 7.12119 50.5526C8.49047 48.5862 10.5622 47.5418 12.7332 46.7663C13.7493 46.4023 14.7614 46.8415 15.1622 47.9216C15.5432 48.9581 14.9995 49.7336 14.0231 50.1174C12.63 50.6673 11.7013 51.8344 10.4987 52.6336C9.89546 53.0372 9.33584 53.5199 8.54603 53.4882V53.4922Z" fill="#292929"/>
<path d="M61.2417 33.8223C63.4722 34.392 65.7782 35.3376 68.0404 36.3504C68.6755 36.6353 68.7945 37.4147 68.4691 38.0873C68.0325 38.9894 67.2427 39.6738 66.2782 39.4087C64.008 38.7797 61.7577 38.028 59.6938 36.849C58.9834 36.4454 58.8088 35.7293 59.1342 34.9578C59.4835 34.127 60.178 33.8302 61.2377 33.8184L61.2417 33.8223Z" fill="#292929"/>
<path d="M59.0939 22.9731C57.8873 22.9968 57.2999 22.7555 56.9824 22.0829C56.657 21.3945 56.8475 20.8248 57.4269 20.3342C59.1494 18.8703 60.995 17.6161 63.1422 16.8565C63.9558 16.5677 64.7297 16.6666 65.2893 17.3748C65.7616 17.9762 65.6783 18.712 65.202 19.2026C63.3763 21.0859 60.9672 21.9958 59.0978 22.9731H59.0939Z" fill="#292929"/>
<path d="M30.2874 7.00587C30.3905 8.22444 29.6603 8.65964 28.9895 9.0355C28.2751 9.43905 27.6718 8.95637 27.2948 8.41434C26.1636 6.78036 25.4373 4.93668 24.8301 3.0574C24.5483 2.18699 25.0841 1.53814 25.8461 1.13063C26.5844 0.738953 27.3385 0.865557 27.8108 1.50254C29.0887 3.21169 29.6206 5.26506 30.2834 7.00587H30.2874Z" fill="#292929"/>
<path d="M44.0479 35.3574C45.0282 38.0834 43.4287 40.2633 41.0593 42.1426C40.1703 42.8469 40.7815 43.6777 40.9243 44.4927C41.1109 45.5451 42.1785 46.9852 40.5076 47.5352C38.6898 48.1326 38.8724 46.3522 38.5509 45.3196C37.7413 42.7005 36.9554 40.0695 36.1855 37.4385C35.7846 36.0735 35.8997 34.7086 36.3164 33.3594C37.0467 31.0014 38.5509 29.9213 40.6029 30.313C43.2104 30.8076 44.3098 32.2437 44.0479 35.3614V35.3574ZM39.9718 39.567C41.0712 37.5492 40.7934 35.7847 40.6981 34.0439C40.6703 33.5335 40.4441 33.1537 39.8845 33.13C39.2852 33.1023 39.1899 33.5414 39.0788 34.0241C38.6541 35.8638 39.0272 37.5611 39.9678 39.571L39.9718 39.567Z" fill="#292929"/>
<path d="M25.286 38.8539C25.6075 37.4613 25.3336 35.8114 27.2189 35.309C28.7628 34.8975 31.6125 35.7284 32.1443 37.4415C33.1286 40.6145 35.8394 43.02 36.0021 46.5095C36.0219 46.9447 36.2998 47.3681 36.4704 47.7914C36.8752 48.8003 37.0499 49.7656 35.7203 50.1929C34.3828 50.6242 33.9502 49.6825 33.6763 48.6737C33.3667 47.5382 33.1961 46.3592 32.8428 45.2356C32.561 44.3335 32.2396 43.7321 30.8703 44.1752C28.2587 45.0219 25.2265 41.9636 25.286 38.8539Z" fill="#292929"/>
</g>
<defs>
<clipPath id="clip0_123_1714">
<rect width="68.4101" height="74.5925" fill="white" transform="translate(0.234375 0.908203)"/>
</clipPath>
</defs>
</svg>
