<svg width="140" height="94" viewBox="0 0 140 94" fill="none" xmlns="http://www.w3.org/2000/svg">
<g clip-path="url(#clip0_115_255)">
<path d="M82.905 0.381555C86.3052 0.381555 89.7214 0.165541 93.0975 0.421553C105.33 1.3496 112.266 8.57394 113.362 21.3025C114.451 33.9351 109.01 40.7595 96.4737 42.9276C86.1292 44.7117 75.5607 44.6637 65.2802 46.8718C56.9598 48.6638 48.6714 50.6239 41.8071 56.1762C40.695 57.0802 39.311 57.7283 37.9669 58.2563C34.4387 59.6484 30.7666 58.3923 29.9665 54.8081C29.1985 51.416 27.3264 51.44 24.8303 51.664C19.526 52.144 14.4378 51.088 9.78957 48.6638C2.53322 44.8717 -0.930944 36.5993 0.83714 27.4548C2.70123 17.7984 6.98144 8.63795 23.9182 8.63795C39.367 8.63795 54.1837 4.95777 69.0804 1.69361C73.6646 0.685563 78.2808 0.461559 82.905 0.381555ZM85.0972 6.54185C81.985 6.78986 78.6168 6.76586 75.3687 7.36589C56.5998 10.8301 38.0949 15.8543 18.774 15.8143C14.3338 15.8063 10.1096 17.5024 8.4375 22.4706C7.28545 25.8948 6.56542 29.3829 6.71742 33.0231C6.86143 36.5193 8.14949 39.1994 11.1096 41.4235C16.4699 45.4557 22.5022 45.3357 28.6385 45.0557C33.0307 44.8557 33.3827 45.2477 32.4866 49.5759C32.2386 50.7839 31.1746 52.24 32.7107 53.2081C34.1267 54.1041 35.1828 52.728 36.2868 52.128C40.943 49.5759 45.1912 46.3197 50.2075 44.3916C60.608 40.3995 71.4405 38.7194 82.497 38.1113C88.8653 37.7593 95.1696 37.1433 101.25 34.8952C104.714 33.6151 106.282 31.167 106.754 27.7989C107.298 23.9347 106.874 20.1025 105.682 16.3983C103.874 10.75 99.9058 7.6859 94.0576 7.10187C91.1534 6.81386 88.2253 6.72586 85.0891 6.54185H85.0972Z" fill="#292929"/>
<path d="M93.1367 52.8092C103.769 54.8493 114.61 53.2492 125.306 54.5933C135.483 55.8734 139.779 64.0577 139.379 73.4342C139.027 81.5226 132.787 88.0509 123.826 88.7389C116.234 89.3229 108.873 90.459 101.625 92.8831C96.1688 94.7072 94.3128 93.4031 92.7607 87.8349C92.3127 86.2348 91.3606 86.1948 90.1446 86.0348C79.7361 84.6667 75.6719 78.7384 77.96 68.53C78.904 64.2978 80.4241 60.3696 83.2322 57.0574C85.7923 54.0413 89.0165 52.4012 93.1447 52.8092H93.1367ZM96.4969 59.6495C88.4085 58.9695 86.1764 60.3216 84.4163 67.9299C82.5202 76.1223 82.5122 77.5544 91.0326 79.7865C92.1767 80.0905 93.3287 80.3945 94.4168 80.8425C96.4569 81.6826 97.2649 83.0587 96.2969 85.2828C95.7608 86.5068 94.0487 87.9309 95.6088 89.1229C96.9609 90.155 98.729 89.0989 100.057 88.2669C104.633 85.3868 109.625 83.6667 114.938 83.0346C118.074 82.6586 121.266 82.8266 124.402 82.1226C130.218 80.8265 133.307 76.4263 133.083 69.49C132.963 65.5938 129.258 62.1216 124.266 61.2336C114.546 59.5055 104.601 61.6656 96.4969 59.6495Z" fill="#292929"/>
<path d="M21.9473 30.9689C22.0833 28.8088 23.4433 27.1607 26.0195 26.8247C28.5716 26.4887 30.9877 29.0008 30.9317 31.8969C30.8837 34.6731 30.4117 37.3932 26.8675 37.6812C24.3794 37.8812 22.0193 34.7371 21.9473 30.9689Z" fill="#292929"/>
<path d="M70.3231 27.223C70.3551 30.1111 69.1711 32.2552 66.1309 32.4393C63.0268 32.6233 62.0667 30.2952 62.0587 27.703C62.0507 24.8629 62.3548 21.8867 65.9549 21.2947C68.475 20.8867 70.2831 23.5108 70.3231 27.231V27.223Z" fill="#292929"/>
<path d="M50.1411 31.5362C50.3091 33.9763 49.749 35.9364 46.9969 36.1924C44.3968 36.4324 41.9567 33.8643 42.3167 31.0402C42.6127 28.696 43.1967 25.9279 46.3889 26.1519C49.549 26.3759 50.3651 28.7841 50.1411 31.5442V31.5362Z" fill="#292929"/>
<path d="M113.249 72.1145C112.649 74.2906 112.665 77.4428 108.993 77.3628C106.217 77.2988 105.305 75.2587 105.345 72.6905C105.393 69.9224 106.297 67.3543 109.281 67.2583C111.657 67.1783 113.257 69.0824 113.249 72.1065V72.1145Z" fill="#292929"/>
<path d="M127.066 71.7782C126.898 73.6503 126.498 76.5224 123.45 76.3304C120.73 76.1624 119.002 73.6583 119.106 70.9142C119.194 68.45 121.074 66.762 123.618 66.802C126.226 66.834 127.242 68.6661 127.074 71.7782H127.066Z" fill="#292929"/>
<path d="M99.7077 72.3694C99.2357 73.8015 98.7637 76.1856 96.2996 75.9696C93.7715 75.7456 91.8434 73.9455 91.9474 71.2014C92.0274 69.0733 92.7954 66.7691 95.6275 66.9932C98.4597 67.2172 99.7077 69.1453 99.7077 72.3774V72.3694Z" fill="#292929"/>
</g>
<defs>
<clipPath id="clip0_115_255">
<rect width="139.022" height="93.3577" fill="white" transform="translate(0.383789 0.295898)"/>
</clipPath>
</defs>
</svg>
