<svg width="950" height="755" viewBox="0 0 950 755" fill="none" xmlns="http://www.w3.org/2000/svg">
<g clip-path="url(#clip0_96_271)">
<path d="M312.941 604.494C313.706 577.98 313.817 551.478 312.336 524.989C311.683 513.287 311.843 513.348 300.678 510.337C282.396 505.399 266.679 495.709 253.158 482.798C230.298 460.962 213.04 435.509 206.18 404.058C199.235 372.199 204.009 341.932 219.837 313.517C222.23 309.209 220.984 307.419 217.37 305.432C214.865 304.062 213.373 303.975 211.164 306.37C205.379 312.653 197.064 310.443 194.559 302.222C193.116 297.495 193.437 292.644 195.67 288.398C201.468 277.387 208.882 267.636 219.257 260.39C222.687 257.995 226.092 257.687 229.632 259.686C233.457 261.846 235.603 265.623 234.184 269.549C231.779 276.202 237.281 277.967 240.525 280.424C243.387 282.584 246.114 279.053 248.334 277.227C260.807 266.92 273.846 257.798 290.242 254.872C292.647 254.44 294.683 253.514 293.807 250.404C292.968 247.454 292.45 244.109 288.292 244.183C284.801 244.244 281.31 244.578 277.819 244.602C270.799 244.652 265.087 240.603 263.508 234.246C261.88 227.691 265.47 223.408 270.725 220.742C287.922 212.04 305.995 207.349 325.425 210.682C330.989 211.632 335.763 213.904 336.343 220.52C336.898 226.914 333.444 230.938 328.201 233.814C327.116 234.406 326.067 235.209 324.907 235.468C320.034 236.542 321.404 239.628 321.91 242.998C322.539 247.108 324.759 247.046 328.004 246.812C345.805 245.553 363.212 248.713 380.594 251.934C383.185 252.416 386.134 253.601 387.984 250.873C389.847 248.145 390.192 245.479 388.329 241.887C384.394 234.295 392.697 224.766 402.072 226.198C412.225 227.753 421.293 232.16 428.571 239.603C432.679 243.812 433.531 252.255 430.891 257.538C427.991 263.328 423.526 263.908 417.949 261.785C416.198 261.118 413.804 260.229 412.595 262.908C411.497 265.34 412.176 267.191 414.619 268.524C439.896 282.362 453.318 305.691 464.36 330.909C467.407 337.871 470.121 344.944 471.441 352.498C471.811 354.572 471.798 357.621 475.425 356.016C489.119 349.992 503.935 350.387 518.344 348.635C537.935 346.252 557.069 341.278 576.634 338.858C587.022 337.575 597.434 336.513 607.871 335.698C621.638 334.625 628.115 338.673 634.147 351.202C641.537 366.545 650.21 381.432 653.935 398.194C664.409 445.261 678.374 491.5 686.183 539.233C691.08 569.191 698.717 598.705 705.008 628.441C709.129 647.944 712.188 667.657 714.976 687.382C715.408 690.406 715.433 693.566 715.05 696.59C713.632 707.65 710.967 709.094 700.432 712.452C672.44 721.376 643.128 719.92 614.631 724.487C596.632 727.375 578.806 731.412 560.807 734.325C527.572 739.719 494.325 744.792 460.572 746.458C445.102 747.224 429.842 751.384 414.508 754.173C395.201 757.679 383.395 749.927 377.868 731.029C376.425 726.104 375.117 724.116 369.356 725.573C360.412 727.832 351.11 728.424 341.821 728.177C328.337 727.807 321.404 722.203 318.431 709.107C315.717 697.195 315.174 685.036 314.952 672.94C314.532 650.129 314.828 627.305 314.828 604.494C314.199 604.494 313.582 604.494 312.953 604.494H312.941ZM608.574 345.24C605.514 345.573 602.455 345.857 599.395 346.24C581.84 348.4 564.656 352.362 547.619 357.053C526.708 362.805 504.823 361.966 483.703 366.459C473.76 368.582 473.612 368.212 474.068 378.728C474.833 396.491 473.328 413.834 468.246 431.103C455.995 472.725 396.213 512.916 362.669 515.78C356.81 516.286 355.761 518.545 356.908 523.939C360.498 540.801 363.138 557.884 367.098 574.659C375.351 609.604 377.301 645.339 381.335 680.815C383 695.492 384.431 710.292 388.922 724.45C393.03 737.374 401.616 741.928 415.063 739.855C437.589 736.386 460.091 732.782 482.914 731.547C499.519 730.646 516.148 729.609 532.445 725.906C564.73 718.574 597.52 714.538 630.335 710.711C652.763 708.094 675.29 706.416 697.175 700.194C702.381 698.713 703.799 696.059 703.109 691.356C700.937 676.729 698.927 662.077 696.484 647.487C689.958 608.604 679.496 570.475 674.179 531.358C670.651 505.424 661.621 480.786 656.267 455.271C648.889 420.043 640.353 385.209 622.415 353.399C618.998 347.351 615.63 343.895 608.574 345.228V345.24ZM345.164 474.059C388.354 473.244 421.885 451.667 435.813 410.464C448.532 372.828 435.159 329.539 404.379 308.678C375.808 289.323 343.856 283.324 309.918 286.361C292.746 287.904 278.399 297.285 267.888 308.974C249.025 329.946 240.71 355.991 243.116 384.727C245.509 413.402 257.204 437.213 280.249 454.901C299.395 469.59 321.7 473.873 345.164 474.046V474.059ZM339.292 601.815C338.366 587.719 337.873 575.635 338.181 563.476C338.552 549.108 338.095 534.777 335.591 520.508C334.653 515.163 332.087 514.521 327.683 514.607C322.366 514.706 324.377 518.459 324.55 520.755C326.203 542.085 325.647 563.365 324.858 584.732C323.871 611.604 323.97 638.575 326.203 665.435C327.103 676.297 325.993 687.246 327.979 698.022C328.312 699.812 328.139 702.478 330.076 702.725C332.47 703.033 333.173 700.318 333.716 698.405C336.269 689.32 338.354 680.136 339.304 670.693C341.697 647.055 338.539 623.454 339.292 601.828V601.815ZM241.845 309.579C239.193 310.098 237.219 311.307 235.751 313.011C233.494 315.64 231.211 318.368 229.521 321.367C217.888 342.068 211.818 364.126 213.854 388.048C214.138 391.43 212.558 397.17 217.69 396.824C223.007 396.466 221.749 390.751 221.687 386.74C221.687 386.332 221.49 385.937 221.465 385.53C220.787 376.284 220.96 367.212 223.365 358.053C227.523 342.204 234.628 327.799 243.03 313.9C243.659 312.863 244.707 311.863 243.659 310.628C243.19 310.073 242.314 309.839 241.833 309.579H241.845ZM352.998 257.822C352.368 257.822 350.925 257.785 349.494 257.822C347.199 257.896 344.473 257.909 344.189 260.809C343.844 264.364 347.113 263.772 349.062 263.797C355.132 263.895 360.844 265.278 366.37 267.623C381.224 273.943 397.175 277.856 410.387 287.756C410.881 288.126 411.423 288.422 411.979 288.681C413.151 289.249 414.471 289.607 415.346 288.422C416.21 287.25 415.532 286.065 414.619 285.139C413.607 284.114 412.583 283.114 411.485 282.189C396.249 269.512 377.695 264.044 359.326 258.23C357.611 257.687 355.65 257.946 352.998 257.785V257.822ZM205.107 292.175C212.929 289.348 216.987 283.509 220.454 277.128C221.046 276.042 221.305 274.77 220.429 273.659C219.64 272.672 218.665 273.054 217.653 273.388C212.423 275.079 205.218 285.534 205.107 292.187V292.175ZM288.687 223.63C286.467 224.062 285.973 225.593 286.282 227.346C286.849 230.53 288.107 233.505 291.784 233.839C294.004 234.048 294.14 232.061 293.918 230.284C293.511 226.963 292.141 224.433 288.687 223.63ZM308.389 220.063C308.302 218.051 307.106 216.989 305.625 217.668C303.158 218.792 298.84 216.718 298.433 221.347C298.26 223.285 299.58 225.013 301.887 224.482C304.589 223.865 307.426 223.1 308.389 220.063ZM281.544 237.826C283.148 236.937 283.395 235.11 283.259 233.332C283.086 231.012 282.494 228.593 279.496 228.741C277.708 228.827 276.449 230.271 276.906 232.197C277.473 234.555 278.152 237.048 281.532 237.838L281.544 237.826Z" fill="white"/>
<path d="M790.658 439.583C783.034 435.732 773.4 437.016 764.246 435.115C756.622 433.523 748.85 432.671 741.608 429.56C738.574 428.264 735.341 427.005 735.156 422.969C734.959 418.648 738.524 417.575 741.485 416.439C785.28 399.54 821.364 371.422 854.352 338.81C859.311 333.909 864.036 328.75 868.699 323.553C870.895 321.109 873.054 320.43 876.286 321.417C896.099 327.454 915.677 327.17 934.367 317.616C940.757 314.345 944.261 319.208 948.702 321.183C951.12 322.257 949.639 325.306 948.529 327.244C945.371 332.786 941.793 338.081 937.574 342.871C914.69 368.866 889.671 392.542 861.544 412.847C851.342 420.204 839.992 425.944 828.791 430.955C817.515 436.004 804.537 438.114 790.658 439.596V439.583ZM935.946 326.145C933.071 326.034 931.307 327.17 929.518 328.083C912.617 336.711 895.1 338.538 877.027 332.564C873.498 331.391 872.117 333.107 870.525 335.329C864.036 344.401 856.067 352.091 848.048 359.794C837.031 370.348 824.177 378.618 813 388.95C806.671 394.813 806.745 395.739 813.888 400.503C815.911 401.849 817.885 403.49 819.353 405.391C828.31 417.031 829.37 417.377 842.558 411.242C845.346 409.946 848.147 408.576 850.663 406.848C879.42 387.061 904.636 363.275 928.384 337.835C931.455 334.551 933.873 330.675 935.958 326.133L935.946 326.145ZM793.545 404.243C780.616 410.168 768.342 415.106 756.326 422.672C763.826 424.82 770.55 426.141 777.384 426.943C780.086 427.264 782.923 427.104 784.774 424.796C789.4 418.994 792.324 412.452 793.558 404.243H793.545ZM819.205 423.808C815.048 418.846 810.73 415.044 804.451 414.02C801.663 413.563 800.096 414.76 799.43 417.278C798.677 420.117 801.12 420.006 802.736 420.586C805.425 421.549 808.694 421.821 810.668 423.586C813.703 426.289 815.998 425.376 819.205 423.82V423.808Z" fill="white"/>
<path d="M0.371944 520.139C0.544656 512.461 0.729704 512.202 7.84789 514.769C30.1277 522.817 52.3705 523.249 74.7243 515.102C89.8859 509.572 106.121 506.807 119.58 496.969C123.996 493.748 127.056 496.723 128.943 500.475C133.323 509.165 139.59 516.411 147.72 521.274C164.534 531.334 180.337 543.505 200.014 548.109C204.27 549.109 209.304 549.887 209.92 555.75C210.562 561.823 207.28 565.859 202.481 568.908C200.409 570.229 198.287 571.538 196.054 572.55C179.992 579.783 163.917 586.979 147.818 594.102C142.316 596.533 136.432 597.891 130.473 597.867C114.201 597.78 97.7566 601.989 81.6821 596.003C76.2663 593.991 70.7642 592.053 66.1997 588.535C50.2979 576.228 32.9774 565.761 18.4943 551.603C12.2644 545.517 6.86096 538.864 2.80224 531.174C0.988771 527.73 -0.78769 524.163 0.384281 520.139H0.371944ZM8.14396 523.471C18.5683 537.926 55.2696 570.204 69.3702 577.388C74.2678 579.894 79.3628 582.437 85.2227 580.943C107.65 575.228 130.128 569.723 151.914 561.687C155.196 560.478 160.513 555.91 162.462 561.354C164.214 566.242 157.811 567.699 154.011 569.044C140.503 573.858 127.438 579.857 113.264 582.918C108.082 584.042 102.864 585.98 96.6093 587.72C118.383 591.152 183.878 571.303 194.919 558.169C186.999 556.096 179.35 553.738 172.553 549.479C165.595 545.11 158.872 540.394 152.013 535.877C141.675 529.063 131.571 521.842 124.897 511.189C121.665 506.042 119.062 506.166 114.226 508.906C97.5592 518.336 79.6589 525.261 61.4995 530.877C43.5622 536.42 25.8469 532.482 8.1563 523.471H8.14396Z" fill="white"/>
<path d="M719.565 201.215C711.793 202.832 701.505 204.56 691.438 207.177C683.876 209.139 676.338 209.238 668.862 208.288C656.649 206.732 644.621 204.041 632.938 200.054C627.732 198.277 626.869 195.475 630.866 192.216C659.931 168.504 681.507 138.731 700.863 107.02C705.872 98.8116 712.41 91.5535 717.826 83.5795C721.071 78.8025 724.895 77.5928 729.916 79.827C742.154 85.2459 755.304 86.0236 768.282 87.8998C779.225 89.4921 790.007 87.5295 800.863 87.332C805.058 87.2579 807.439 83.4808 810.424 81.0614C811.991 79.8023 813.841 77.6792 815.729 79.4197C817.764 81.2836 815.568 83.3697 814.236 84.567C810.461 87.9739 808.179 91.4054 808.648 97.0958C808.919 100.355 806.316 103.984 804.614 107.242C788.65 137.595 767.073 162.986 738.329 182.008C736.109 183.477 734.012 185.143 731.803 186.649C730.286 187.686 729.854 188.525 730.582 190.636C733.271 198.4 730.656 201.498 719.578 201.239L719.565 201.215ZM643.535 194.919C662.127 198.45 678.719 198.919 693.831 188.044C698.914 184.39 704.675 181.144 711.004 183.045C717.394 184.958 722.107 183.045 726.943 179.44C752.196 160.703 772.588 137.571 788.897 110.773C791.697 106.168 794.054 101.305 797.051 95.7504C783.086 98.3055 770.145 97.5032 757.229 97.3674C747.853 97.2686 738.749 95.5282 730.693 90.5907C726.918 88.2824 725.351 89.739 723.365 92.6027C714.791 104.897 706.304 117.265 697.421 129.337C680.927 151.729 667.764 176.836 643.535 194.919ZM691.685 198.943C698.433 199.943 704.601 197.894 710.868 196.314C712.163 195.993 714.063 196.561 713.755 194.265C713.533 192.574 712.028 193.018 710.856 192.846C703.491 191.772 697.804 195.956 691.697 198.931L691.685 198.943Z" fill="white"/>
<path d="M760.201 183.87C758.313 183.685 756.266 184.277 755.513 182.413C754.798 180.636 756.685 180.019 757.82 179.327C774.524 169.119 786.786 153.912 800.973 140.877C803.576 138.494 806.167 136.211 809.313 134.631C810.337 134.125 811.262 132.841 812.607 133.742C813.964 134.656 814.321 136.149 813.914 137.581C813.31 139.729 812.792 142.099 811.521 143.852C800.825 158.59 789.068 172.23 772.229 180.364C768.318 182.253 764.284 183.66 760.201 183.857V183.87Z" fill="white"/>
<path d="M530.682 235.875C532.174 235.961 532.878 236.973 533.211 238.195C533.754 240.158 534.543 242.17 534.543 244.157C534.518 249.934 536.529 252.971 542.883 251.786C544.844 251.415 547.583 251.637 548.076 253.97C548.681 256.785 545.843 257.896 543.795 258.241C536.616 259.488 534.728 263.87 535.481 270.474C535.851 273.745 535.185 277.041 534 280.151C533.408 281.694 532.631 283.348 530.694 283.324C528.807 283.299 527.721 281.719 527.302 280.176C526.389 276.831 525.55 273.412 525.18 269.968C524.822 266.623 524.119 264.549 520.035 265.29C517.099 265.82 513.929 265.401 513.25 261.722C512.535 257.896 515.89 256.612 518.493 256.007C523.934 254.723 525.636 251.378 525.611 246.28C525.599 243.392 526.463 240.615 527.968 238.084C528.609 237.023 529.3 235.998 530.694 235.862L530.682 235.875Z" fill="white"/>
<path d="M92.2776 112.143C95.3494 113.068 95.6455 115.833 95.337 118.117C94.4858 124.511 97.0765 126.474 103.195 125.745C106.119 125.4 110.203 125.498 110.215 129.732C110.215 133.509 106.724 134.435 103.417 134.411C97.6933 134.361 93.721 135.781 93.6099 142.755C93.5483 146.804 91.7224 150.717 89.7486 154.37C88.9591 155.827 88.0955 157.58 86.2204 157.333C84.5673 157.111 84.6289 155.21 84.1355 153.876C82.4824 149.371 83.1115 144.94 84.5426 140.582C85.6405 137.25 85.6529 135.126 81.15 135.201C78.9418 135.238 76.6842 134.213 75.4012 132.09C73.526 129.029 75.7713 125.301 80.0644 125.869C87.0099 126.77 88.5396 123.622 88.4779 117.722C88.4533 115.377 88.9467 112.661 92.2653 112.155L92.2776 112.143Z" fill="white"/>
<path d="M863.744 55.9051C862.325 62.5337 860.573 69.2239 856.33 75.0131C850.864 82.481 844.893 89.4922 837.849 95.5159C836.554 96.6145 835.012 98.6265 833.186 97.0342C831.866 95.8739 832.742 93.8619 833.544 92.4671C835.888 88.3937 838.207 84.2709 840.859 80.4073C845.621 73.4949 850.618 66.7676 853.85 58.9046C854.75 56.7198 856.687 54.9423 858.229 53.0414C859.167 51.8811 860.413 51.0294 861.98 51.5478C864.052 52.2267 863.62 54.0906 863.731 55.9298L863.744 55.9051Z" fill="white"/>
<path d="M835.22 56.5345C835.207 60.9288 824.894 73.2108 820.724 73.7539C818.368 74.0625 817.591 72.5689 818.343 70.7791C821.144 64.1135 825.647 58.6082 830.705 53.535C831.543 52.6956 832.839 52.2759 834.023 53.2264C835.084 54.0781 835.244 55.2754 835.22 56.5345Z" fill="white"/>
<path d="M609.563 409.439C609.908 420.487 606.96 425.165 599.373 427.905C587.999 432.015 575.934 431.756 564.128 432.768C546.536 434.274 528.956 435.83 511.512 438.57C508.181 439.088 504.949 438.804 501.742 438.039C498.904 437.36 496.647 435.817 496.98 432.571C497.325 429.288 499.817 428.423 502.778 428.325C530.313 427.436 557.355 421.82 584.767 419.647C595.586 418.783 596.597 416.66 594.327 406.402C592.317 397.28 587.37 389.294 584.754 380.431C584.039 377.975 582.139 378.839 580.696 379.16C562.857 383.023 544.772 385.579 526.908 389.393C513.708 392.219 500.175 393.479 486.802 395.441C484.409 395.799 482.842 395.145 482.41 392.479C481.979 389.8 483.274 389.269 485.643 388.492C513.301 379.382 542.033 375.753 570.666 371.606C575.86 370.853 581.349 370.581 585.926 367.458C588.924 365.421 590.91 367.409 592.045 369.421C599.719 382.974 607.157 396.663 609.563 409.451V409.439Z" fill="white"/>
<path d="M627.414 580.066C630.078 580.066 632.756 580.066 635.42 580.066C637.826 580.066 640.182 580.523 640.713 583.238C641.28 586.102 639.43 588.126 636.95 588.842C633.434 589.854 629.721 590.904 626.131 590.78C600.421 589.916 575.662 596.68 550.52 600.149C512.548 605.383 474.675 611.394 436.777 617.085C431.707 617.85 426.686 618.948 421.603 619.454C418.729 619.738 414.818 620.467 414.411 615.912C414.078 612.196 417.212 611.394 420.111 610.703C429.079 608.543 438.073 606.592 447.226 605.272C475.625 601.174 503.937 596.335 532.311 592.298C563.918 587.805 595.154 579.671 627.414 580.078V580.066Z" fill="white"/>
<path d="M505.466 560.612C517 560.143 528.079 556.773 539.403 554.971C565.36 550.836 591.501 548.108 617.531 544.59C619.899 544.269 622.206 544.454 623.317 546.948C624.39 549.342 623.218 551.317 621.577 553.021C619.332 555.354 616.433 556.094 613.312 556.687C593.857 560.377 574.057 560.205 554.454 562.328C526.006 565.426 498.138 571.228 470.442 578.202C453.948 582.362 437.232 585.67 420.59 589.188C417.605 589.817 414.459 589.718 411.387 589.817C409.031 589.891 406.601 589.509 406.119 586.707C405.638 583.868 407.76 582.695 410.092 582.115C417.259 580.337 424.452 578.658 431.619 576.918C451.95 571.968 472.28 567.018 492.611 562.044C496.83 561.007 501.111 560.612 505.453 560.612H505.466Z" fill="white"/>
<path d="M621.675 676.062C627.214 676.062 632.765 676.001 638.304 676.087C641.092 676.136 644.029 676.914 644.633 679.926C645.287 683.259 642.351 684.308 639.772 685.221C634.332 687.147 628.768 688.492 622.958 688.517C596.817 688.653 570.972 691.615 545.262 696.145C531.68 698.54 517.863 698.429 504.169 699.478C485.541 700.898 466.925 702.317 448.272 703.33C444.423 703.539 437.922 705.7 437.379 699.886C436.799 693.788 443.473 696.281 446.989 695.479C478.411 688.283 510.621 689.147 542.487 686.32C554.601 685.246 566.173 681.42 578.151 679.728C592.598 677.692 607.068 676.099 621.687 676.05L621.675 676.062Z" fill="white"/>
<path d="M428.782 646.697C426.056 646.697 423.971 646.784 423.453 644.463C422.947 642.192 424.896 641.229 426.45 640.303C430.941 637.6 436.036 636.502 441.094 635.872C491.168 629.7 540.724 619.578 591.131 615.974C608.118 614.764 625.069 613.147 641.822 609.901C644.005 609.481 646.423 609.062 648.187 611.012C649.865 612.876 653.295 614.135 652.098 617.27C651.074 619.961 648.089 620.307 645.301 620.578C612.436 623.775 579.535 626.614 546.695 630.194C509.574 634.23 472.959 641.76 435.814 645.475C433.174 645.735 430.571 646.377 428.782 646.697Z" fill="white"/>
<path d="M445.09 486.328C443.856 486.328 442.622 486.377 441.389 486.328C439.082 486.204 437.305 485.081 437.145 482.711C436.984 480.292 439.242 479.921 440.969 479.44C452.664 476.194 464.618 474.428 476.585 472.552C496.903 469.368 517.912 471.355 537.749 466.294C556.007 461.64 574.5 463.134 592.696 460.258C602.035 458.777 611.312 456.691 620.824 457.9C624.919 458.419 631.075 458.197 630.977 463.566C630.878 469.071 625.24 469.997 620.219 470.306C595.645 471.836 570.996 472.737 546.545 475.453C534.098 476.835 521.699 478.07 509.19 478.662C490.106 479.563 471.243 482.538 452.393 485.513C449.962 485.896 447.532 486.266 445.102 486.636C445.102 486.538 445.077 486.426 445.065 486.328H445.09Z" fill="white"/>
<path d="M400.033 524.197C395.505 524.456 391.903 524.419 391.57 520.889C391.126 516.235 395.579 515.593 398.873 515.013C418.476 511.532 438.103 508.224 457.743 504.966C474.743 502.151 491.767 499.497 508.779 496.745C515.342 495.683 521.856 495.646 528.357 497.152C529.492 497.411 531.121 497.103 531.294 498.72C531.442 500.114 530.072 500.67 529.011 501.299C521.585 505.694 513.282 506.928 504.93 508.224C477.173 512.52 449.453 517.05 421.696 521.383C413.998 522.58 406.238 523.419 400.045 524.222L400.033 524.197Z" fill="white"/>
<path d="M404.234 554.206C400.558 554.28 397.906 554.23 397.264 551.07C396.623 547.96 398.399 545.923 401.101 544.812C408.577 541.726 416.657 541.158 424.454 539.48C447.708 534.493 470.741 528.346 494.353 525.087C499.028 524.445 503.729 523.988 508.441 523.741C510.452 523.63 512.747 524.099 513.351 526.581C513.857 528.642 512.475 529.95 511.007 531.222C508.071 533.777 504.469 534.604 500.842 535.27C494.377 536.455 487.925 538.011 481.412 538.467C456.443 540.196 432.966 549.009 408.577 553.403C406.763 553.724 404.962 554.057 404.234 554.193V554.206Z" fill="white"/>
<path d="M597.583 665.323C588.145 665.323 578.708 665.348 569.258 665.311C566.593 665.311 563.151 665.471 563.176 661.879C563.201 658.62 566.568 659.003 568.974 658.855C598.249 656.991 627.548 655.411 656.687 651.844C657.698 651.72 658.735 651.733 659.759 651.733C661.72 651.733 663.669 652.202 664.224 654.263C664.878 656.732 662.991 657.88 661.066 658.842C654.22 662.286 646.657 661.904 639.379 662.509C625.475 663.669 611.523 664.2 597.583 664.99V665.323Z" fill="white"/>
<path d="M583.543 518.211C598.914 518.397 612.435 516.681 625.253 510.941C628.411 509.521 632.309 507.744 634.209 512.336C636.158 517.039 632.297 519.026 628.818 520.409C620.158 523.852 610.98 525.124 601.752 525.568C590.291 526.124 578.769 525.692 567.444 528.16C566.852 528.284 566.21 528.333 565.606 528.259C563.188 527.951 559.684 529.666 558.969 525.815C558.265 522.013 561.498 521.31 564.323 520.409C571.083 518.248 578.016 517.964 583.531 518.236L583.543 518.211Z" fill="white"/>
<path d="M439.225 681.012C438.411 681.012 437.584 681.074 436.77 681C434.685 680.79 432.279 680.531 432.341 677.84C432.403 675.47 434.734 675.408 436.535 675.186C447.725 673.84 458.926 672.655 470.091 671.162C479.417 669.915 488.608 667.644 498.095 667.693C500.994 667.706 504.423 667.459 504.534 671.507C504.633 675.087 501.759 676.05 498.638 676.395C478.887 678.617 459.074 680.012 439.225 681V681.012Z" fill="white"/>
<path d="M512.926 415.549C512.815 415.549 511.384 415.45 511.038 414.068C510.471 411.833 512.321 411.29 513.9 410.932C524.855 408.451 535.798 405.933 546.802 403.649C552.193 402.526 557.658 401.786 563.123 401.045C565.072 400.786 567.626 400.415 568.021 403.267C568.354 405.723 566.405 406.995 564.307 407.402C556.696 408.92 549.084 410.438 541.423 411.648C532.344 413.068 523.202 414.166 512.926 415.561V415.549Z" fill="white"/>
<path d="M382.467 319.059C382.418 322.54 380.494 325.255 378.729 328.02C370.637 340.648 362.408 353.189 354.451 365.915C350.195 372.717 347.123 380.123 344.187 387.603C341.461 394.528 337.303 395.429 331.221 391.134C316.455 380.703 301.651 370.347 286.131 361.064C283.59 359.546 279.84 358.065 281.962 354.152C284.034 350.325 287.673 351.609 290.671 353.152C303.649 359.781 316.763 366.187 329.396 373.457C334.034 376.124 335.428 374.877 337.513 371.013C346.605 354.152 357.4 338.377 368.934 323.108C370.908 320.503 373.129 318.059 375.423 315.726C376.805 314.319 378.742 314.023 380.58 314.862C382.344 315.664 382.517 317.355 382.504 319.071L382.467 319.059Z" fill="white"/>
<path d="M402.427 449.37C397.974 449.456 393.434 444.926 393.619 441.013C393.804 437.335 396.098 435.545 399.602 435.372C403.377 435.175 408.25 439.989 407.88 443.716C407.534 447.16 405.462 449.222 402.427 449.382V449.37Z" fill="white"/>
<path d="M424.351 375.222C420.601 374.654 415.999 374.691 415.802 369.47C415.654 365.791 418.898 364.792 421.945 365.495C425.412 366.298 430.717 365.063 431.185 370.371C431.531 374.309 428.249 375.79 424.351 375.222Z" fill="white"/>
<path d="M421.417 414.797C418.222 413.982 413.657 413.612 413.238 408.353C412.967 404.909 415.607 403.354 418.777 403.206C422.441 403.021 427.215 407.477 427.03 410.748C426.858 413.76 425.106 415.043 421.417 414.797Z" fill="white"/>
<path d="M257.171 413.611C255.16 413.389 252.693 414.105 252.36 411.08C252.088 408.587 258.516 403.613 261.933 403.65C264.462 403.687 266.831 404.884 266.362 407.526C265.486 412.451 261.39 413.413 257.171 413.611Z" fill="white"/>
<path d="M402.478 329.551C399.135 329.193 397.272 327.107 397.358 323.861C397.445 320.651 399.863 319.047 402.823 319.405C405.5 319.726 408.252 321.133 408.19 324.342C408.128 327.613 406.043 329.527 402.478 329.551Z" fill="white"/>
<path d="M269.603 324.317C273.563 324.268 276.437 326.021 277.239 329.921C277.708 332.23 275.894 334.291 273.674 333.736C270.294 332.909 266.001 332.341 265.174 328.033C264.631 325.256 267.074 324.33 269.603 324.317Z" fill="white"/>
<path d="M364.221 304.541C363.876 307.319 364.233 311.084 359.903 311.01C356.646 310.948 356.77 307.812 356.708 305.418C356.634 302.221 357.35 298.592 360.866 298.345C364.32 298.098 364.073 301.739 364.221 304.529V304.541Z" fill="white"/>
<path d="M296.386 451.716C295.831 454.876 294.82 458.172 290.946 458.666C288.355 458.999 287.27 456.567 287.874 454.506C288.787 451.383 288.947 447.075 293.537 446.927C296.115 446.841 296.325 449.396 296.386 451.729V451.716Z" fill="white"/>
<path d="M308.399 305.53C308.374 302.827 309.102 300.876 311.742 301.111C315.665 301.469 317.146 304.32 317.281 307.851C317.368 310.06 316.282 312.208 313.864 311.961C310.04 311.578 308.559 308.739 308.411 305.53H308.399Z" fill="white"/>
<path d="M358.558 458.888C361.926 459.567 363.16 461.9 363.012 465.072C362.901 467.713 361.396 469.281 358.694 468.997C355.585 468.676 354.092 466.615 354.154 463.591C354.216 460.85 355.413 458.949 358.546 458.888H358.558Z" fill="white"/>
<path d="M256.442 369.903C254.665 369.804 253.062 369.249 253.148 367.15C253.234 365.015 254.801 363.867 256.775 363.546C258.81 363.212 259.933 364.533 260.032 366.348C260.167 368.644 258.379 369.409 256.442 369.903Z" fill="white"/>
<path d="M829.914 403.503C826.83 403.7 824.214 402.417 822.092 400.454C819.082 397.664 820.032 393.406 823.992 392.344C826.916 391.554 830.062 391.554 833.121 391.27C837.982 390.826 842.842 391.036 847.506 388.715C850.577 387.185 855.339 385.247 857.116 389.703C858.831 394.023 855.339 397.849 851.441 399.417C844.619 402.145 837.217 402.762 829.914 403.515V403.503Z" fill="white"/>
<path d="M869.083 360.719C866.307 360.633 864.062 360.694 863.433 358.102C862.779 355.411 864.827 354.35 866.813 353.782C876.682 351.017 886.588 348.351 896.507 345.771C898.604 345.228 901.034 345.574 901.429 348.129C901.947 351.597 899.875 354.14 896.741 355.165C893.447 356.238 889.932 356.621 886.514 357.3C880.494 358.485 874.462 359.67 869.107 360.719H869.083Z" fill="white"/>
<path d="M847.238 381.542C844.055 380.863 838.923 383.53 838.516 378.629C838.183 374.605 843.117 374.185 846.559 373.79C853.875 372.951 861.203 372.247 868.531 371.532C870.394 371.346 872.515 371.248 873.108 373.507C873.712 375.827 871.553 376.666 869.974 377.444C862.782 380.987 854.862 380.567 847.25 381.542H847.238Z" fill="white"/>
<path d="M87.6372 571.524C82.9123 571.265 79.5938 570.919 76.6577 569.401C74.2027 568.142 73.9436 566.389 76.781 565.043C77.6939 564.611 78.6809 564.229 79.6678 564.056C96.2974 561.278 112.471 556.748 128.57 551.836C130.063 551.379 131.95 550.219 133.048 552.033C134.405 554.255 132.295 555.514 130.815 556.353C116.912 564.192 101.948 568.956 87.6495 571.511L87.6372 571.524Z" fill="white"/>
<path d="M64.22 554.378C61.1606 554.106 58.0888 553.933 55.0417 553.501C53.9067 553.341 52.4757 552.995 52.1673 551.551C51.7725 549.699 53.3516 548.934 54.5729 548.453C57.4226 547.305 60.3587 546.342 63.3195 545.552C70.0552 543.737 76.8527 542.17 83.5761 540.294C86.2161 539.553 88.6217 539.355 89.9787 542.034C91.2741 544.601 89.3126 546.293 87.4991 547.687C80.64 552.983 72.6459 554.353 64.2324 554.378H64.22Z" fill="white"/>
<path d="M707.058 181.389C698.694 180.611 690.318 179.821 681.953 179.08C678.845 178.809 674.983 178.809 674.848 174.871C674.7 170.452 678.746 169.354 682.274 169.193C692.723 168.736 703.197 168.452 713.523 170.785C714.719 171.057 715.928 171.304 717.137 171.489C719.531 171.872 722.59 171.686 722.812 174.933C723.022 177.871 720.123 178.883 717.976 179.846C714.547 181.389 710.784 181.364 707.071 181.389H707.058Z" fill="white"/>
<path d="M713.336 159.172C709.302 159.172 703.96 159.283 698.631 159.123C696.139 159.049 693.227 158.419 692.956 155.494C692.647 152.235 695.608 151.741 698.112 151.568C712.633 150.544 727.14 149.507 741.673 148.705C743.893 148.581 747.126 148.31 747.533 151.741C747.915 155 744.93 155.654 742.684 156.395C733.568 159.394 724.106 159.394 713.336 159.184V159.172Z" fill="white"/>
<path d="M758.992 117.278C749.58 117.339 740.204 117.883 730.878 119.302C728.867 119.611 726.806 119.672 724.771 119.771C723.291 119.833 721.637 119.672 721.156 118.092C720.564 116.142 722.119 115.192 723.624 114.426C728.435 111.995 733.727 110.97 738.933 110.242C748.839 108.859 758.832 107.699 768.886 108.452C771.798 108.674 775.918 107.995 775.856 112.427C775.795 117.056 771.946 117.426 768.208 117.302C765.136 117.204 762.077 117.278 759.005 117.278H758.992Z" fill="white"/>
<path d="M703.5 134.892C707.139 132.324 711.001 133.015 714.517 132.497C721.573 131.448 728.704 130.979 735.822 130.337C737.611 130.176 739.708 129.88 740.325 132.299C740.818 134.274 739.264 135.25 737.931 136.163C731.257 140.755 710.655 140.187 703.5 134.892Z" fill="white"/>
</g>
<defs>
<clipPath id="clip0_96_271">
<rect width="950" height="755" fill="white"/>
</clipPath>
</defs>
</svg>
