<svg width="390" height="450" viewBox="0 0 390 450" fill="none" xmlns="http://www.w3.org/2000/svg">
<path d="M304.093 419.953C311.402 419.407 318.71 418.879 326.019 418.323C330.273 418 334.527 417.658 338.711 418.772C340.745 419.319 342.395 420.393 342.297 422.766C342.209 424.983 340.421 425.862 338.623 426.077C334.733 426.556 330.813 426.731 326.894 426.985C318.406 427.532 309.722 429.447 301.49 428.245C290.654 426.663 283.267 434.281 273.836 435.97C286.518 435.316 299.201 434.574 311.883 434.027C324.958 433.46 338.053 432.943 351.138 432.728C354.262 432.679 359.547 431.654 359.714 435.756C359.872 439.594 354.508 439.32 351.335 439.779C338.515 441.625 325.538 441.41 312.63 441.957C295.959 442.67 279.131 444.75 262.607 442.866C244.149 440.766 227.105 447.143 209.324 448.745C173.792 451.948 139.104 449.106 105.34 437.269C103.032 436.459 100.821 435.375 98.5618 434.447C83.4137 428.196 75.7905 417.678 75.8887 400.606C76.1343 358.786 77.0578 316.957 76.0459 275.127C75.8396 266.503 75.3288 257.889 75.1618 249.266C75.1029 246.424 74.0615 245.271 71.2225 244.919C63.118 243.923 54.9447 243.249 47.0661 240.915C34.4328 237.184 27.1928 228.121 27.9983 217.066C28.4207 211.235 31.3678 206.655 35.3071 202.562C42.2132 195.384 51.192 191.771 60.3182 188.606C78.7278 182.199 97.7366 178.098 116.952 174.914C117.757 174.777 118.573 174.699 119.388 174.67C122.257 174.543 124.712 175.256 125.321 178.469C125.96 181.838 124.143 183.752 121.019 184.456C112.089 186.448 103.081 188.108 94.2099 190.315C79.3074 194.017 64.6406 198.539 50.2588 203.949C45.4746 205.746 41.162 208.393 37.8318 212.397C33.8238 217.222 33.9416 221.666 38.0774 226.383C42.1641 231.051 47.8029 232.282 53.4613 233.092C103.817 240.261 154.429 243.914 205.188 239.675C239.198 236.833 273.256 232.887 305.291 219.634C310.891 217.32 316.48 214.995 321.107 210.971C327.945 205.033 327.591 197.523 319.83 192.874C309.064 186.419 296.931 183.42 284.829 180.608C274.946 178.312 264.955 176.623 254.748 176.437C252.509 176.398 249.542 176.515 249.169 173.673C248.727 170.363 251.9 170.118 254.228 169.63C262.539 167.882 270.889 168.595 279.121 169.933C291.067 171.876 302.845 174.63 314.005 179.504C316.097 180.412 318.17 181.399 320.145 182.541C337.051 192.327 337.759 209.467 321.677 220.601C314.653 225.465 306.922 229.02 298.867 231.793C295.468 232.965 295.124 234.479 295.625 237.878C296.863 246.345 297.334 254.92 298.091 263.456C301.627 302.981 305.213 342.506 308.651 382.04C309.358 390.137 309.928 398.311 308.327 406.368C307.659 409.738 309.014 409.826 311.637 409.543C315.213 409.152 318.818 408.956 322.404 408.947C324.978 408.937 327.512 409.63 327.758 412.775C328.023 416.272 325.145 416.731 322.748 416.682C317.807 416.594 312.816 418.137 307.904 415.529C304.938 413.957 305.331 417.883 303.71 418.782L304.093 419.953ZM220.975 394.522C219.108 359.9 216.485 325.385 212.988 290.919C212.605 287.13 211.22 284.884 207.968 283.477C205.876 282.579 203.773 281.651 201.612 280.958C186.425 276.123 170.52 275.039 154.92 272.402C132.699 268.642 110.38 265.478 88.4336 260.272C82.6278 258.895 82.5983 258.768 83.1484 264.784C84.9756 284.874 85.7026 305.032 85.8499 325.19C86.0661 354.45 86.7636 383.74 84.4943 412.961C84.2389 416.203 85.3293 418.049 87.854 419.797C93.2472 423.528 98.886 426.692 105.144 428.802C136.462 439.369 168.772 441.352 201.475 439.799C207.182 439.525 212.88 438.9 218.578 438.422C220.081 438.295 221.112 438.285 221.083 435.961C220.876 422.151 220.984 408.331 220.984 394.512L220.975 394.522ZM289.554 255.936C289.23 255.868 288.896 255.79 288.571 255.721C287.894 259.852 286.97 263.964 286.587 268.115C284.111 295.48 286.066 322.729 288.856 349.948C290.33 364.324 292.953 378.573 292.147 393.154C291.685 401.505 292.059 409.914 292.059 419.221C296.195 416.75 298.729 415.1 299.574 410.92C301.391 401.954 300.438 393.057 299.751 384.199C297.413 354.04 294.652 323.92 292.177 293.781C291.145 281.182 290.408 268.554 289.544 255.936H289.554ZM163.457 257.489C187.594 258.339 212.359 255.135 237.095 251.219C253.884 248.553 270.25 243.953 286.97 241.023C289.74 240.534 289.387 238.962 289.21 237.165C288.964 234.538 287.294 235.085 285.664 235.622C265.083 242.439 243.726 245.271 222.35 248.191C191.572 252.401 160.716 251.951 129.831 250.242C114.82 249.412 99.8094 248.396 84.8774 246.521C83.5316 246.355 82.1661 245.906 82.0973 247.996C82.0482 249.549 82.117 250.916 84.3273 250.887C86.1152 250.867 87.9129 251.131 89.7008 251.307C113.926 253.778 138.073 257.049 163.467 257.489H163.457ZM219.521 293.029C219.766 296.008 219.865 297.863 220.071 299.719C221.859 315.541 223.686 331.352 225.474 347.174C228.46 373.651 231.427 400.137 234.433 426.614C234.571 427.806 234.335 429.661 236.025 429.681C237.783 429.7 238.196 428.069 238.274 426.468C238.53 421.272 239.04 416.086 238.628 410.871C236.791 387.705 235.16 364.519 233.107 341.373C232.007 328.93 230.808 316.429 226.525 304.534C225.13 300.657 223.607 296.779 219.531 293.029H219.521ZM257.98 320.004C256.517 328.735 257.813 337.378 258.079 346.022C258.108 346.979 258.373 348.112 259.611 348.082C260.849 348.063 261.733 347.233 261.959 345.983C263.541 336.87 261.723 328.296 257.98 320.004Z" fill="#292929"/>
<path d="M270.456 75.8843C269.631 88.9323 262.833 101.511 254.266 113.143C244.796 125.996 234.727 138.399 224.766 150.881C222.732 153.43 222.29 154.377 225.178 157.19C231.377 163.216 235.729 170.99 238.971 178.881C242.37 187.144 246.25 190.845 256.123 189.175C264.974 187.681 274.395 189.058 283.384 191.158C285.113 191.558 286.861 192.154 288.384 193.033C291.645 194.898 292.117 197.389 289.366 200.152C286.576 202.955 283.286 205.084 279.837 206.96C262.97 216.13 245.042 221.746 225.738 222.391C222.742 222.488 220.738 223.104 218.96 225.848C214.982 232.011 211.445 232.704 204.549 229.364C203.566 228.885 202.967 228.807 201.936 229.335C195.648 232.528 191.965 231.932 188.35 226.16C186.247 222.801 183.919 222.098 180.363 222.479C170.264 223.572 160.097 223.865 149.968 223.465C126.303 222.518 102.726 220.603 79.5523 215.398C78.4324 215.144 77.3027 214.919 76.2319 214.538C73.943 213.718 71.3004 213.152 71.1727 210.026C71.045 206.911 73.5304 205.866 75.8488 205.143C83.7961 202.672 91.7631 200.279 99.7891 198.092C108.964 195.592 118.434 194.713 127.855 193.677C130.812 193.355 131.962 192.271 132.276 189.204C132.836 183.706 134.476 178.364 136.687 173.285C138.111 170.013 137.679 168.06 134.879 165.433C116.303 147.951 100.516 128.389 91.1344 104.383C88.6981 98.1518 87.0084 91.6278 87.2344 84.889C87.8042 67.7391 103.984 58.6466 119.515 66.6551C126.519 70.2686 131.647 75.9527 136.284 82.1153C149.929 100.261 157.729 121.025 163.584 142.648C163.712 143.116 163.771 143.605 163.898 144.074C164.913 147.863 167.157 148.918 170.628 147.238C176.099 144.581 181.895 143.536 187.78 144.943C191.483 145.832 192.063 144.552 192.456 141.329C194.46 125.039 196.611 108.739 203.006 93.4151C208.92 79.244 217.388 66.8113 229.216 56.8007C234.501 52.3277 240.631 49.7884 247.635 49.8959C261.113 50.1009 270.417 60.0236 270.436 75.8843H270.456ZM248.176 212.878C243.853 209.577 241.889 205.426 240.15 201.315C232.654 183.569 220.915 168.167 212.084 151.144C210.021 147.17 209.687 144.171 210.247 140.46C210.924 135.967 211.72 131.475 212.801 127.06C216.308 112.665 220.247 98.4057 228.676 85.8852C230.876 82.6134 233.43 79.6053 237.144 77.9841C238.853 77.2419 240.955 77.1051 241.633 79.3905C242.183 81.2461 240.847 82.5939 239.059 82.8673C235.778 83.3752 234.462 85.7484 233.352 88.317C230.847 94.1378 228.155 99.9098 226.082 105.887C223.931 112.128 222.418 118.593 220.63 124.961C221.819 124.726 222.192 124.218 222.575 123.72C224.118 121.669 224.864 117.694 228.509 119.657C231.593 121.328 229.491 124.228 228.636 126.601C227.556 129.59 226.475 132.588 225.404 135.587C234.933 123.691 245.012 112.518 253.058 99.8512C258.648 91.0516 262.528 81.6856 261.968 70.9718C261.526 62.6313 256.87 58.3341 248.402 58.3048C240.867 58.2755 235.297 62.1625 230.601 67.3387C219.746 79.2928 211.18 92.6338 206.887 108.377C203.291 121.572 200.776 134.952 199.706 148.605C199.116 156.174 196.994 157.571 189.99 155.11C186.935 154.035 183.949 153.752 180.854 154.572C177.072 155.578 173.309 156.682 169.518 157.659C163.78 159.133 160.961 157.815 158.574 152.375C157.366 149.621 156.481 146.73 155.204 143.224C154.87 145.304 154.792 146.623 154.428 147.853C153.8 149.982 153.79 152.668 151.157 153.469C148.406 154.309 147.12 151.799 145.567 150.314C133.622 138.907 124.594 125.449 117.727 110.516C117.059 109.051 116.588 107.479 116.224 105.906C115.959 104.764 116.204 103.641 117.462 103.025C118.709 102.41 119.81 102.898 120.576 103.709C121.45 104.637 122.04 105.838 122.718 106.942C129.81 118.554 137.561 129.688 146.658 140.46C146.943 137.764 145.312 136.397 144.467 134.747C142.031 129.971 139.094 125.429 137.866 120.126C137.404 118.134 137.443 116.112 139.555 115.009C141.864 113.807 143.111 115.575 144.487 116.991C145.96 118.515 146.216 120.976 149.281 122.763C145.98 115.604 143.367 109.315 140.233 103.308C135.253 93.7569 129.781 84.4593 121.568 77.2126C115.173 71.5676 107.049 70.1319 101.715 73.2962C96.4785 76.4117 94.278 83.6584 96.1543 92.165C97.9913 100.476 101.125 108.338 105.615 115.565C116.853 133.653 129.987 150.187 146.373 164.007C148.465 165.775 150.224 167.552 148.77 170.628C142.522 183.911 140.636 198.297 137.954 212.497C137.325 215.808 137.915 216.726 141.343 216.677C155.077 216.501 168.761 214.851 182.514 215.681C184.666 215.808 185.56 214.656 186.64 213.015C190.206 207.604 194.627 206.061 200.492 208.083C201.857 208.552 202.702 208.62 204.018 207.858C210.954 203.873 216.819 205.846 220.345 213.249C220.827 214.275 220.846 215.535 222.418 215.466C230.847 215.105 239.334 215.32 248.186 212.868L248.176 212.878ZM213.812 216.697C213.783 213.308 210.973 210.769 209.215 212.595C205.443 216.511 201.778 216.56 197.407 213.991C195.884 213.103 194.254 213.64 193.045 215.095C191.523 216.921 191.876 218.748 193.143 220.437C194.165 221.805 194.312 223.973 196.454 224.344C196.788 224.402 197.377 223.934 197.584 223.563C200.629 218.211 203.9 220.369 206.975 223.387C209.49 225.858 211.042 225.477 212.221 222.273C212.889 220.447 213.852 218.718 213.812 216.707V216.697Z" fill="#292929"/>
<path d="M346.267 98.2774C348.84 98.2969 350.628 98.5801 351.316 100.66C352.033 102.838 351.08 104.42 349.263 105.631C345.176 108.376 340.638 110.241 336.227 112.38C322.709 118.924 308.858 124.813 295.665 132.011C293.563 133.153 291.028 134.843 289.142 132.001C287.059 128.856 289.898 127.118 291.991 125.799C308.2 115.662 324.861 106.354 342.651 99.1661C343.987 98.6289 345.481 98.4531 346.257 98.2676L346.267 98.2774Z" fill="#292929"/>
<path d="M317.701 3.78156C317.102 4.8168 316.561 6.20363 315.648 7.29747C310.657 13.2648 305.608 19.1832 300.529 25.0821C298.663 27.2503 296.325 28.5395 293.741 26.5178C291.118 24.4669 292.562 22.0936 294.065 20.1208C298.987 13.6652 304.37 7.60023 310.284 2.0236C311.699 0.695366 313.329 -0.525439 315.51 0.431671C316.817 1.00789 317.465 2.0529 317.701 3.78156Z" fill="#292929"/>
<path d="M105.715 364.942C105.715 376.496 105.745 388.05 105.686 399.603C105.676 401.537 105.332 403.481 104.988 405.395C104.635 407.358 104.114 409.448 101.491 409.292C99.0744 409.155 98.2394 407.182 97.9152 405.239C97.4142 402.201 96.982 399.105 96.9624 396.029C96.7954 370.48 96.6971 344.921 96.6873 319.372C96.6873 316.657 95.6067 312.379 99.5263 312.106C103.701 311.813 103.358 316.188 103.623 319.128C105.047 334.363 105.538 349.648 105.725 364.952L105.715 364.942Z" fill="#292929"/>
<path d="M121.5 400.275C121.363 404.982 121.471 409.7 120.302 414.3C119.722 416.566 118.956 418.997 116.028 418.704C113.513 418.46 112.678 416.214 112.57 414.036C112.158 405.764 112.394 397.501 113.602 389.298C113.867 387.501 114.673 385.752 116.873 385.606C119.29 385.45 120.577 387.11 120.822 389.132C121.264 392.823 121.294 396.554 121.5 400.275Z" fill="#292929"/>
<path d="M138.19 415.999C137.512 419.095 139.359 423.89 134.526 423.822C129.84 423.763 131.235 419.046 131.166 416.096C131.088 413.059 130.184 408.342 134.634 408.371C139.192 408.401 137.463 413.264 138.2 415.999H138.19Z" fill="#292929"/>
<path d="M162.523 186.587C162.848 184.868 163.054 183.443 163.388 182.036C163.742 180.493 164.606 179.39 166.345 179.302C168.241 179.204 169.606 180.181 170.058 181.86C171.07 185.62 171.758 189.459 171.247 193.375C170.991 195.319 169.94 196.764 167.848 196.93C165.755 197.106 164.37 195.768 163.869 193.971C163.182 191.5 162.926 188.902 162.523 186.587Z" fill="#292929"/>
<path d="M208.557 187.29C208.361 189.233 207.86 190.942 205.856 191.577C203.675 192.28 202.516 190.776 201.631 189.204C200.03 186.372 199.097 183.285 198.655 180.063C198.419 178.353 198.586 176.722 200.335 175.931C202.241 175.072 203.881 175.814 204.991 177.445C207.044 180.434 207.958 183.852 208.557 187.299V187.29Z" fill="#292929"/>
</svg>
