<svg width="157" height="106" viewBox="0 0 157 106" fill="none" xmlns="http://www.w3.org/2000/svg">
<g clip-path="url(#clip0_127_2263)">
<path d="M132.096 5.79365C122.51 5.64353 113.761 6.264 105.011 6.82443C86.287 8.02034 67.6229 10.237 48.8194 10.202C40.5325 10.187 32.2456 10.227 23.9637 10.2971C20.2956 10.3271 20.3205 10.4172 20.1214 14.0999C19.5441 24.728 18.3595 35.291 17.0157 45.8591C15.0547 61.2908 11.8644 76.5123 9.73915 91.904C9.27628 95.2716 9.15683 98.6992 8.49487 102.052C8.13154 103.908 7.52933 106.01 5.36429 106C3.32865 105.995 2.29341 104.303 1.59661 102.267C-0.215054 96.9529 1.31292 91.844 2.26354 86.7351C4.85164 72.7845 7.20581 58.8039 9.0772 44.7282C10.2468 35.9115 10.9984 27.0598 11.9142 18.2231C12.1779 15.6661 11.9739 13.0542 12.2675 10.5022C12.7752 6.05884 13.5217 5.81867 17.9514 5.40335C23.1475 4.91798 28.3286 4.67279 33.5297 4.74284C48.7646 4.948 63.9647 4.21744 79.1548 3.16164C89.0294 2.47112 98.8791 1.45034 108.759 0.824869C121.998 -0.0107657 135.247 -0.0157649 148.506 0.524645C150.84 0.619718 152.831 1.9157 155.3 1.68552C156.773 1.55042 156.847 3.72207 156.907 5.11813C157.171 11.4479 156.867 17.7627 156.116 24.0525C154.812 34.9408 152.836 45.734 151.233 56.5772C149.74 66.6849 148.197 76.7776 146.435 86.8352C145.734 90.8332 145.201 94.9013 143.648 98.6842C142.334 101.887 139.537 102.167 137.213 99.6799C136.387 98.7943 136.64 98.0787 136.805 97.2081C137.805 91.899 139.801 86.8502 140.642 81.4811C142.06 72.3942 143.877 63.3774 145.33 54.2955C147.321 41.831 149.168 29.3365 150.989 16.842C151.407 13.9949 151.472 11.0927 151.716 8.22048C151.831 6.88447 151.393 6.28902 149.909 6.29903C143.698 6.34906 137.511 5.40335 132.096 5.79365Z" fill="#292929"/>
<path d="M117.591 30.3583C114.003 32.48 110.638 34.6766 107.09 36.503C104.253 37.9641 101.237 39.105 98.7133 41.1165C92.5019 46.0603 86.4895 51.2342 80.6564 56.6233C79.5614 57.6341 78.4117 58.5748 77.2769 59.5455C74.878 61.5971 69.6968 60.0259 68.6516 57.1837C66.9893 52.6753 65.6554 48.0318 63.4704 43.7285C63.2913 43.3782 63.122 43.018 62.8334 42.4325C59.4987 46.6057 56.3134 50.6037 53.1181 54.5867C48.559 60.2761 44.0249 65.9804 39.4061 71.6197C37.8632 73.5061 38.1021 75.8379 37.5497 77.9545C36.5642 81.7174 35.8624 85.5553 35.0014 89.3532C34.8571 89.9936 34.5734 90.6141 34.2797 91.2046C33.8218 92.1253 33.2644 92.9659 32.0151 92.7407C30.8654 92.5306 30.1836 91.9902 29.8451 90.7142C29.004 87.5268 29.6261 84.3944 30.1487 81.322C31.7712 71.7748 33.125 62.1825 35.1358 52.6953C35.8823 49.1676 36.3751 45.5349 36.8877 41.9371C37.1764 39.9006 38.0822 38.6196 40.083 38.5796C42.0987 38.5396 43.0743 40.0357 42.7159 42.7277C41.9843 48.1469 41.0735 53.546 40.2373 58.9501C40.1626 59.4304 39.9735 59.9158 40.4712 60.6514C41.4368 59.5005 42.4073 58.4447 43.2534 57.3038C48.2405 50.5787 53.8447 44.369 59.215 37.9691C62.256 34.3464 66.2775 35.132 68.2186 39.5003C70.0004 43.5083 71.5085 47.6515 72.9667 51.7946C74.0269 54.8019 73.9721 54.8219 76.2467 52.7053C80.7708 48.4871 85.6385 44.6842 90.6504 41.0715C90.7848 40.9764 90.9391 40.8963 91.0486 40.7713C94.8859 36.513 99.7386 33.886 104.93 31.6443C107.368 30.5885 109.479 28.7671 111.848 27.216C110.828 26.2953 109.882 26.6605 109.036 26.5154C107.861 26.3153 106.254 26.5655 106.169 24.8191C106.079 22.9978 107.319 22.1571 109.036 22.067C111.171 21.952 113.311 21.952 115.436 21.7918C117.158 21.6667 118.881 21.7118 120.613 21.3315C123.415 20.721 124.918 22.2622 124.365 25.1594C123.778 28.2567 122.907 31.2991 122.25 34.3864C121.951 35.7775 120.782 36.0477 119.836 36.1627C118.741 36.2928 118.109 35.2971 117.95 34.2263C117.776 33.0154 117.721 31.7844 117.591 30.3483V30.3583Z" fill="#292929"/>
<path d="M126.142 43.5275C125.4 48.4662 124.599 53.8854 123.778 59.2995C122.349 68.7316 120.906 78.1638 119.487 87.596C118.85 91.8342 117.497 93.0601 113.286 92.885C111.31 92.7999 109.344 92.4647 107.373 92.2545C105.208 92.0293 104.347 90.5832 104.476 88.6618C104.82 83.628 105.581 78.6291 106.786 73.7354C109.274 63.5977 110.872 53.2599 113.58 43.1672C114.978 37.9583 118.776 36.0768 123.808 38.2485C125.485 38.974 126.216 40.4652 126.147 43.5275H126.142Z" fill="#292929"/>
<path d="M97.7652 92.6286C95.64 92.6135 93.669 91.833 91.8524 90.9323C90.5185 90.2718 89.8914 88.7256 90.3443 87.0693C93.3953 75.9859 93.9876 64.4622 96.3318 53.2587C96.7101 51.4573 96.725 49.0605 98.9199 48.5251C101.682 47.8545 104.554 48.3099 107.087 49.6459C108.018 50.1363 108.546 51.3172 108.361 52.6832C106.769 64.3671 105.52 76.096 103.215 87.6698C102.513 91.1925 100.846 92.6586 97.7652 92.6286Z" fill="#292929"/>
<path d="M79.0843 92.9209C78.512 92.8609 77.6011 92.8159 76.7102 92.6607C74.5104 92.2804 73.5349 90.8394 73.9032 88.7278C75.1574 81.4522 76.2822 74.1517 77.9396 66.9512C78.497 64.5194 80.0051 63.5136 82.2149 63.1283C82.6131 63.0583 83.0212 63.0332 83.4293 62.9932C88.8046 62.4478 90.4072 64.009 89.6905 69.328C88.8892 75.3126 88.0431 81.2921 87.0577 87.2466C86.3111 91.745 85.3804 92.5156 79.0893 92.9259L79.0843 92.9209Z" fill="#292929"/>
<path d="M70.8122 73.9949C70.3941 79.8994 69.0155 85.6437 67.8807 91.4231C67.5522 93.0894 66.0342 93.3546 64.7252 93.88C62.5602 94.7506 60.4499 94.1602 58.4043 93.6048C56.6922 93.1394 56.2243 91.6383 56.5628 89.997C57.8668 83.5922 59.2156 77.1973 60.5693 70.7974C60.649 70.4122 60.8431 69.9568 61.1367 69.7316C63.3814 68.0003 65.8401 68.6408 68.1943 69.3313C70.0059 69.8617 71.2203 71.0727 70.8222 73.2443C70.7774 73.4845 70.8172 73.7447 70.8172 73.9949H70.8122Z" fill="#292929"/>
<path d="M41.8723 96.9279C38.2888 96.8829 37.6418 96.2274 38.0947 92.6997C38.7567 87.5958 39.9064 82.587 41.4194 77.6733C42.1063 75.4416 44.4804 74.3057 47.2277 74.8161C49.4575 75.2314 50.3932 76.7126 50.2538 78.9192C49.9452 83.888 49.0394 88.7817 48.1136 93.6504C47.6557 96.0723 45.431 96.9629 41.8674 96.9229L41.8723 96.9279Z" fill="#292929"/>
</g>
<defs>
<clipPath id="clip0_127_2263">
<rect width="156.248" height="105.847" fill="white" transform="translate(0.75293 0.152344)"/>
</clipPath>
</defs>
</svg>
