<svg width="347" height="503" viewBox="0 0 347 503" fill="none" xmlns="http://www.w3.org/2000/svg">
<g clip-path="url(#clip0_96_608)">
<path d="M280.553 43.5769C280.499 48.4566 280.596 53.2072 283.692 57.4419C287.939 63.2459 292.475 65.245 299.474 63.6221C301.699 63.1062 304.183 62.3001 304.753 65.1483C305.344 68.104 302.624 68.9531 300.259 69.2648C295.647 69.8667 291.003 70.2321 286.38 70.7588C284.025 71.0275 282.66 71.8873 282.617 74.8108C281.854 126.015 273.576 176.315 263.803 226.412C254.074 276.262 242.818 325.789 232.046 375.423C230.035 384.677 228.541 394.049 226.875 403.379C226.541 405.249 225.972 407.012 228.993 407.828C238.883 410.483 243.592 416.481 244.248 426.476C245.753 449.413 236.195 461.837 213.522 465.997C168.842 474.198 124.206 482.678 79.2246 489.148C69.1297 490.599 58.9596 491.706 48.7464 491.696C34.5878 491.685 24.6326 483.538 21.4504 469.802C16.1611 447.037 28.4599 431.173 51.8534 430.614C53.466 430.571 55.0893 430.453 56.6912 430.614C59.7551 430.905 60.8195 429.368 60.9485 426.562C62.5181 390.804 74.8169 357.237 82.4821 322.736C88.8788 293.931 94.6626 264.998 101.199 236.225C107.94 206.56 113.53 176.681 117.83 146.576C119.852 132.41 121.26 118.158 121.83 103.831C121.98 100.058 120.636 99.0154 117.218 99.8215C113.175 100.767 109.069 101.004 104.93 100.778C94.4046 100.219 85.7933 93.6951 83.5464 83.549C79.7299 66.3628 82.0628 50.7459 96.8343 38.9553C101.156 35.5052 106.058 33.3233 111.552 33.0546C144.428 31.4424 176.357 23.9725 208.426 17.4054C234.529 12.0636 260.546 6.2597 286.595 0.681461C291.529 -0.371849 296.55 -0.973739 301.538 -0.0923991C311.526 1.67028 317.073 8.30183 319.621 17.6096C322.975 29.8624 320.814 41.0834 312.02 50.4987C307.591 55.2386 301.914 57.3989 295.432 55.2063C290.314 53.4652 287.82 49.2842 287.315 44.1573C286.627 37.1819 287.315 30.4321 293.572 25.7782C296.399 23.6823 299.248 24.0155 301.828 26.4768C305.473 29.9269 306.86 38.0632 304.559 42.5451C303.667 44.2756 302.474 45.6083 300.366 44.9957C298.442 44.4368 298.367 42.8031 298.56 41.0512C298.818 38.7511 298.937 36.4295 299.023 34.1079C299.066 32.9579 298.507 31.9046 297.399 31.5606C296.163 31.1737 295.324 32.098 294.894 33.0976C293.077 37.3323 292.303 41.739 294.185 46.1027C295.496 49.1444 298.109 50.0365 301.323 49.3164C305.634 48.3383 308.849 45.7588 310.752 41.9432C315.396 32.6139 316.148 23.0482 311.096 13.6114C306.193 4.46478 296.571 3.71241 290.132 11.8487C282.757 21.1565 280.8 32.1303 280.531 43.5877L280.553 43.5769ZM131.817 461.354C131.86 461.139 131.903 460.913 131.957 460.698C131.097 460.698 130.204 460.558 129.366 460.72C106.005 465.202 82.2348 467.136 58.9273 471.962C53.337 473.123 47.7681 474.563 41.995 474.681C40.1136 474.724 38.2 474.638 37.8667 472.295C37.5227 469.866 39.5438 469.469 41.2532 468.931C41.9305 468.716 42.6185 468.48 43.3173 468.362C77.6981 462.568 112.1 456.926 146.449 450.95C161.768 448.284 177.239 446.382 192.343 442.577C194.15 442.126 196.773 442.254 196.783 439.6C196.816 431.754 198.74 424.327 202.159 416.448C198.944 417.244 196.708 417.781 194.483 418.362C189.462 419.651 184.463 421.049 179.421 422.22C177.432 422.682 175.153 422.489 174.476 420.178C173.712 417.555 175.981 416.986 177.905 416.373C189.86 412.558 202.008 409.473 214.479 408.183C218.521 407.764 220.005 406.485 220.639 402.648C222.338 392.416 224.155 382.205 226.369 372.07C243.151 295.221 261.513 218.684 271.63 140.535C273.93 122.779 275.156 104.927 276.392 87.0636C276.693 82.7428 275.382 81.9797 271.221 82.9578C257.299 86.2252 243.269 89.009 229.304 92.1152C212.2 95.92 195.182 100.144 177.722 102.1C163.145 103.734 148.567 105.41 133.989 107.098C130.989 107.442 128.323 107.496 127.947 112.01C124.646 152.014 117.271 191.373 108.821 230.561C98.8232 276.874 89.169 323.274 77.4615 369.189C72.7742 387.601 68.517 406.001 67.0764 425.004C66.7861 428.873 67.3774 430.722 71.6884 430.27C74.6879 429.948 77.7518 430.141 80.7835 430.152C82.7724 430.152 85.0408 430.055 85.2128 432.807C85.4063 435.849 83.0949 436.096 80.8265 436.15C80.1062 436.171 79.3859 436.042 78.6764 436.107C67.4526 437.149 56.0892 436.182 44.9299 438.031C37.5012 439.267 30.911 442.663 28.3739 450.058C24.9014 460.182 25.7507 470.221 32.5559 479.067C35.1253 482.409 38.028 484.656 42.5325 481.614C44.3924 480.367 46.8436 479.873 49.1012 479.378C76.666 473.338 104.242 467.351 131.806 461.365L131.817 461.354ZM284.584 8.23734C276.683 9.64534 270.006 10.7416 263.362 12.0314C213.393 21.7369 164.306 36.3113 113.089 39.1487C102.747 39.7184 96.0065 45.9523 91.5557 54.7442C87.2339 63.2889 87.6962 72.3817 89.3625 81.5176C89.9538 84.7635 92.0825 84.785 94.5659 84.4518C101.124 83.5597 107.671 82.6139 114.24 81.8293C135.741 79.2497 156.931 74.9183 178.099 70.4256C199.471 65.8899 221.478 65.6105 242.807 60.8276C252.397 58.678 262.158 57.3345 271.641 54.6582C274.715 53.7876 274.489 51.8529 274.188 49.7463C273.737 46.6294 271.63 48.1986 270.082 48.5425C265.373 49.5959 260.707 50.8534 255.977 51.7885C250.892 52.7988 245.774 53.5941 240.646 54.3465C239.066 54.583 237.217 54.497 236.733 52.4441C236.217 50.23 237.83 49.1552 239.539 48.4781C240.679 48.0374 241.979 48.0159 243.205 47.8117C252.375 46.2532 261.449 44.2541 270.383 41.6315C272.63 40.9759 274.113 40.1268 274.382 37.4183C275.371 27.3581 278.016 17.7924 284.595 8.24809L284.584 8.23734ZM227.971 413.869C229.165 416.341 230.132 418.028 230.82 419.823C234.228 428.701 234.153 437.375 228.552 445.382C224.23 451.562 217.382 452.831 212.329 448.725C206.728 444.178 206.083 435.129 210.985 429.991C212.533 428.368 214.372 427.745 216.242 429.099C218.21 430.528 218.113 432.388 216.479 434.15C216.113 434.548 215.672 434.871 215.339 435.29C212.78 438.417 213.372 441.395 216.328 443.684C219.65 446.253 222.112 444.254 223.725 441.319C227.326 434.785 227.541 427.841 224.477 421.178C221.069 413.761 213.028 413.181 208.265 419.791C203.879 425.885 203.062 432.968 203.245 440.245C203.46 448.854 207.459 455.055 214.049 456.979C220.51 458.86 228.917 455.561 233.196 449.122C238.926 440.481 239.399 431.034 236.679 421.328C235.604 417.502 233.046 414.847 227.982 413.847L227.971 413.869Z" fill="#292929"/>
<path d="M343.057 151.155C342.541 150.973 341.487 150.726 340.562 150.231C334.134 146.738 327.705 143.245 321.351 139.644C319.685 138.698 317.588 137.452 318.749 135.087C319.857 132.819 322.276 133.281 323.953 134.163C331.07 137.871 338.068 141.794 345.089 145.685C346.411 146.416 347.325 147.587 346.916 149.199C346.508 150.854 345.175 151.317 343.067 151.166L343.057 151.155Z" fill="#292929"/>
<path d="M308.846 183.281C310.061 184.012 311.232 184.485 312.125 185.291C317.306 189.934 321.811 195.212 326.251 200.553C327.38 201.908 328.552 203.724 326.821 205.304C325.036 206.938 323.08 206.078 321.65 204.541C316.801 199.339 312.028 194.072 307.287 188.774C306.298 187.666 305.782 186.237 306.706 184.861C307.147 184.206 308.039 183.851 308.835 183.292L308.846 183.281Z" fill="#292929"/>
<path d="M166.894 131.701C164.453 131.723 162.335 131.916 162.077 129.487C161.776 126.682 164.088 125.929 166.206 125.489C180.354 122.522 194.501 119.599 208.66 116.708C220.948 114.203 233.408 113.3 245.89 112.494C248.341 112.333 251.018 112.451 251.168 115.504C251.297 118.244 248.717 118.728 246.513 118.793C220.443 119.524 195.351 126.295 169.936 131.088C168.711 131.314 167.496 131.594 166.894 131.712V131.701Z" fill="#292929"/>
<path d="M188.366 388.621C189.086 388.589 189.796 388.535 190.516 388.514C192.623 388.449 194.73 388.75 194.988 391.276C195.279 394.178 192.957 394.748 190.742 394.995C184.872 395.64 178.97 395.962 173.132 396.811C152.781 399.735 132.892 405.42 112.337 407.205C111.8 407.248 111.273 407.355 110.746 407.43C108.65 407.721 106.446 407.592 105.951 405.195C105.446 402.755 107.413 401.809 109.52 401.433C112.509 400.906 115.498 400.24 118.508 399.96C134.419 398.499 149.76 393.984 165.467 391.437C173.057 390.201 180.712 389.395 188.334 388.385L188.366 388.621Z" fill="#292929"/>
<path d="M166.369 181.915C164.585 181.796 162.703 181.624 162.478 179.249C162.187 176.207 164.531 175.917 166.66 175.498C186.441 171.672 206.018 166.749 226.025 164.041C231.153 163.353 236.281 162.643 241.42 162.106C243.592 161.88 246.086 162.052 246.516 164.782C246.989 167.856 244.333 168.05 242.237 168.275C218.951 170.79 196.117 175.691 173.325 180.883C171.067 181.399 168.735 181.571 166.369 181.904V181.915Z" fill="#292929"/>
<path d="M153.379 256.474C151.261 256.399 148.681 256.818 148.434 253.765C148.197 250.853 150.702 250.369 152.798 250.047C169.043 247.478 185.276 244.769 201.574 242.577C209.712 241.48 217.991 241.308 226.204 240.857C228.311 240.739 230.924 240.76 231.192 243.662C231.461 246.607 228.945 247.145 226.795 247.177C202.703 247.639 179.181 252.454 155.529 256.313C154.819 256.431 154.099 256.431 153.39 256.485L153.379 256.474Z" fill="#292929"/>
<path d="M196.602 327.121C199.096 326.928 201.59 326.649 204.084 326.584C206.267 326.53 208.89 326.681 209.116 329.379C209.374 332.442 206.761 332.947 204.299 333.044C195.194 333.409 186.098 333.925 177.111 335.548C163.415 338.02 149.729 340.514 136.032 342.996C135.506 343.093 134.99 343.254 134.452 343.319C131.904 343.63 128.84 343.996 128.324 340.782C127.84 337.783 130.915 337.268 133.13 336.881C154.223 333.237 175.079 328.057 196.58 327.121H196.602Z" fill="#292929"/>
<path d="M187.009 354.174C188.912 354.078 189.277 354.024 189.632 354.056C191.868 354.217 194.728 353.659 194.835 357.087C194.921 360 192.384 360.408 190.288 360.537C181.537 361.075 172.958 362.859 164.282 363.891C151.349 365.417 138.384 366.685 125.418 368.05C124.537 368.147 123.634 368.147 122.741 368.179C120.645 368.254 118.624 368.018 118.377 365.395C118.14 362.837 119.925 362.021 122.075 361.773C127.042 361.214 131.998 360.57 136.986 360.204C154.262 358.914 171.356 356.002 187.009 354.174Z" fill="#292929"/>
<path d="M226.344 212.257C227.419 212.257 228.494 212.257 229.569 212.257C231.558 212.268 233.235 212.891 233.289 215.17C233.332 217.19 231.719 217.835 230.031 218.061C222.764 219.028 215.485 219.888 208.229 220.888C193.533 222.898 178.836 224.972 164.14 226.993C162.194 227.261 160.227 227.39 158.27 227.508C156.195 227.627 154.12 227.455 153.873 224.789C153.637 222.102 155.808 221.543 157.754 221.275C165.72 220.146 173.708 219.179 181.674 218.104C196.553 216.094 211.432 214.063 226.311 212.031C226.322 212.106 226.344 212.192 226.354 212.278L226.344 212.257Z" fill="#292929"/>
<path d="M128.17 443.233C131.116 443.233 133.61 443.19 136.115 443.244C137.921 443.276 139.437 444.147 139.512 445.985C139.588 447.79 138.169 448.801 136.373 449.037C134.599 449.273 132.836 449.51 131.052 449.639C109.69 451.262 88.2854 452.487 67.4828 458.28C65.7412 458.764 63.204 459.764 62.4407 457.12C61.7634 454.766 63.9888 453.798 65.8487 453.046C76.3844 448.758 87.5221 447.145 98.7028 445.899C108.647 444.792 118.624 444.071 128.17 443.222V443.233Z" fill="#292929"/>
<path d="M145.508 294.803C143.497 294.502 141.186 294.598 141.025 291.901C140.842 288.967 143.422 288.601 145.4 288.064C160.602 283.969 176.147 281.658 191.639 279.035C196.563 278.197 201.54 277.552 206.518 277.187C208.883 277.015 212.098 276.939 212.194 280.465C212.291 283.797 209.324 283.442 207.034 283.625C187.747 285.183 168.923 289.386 150.12 293.674C148.55 294.029 147.002 294.437 145.497 294.803H145.508Z" fill="#292929"/>
<path d="M178.492 148.005C175.718 147.274 170.568 149.929 170.364 145.028C170.181 140.718 175.395 141.922 178.137 141.814C192.295 141.255 205.884 136.935 219.935 135.86C221.172 135.763 222.44 135.602 223.666 135.709C225.483 135.871 227.493 136.258 227.504 138.579C227.504 140.482 225.891 141.234 224.204 141.438C208.991 143.276 194.091 147.328 178.492 148.016V148.005Z" fill="#292929"/>
<path d="M102.744 342.041C107.926 338.784 109.872 333.872 112.753 329.777C114.086 327.886 115 325.714 116.236 323.748C117.182 322.254 118.59 321.469 120.343 322.35C122.138 323.253 122.299 325.048 121.633 326.531C118.096 334.388 114.118 342.073 107.033 347.35C101.776 351.273 96.3795 348.651 96.1323 342.137C95.9065 336.194 98.2287 330.97 102.131 326.51C103.669 324.747 105.582 324.457 107.27 326.134C109.173 328.004 108.958 330.153 106.722 331.561C102.97 333.926 102.808 337.451 102.744 342.051V342.041Z" fill="#292929"/>
<path d="M88.9725 405.056C94.3263 399.897 97.5945 394.932 100.777 389.902C102.11 387.795 103.282 384.775 106.335 386.591C109.259 388.322 107.56 390.923 106.206 393.072C102.69 398.661 99.3039 404.347 94.4231 408.915C92.1009 411.097 89.4992 412.634 86.2095 411.172C82.8123 409.657 82.608 406.593 82.8338 403.444C83.2101 398.102 85.1452 393.352 88.951 389.558C91.0473 387.462 93.735 386.537 95.8099 389.515C97.874 392.481 95.8099 393.878 93.219 395.093C89.5745 396.791 89.5745 400.274 88.9832 405.067L88.9725 405.056Z" fill="#292929"/>
<path d="M109.043 288.729C109.538 283.14 111.139 278.11 115.612 274.455C117.343 273.037 119.579 271.876 121.234 274.165C122.675 276.164 121.976 278.357 119.675 279.571C118.375 280.259 117.031 280.893 116.611 282.355C115.848 285.031 113.709 288.632 116.321 290.309C119.181 292.157 120.557 288.148 122.041 286.235C124.771 282.71 127.147 278.905 129.684 275.218C130.727 273.714 132.168 273.004 133.845 273.896C135.5 274.789 135.898 276.379 134.963 278.034C131.501 284.096 128.072 290.212 122.954 295.07C120.385 297.51 117.181 298.972 113.634 297.198C110.215 295.489 109.269 292.2 109.054 288.718L109.043 288.729Z" fill="#292929"/>
<path d="M129.504 226.554C134.556 223.061 136.416 218.138 139.168 213.86C140.674 211.506 141.63 206.831 145.329 208.669C149.855 210.926 145.694 214.226 144.555 216.795C142.372 221.706 139.469 226.242 135.599 230.047C133.17 232.422 130.256 234.013 126.88 232.53C123.247 230.939 122.505 227.521 122.795 223.942C123.204 218.794 125.365 214.312 128.504 210.292C129.891 208.508 131.718 206.842 133.868 208.755C135.61 210.292 134.825 212.356 133.46 214.032C130.665 217.429 128.557 221.051 129.525 226.565L129.504 226.554Z" fill="#292929"/>
<path d="M139.804 177.519C144.33 173.338 146.448 169.05 148.727 164.88C149.856 162.816 151.135 160.236 153.941 161.838C156.758 163.45 155.113 165.879 153.974 167.889C151.146 172.865 148.136 177.723 144.319 182.023C142.567 184 140.449 185.333 137.697 184.516C134.644 183.603 133.773 180.959 133.58 178.218C133.182 172.661 134.386 167.524 138.536 163.493C140.309 161.773 142.696 160.462 144.631 162.655C146.609 164.901 145.212 166.879 142.782 168.179C139.439 169.974 139.869 173.134 139.793 177.519H139.804Z" fill="#292929"/>
<path d="M147.637 130.282C151.153 126.058 152.486 122.393 154.012 118.814C154.722 117.17 155.593 115.224 157.84 115.987C160.173 116.783 160.334 118.717 159.474 120.835C157.248 126.305 154.776 131.647 151.207 136.376C149.884 138.128 148.186 139.601 145.734 138.848C143.455 138.15 142.294 136.312 142.015 134.044C141.348 128.648 141.552 123.339 144.165 118.384C145.036 116.729 146.24 115.181 148.358 116.181C150.379 117.137 150.325 119.072 149.551 120.813C148.39 123.436 147.584 126.08 147.637 130.261V130.282Z" fill="#292929"/>
<path d="M107.558 76.6278C105.828 76.3914 103.538 76.7353 103.387 74.2955C103.215 71.4258 105.774 70.9744 107.838 70.6412C118.771 68.9 129.737 67.3738 140.66 65.6003C157.743 62.8166 174.804 59.8609 191.887 57.0449C194.166 56.6687 196.51 56.6365 198.832 56.5505C199.885 56.5075 201.079 56.6042 201.24 58.0552C201.38 59.2375 200.831 60.2263 199.767 60.6562C198.122 61.3119 196.424 61.9675 194.693 62.2684C174.825 65.7401 155.205 70.5874 135.209 73.2959C126.007 74.5427 116.772 75.5315 107.558 76.6278Z" fill="#292929"/>
</g>
<defs>
<clipPath id="clip0_96_608">
<rect width="347" height="503" fill="white"/>
</clipPath>
</defs>
</svg>
