<svg width="128" height="30" viewBox="0 0 128 30" fill="none" xmlns="http://www.w3.org/2000/svg">
<path d="M9.33227 24.6064C6.88863 24.6064 4.84063 23.798 3.23482 22.2043C1.629 20.5875 0.814453 18.6011 0.814453 16.2221C0.814453 13.8431 1.629 11.8567 3.23482 10.263C4.84063 8.64618 6.88863 7.83777 9.33227 7.83777C12.2879 7.83777 14.941 9.316 16.3374 11.695L14.0101 13.0347C13.149 11.441 11.3803 10.4247 9.33227 10.4247C7.58682 10.4247 6.19045 10.979 5.09663 12.0646C4.02609 13.1502 3.49082 14.536 3.49082 16.2221C3.49082 17.9082 4.02609 19.2941 5.09663 20.3796C6.19045 21.4652 7.58682 22.0195 9.33227 22.0195C11.3803 22.0195 13.1723 21.0033 14.0101 19.4095L16.3374 20.7261C15.6625 21.9041 14.685 22.851 13.4283 23.5671C12.1948 24.26 10.8217 24.6064 9.33227 24.6064Z" fill="white"/>
<path d="M27.5208 14.767V8.13803H30.1972V24.3062H27.5208V17.3077H20.539V24.3062H17.8626V8.13803H20.539V14.767H27.5208Z" fill="white"/>
<path d="M35.4317 17.4001V21.7655H42.6463V24.3062H32.7554V8.13803H42.5299V10.6787H35.4317V14.8825H41.9481V17.4001H35.4317Z" fill="white"/>
<path d="M51.965 24.6064C49.5214 24.6064 47.4734 23.798 45.8675 22.2043C44.2617 20.5875 43.4472 18.6011 43.4472 16.2221C43.4472 13.8431 44.2617 11.8567 45.8675 10.263C47.4734 8.64618 49.5214 7.83777 51.965 7.83777C54.9206 7.83777 57.5737 9.316 58.9701 11.695L56.6428 13.0347C55.7817 11.441 54.013 10.4247 51.965 10.4247C50.2195 10.4247 48.8232 10.979 47.7294 12.0646C46.6588 13.1502 46.1235 14.536 46.1235 16.2221C46.1235 17.9082 46.6588 19.2941 47.7294 20.3796C48.8232 21.4652 50.2195 22.0195 51.965 22.0195C54.013 22.0195 55.805 21.0033 56.6428 19.4095L58.9701 20.7261C58.2952 21.9041 57.3177 22.851 56.061 23.5671C54.8275 24.26 53.4544 24.6064 51.965 24.6064Z" fill="white"/>
<path d="M65.9644 16.0142L72.7834 24.3062H69.595L63.1717 16.6148V24.3062H60.4954V8.13803H63.1717V15.3906L69.3623 8.13803H72.5506L65.9644 16.0142Z" fill="white"/>
<path d="M86.5501 8.13803H89.4126V24.3062H86.7363V12.7806L81.7792 20.9109H81.4534L76.4963 12.7575V24.3062H73.8199V8.13803H76.7057L81.6163 16.2221L86.5501 8.13803Z" fill="white"/>
<path d="M105.461 24.3062H102.575L101.435 21.0494H94.4994L93.359 24.3062H90.4499L96.3612 8.13803H99.5728L105.461 24.3062ZM97.967 11.2562L95.3837 18.5549H100.55L97.967 11.2562Z" fill="white"/>
<path d="M104.075 8.13803H115.944V10.6787H111.36V24.3062H108.683V10.6787H104.075V8.13803Z" fill="white"/>
<path d="M119.902 17.4001V21.7655H127.116V24.3062H117.225V8.13803H127V10.6787H119.902V14.8825H126.418V17.4001H119.902Z" fill="white"/>
<rect width="4.11645" height="4.11645" rx="2.05822" transform="matrix(0.708845 0.705365 -0.708845 0.705365 110.023 0.5)" fill="white"/>
</svg>
