<svg width="1317" height="520" viewBox="0 0 1317 520" fill="none" xmlns="http://www.w3.org/2000/svg">
<g clip-path="url(#clip0_96_642)">
<path d="M528.435 337.43C547.16 337.43 565.885 337.4 584.6 337.45C588.983 337.46 593.376 337.601 597.728 338.024C602.647 338.497 605.269 341.306 605.228 346.381C605.177 352.583 605.198 358.795 605.167 364.998C605.147 369.559 602.688 371.593 598.234 371.864C594.236 372.116 588.952 370.384 586.624 373.133C584.651 375.469 585.886 380.483 585.693 384.319C585.653 385.155 585.592 385.991 585.501 386.826C584.62 395.193 582.91 396.885 574.64 397.64C567.697 398.274 567.737 398.274 567.464 405.302C567.312 409.158 567.191 413.025 566.725 416.851C566.047 422.368 563.375 424.754 557.737 425.187C555.389 425.369 552.99 425.61 550.662 425.348C545.642 424.785 544.427 427.02 544.528 431.692C544.883 447.137 544.7 450.389 527.018 450.067C524.174 450.016 523.131 451.104 523.243 453.913C523.394 457.769 523.273 461.625 523.202 465.482C523.121 470.093 521.006 472.51 516.087 472.671C512.109 472.801 507.22 471.07 504.356 473.698C501.42 476.396 503.313 481.37 502.797 485.317C501.542 495.013 499.426 496.946 489.537 496.976C489.031 496.976 488.525 496.976 488.019 496.976C478.626 496.986 477.219 498.929 479.426 508.172C480.043 510.74 481.744 510.116 483.292 510.105C505.57 509.904 527.716 507.79 549.852 505.434C555.875 504.789 561.968 504.417 568.021 504.497C624.358 505.252 680.685 502.836 737.002 503.198C773.622 503.43 810.141 500.621 846.731 501.024C873.716 501.316 900.7 501.698 927.664 502.494C952.158 503.219 976.531 500.762 1000.99 500.591C1045.85 500.268 1090.7 500.52 1135.52 502.806C1140.91 503.078 1146.32 502.826 1151.71 503.037C1154.88 503.158 1158.07 503.903 1157.84 508.062C1157.62 511.948 1154.75 512.804 1151.39 512.834C1137.4 512.965 1123.42 512.31 1109.42 511.797C1063.39 510.095 1017.33 509.602 971.319 511.837C923.079 514.173 874.839 510.075 826.65 511.918C756.861 514.596 687.042 513.589 617.253 515.542C603.264 515.935 589.266 516.046 575.268 515.15C558.851 514.093 542.605 516.67 526.34 518.12C496.855 520.748 467.371 519.922 437.866 519.711C411.55 519.52 385.244 516.469 358.978 518.039C319.605 520.385 280.414 517.445 241.202 515.603C198.185 513.589 155.209 515.029 112.222 514.989C97.2215 514.979 82.4843 518.865 67.4536 519.268C59.3664 519.489 51.2691 519.61 43.1819 519.701C41.6839 519.721 40.1555 519.469 38.6777 519.167C35.8639 518.603 34.0015 516.982 34.3355 513.952C34.6797 510.931 36.866 509.824 39.7203 509.783C48.1516 509.673 56.5931 510.085 64.9941 509.028C110.795 503.259 156.858 503.641 202.861 503.984C234.026 504.215 265.18 506.551 296.325 508.182C300.465 508.404 301.72 507.488 301.234 503.39C300.869 500.258 301.102 497.026 301.396 493.865C302.195 485.226 305.444 482.437 314.179 482.598C320.064 482.712 323.512 479.856 324.524 474.03C324.757 472.711 324.848 471.362 325.121 470.053C326.629 462.884 327.419 462.219 334.716 461.555C337.399 461.313 340.152 460.457 342.743 460.8C348.239 461.525 349.393 458.585 350 454.084C352.136 438.377 354.079 436.827 370.203 438.025C374.191 438.327 375.739 437.38 375.132 433.202C374.758 430.584 375.112 427.845 375.274 425.167C375.77 416.981 378.118 414.726 386.529 414.223C392.69 413.854 396.172 410.702 396.975 404.768C399.009 389.676 400.872 387.722 416.125 388.004C421.479 388.105 422.815 386.172 422.795 381.51C422.765 377.332 423.149 373.143 423.473 368.965C423.777 365.078 425.801 363.095 429.901 362.632C434.101 362.158 438.271 361.594 442.492 361.796C445.316 361.927 446.358 360.95 446.227 358.05C446.024 353.701 446.389 349.321 446.247 344.971C446.095 340.148 448.302 338.135 453.079 337.631C469.75 335.859 486.43 336.715 503.121 336.937C511.542 337.047 519.973 336.957 528.405 336.957C528.405 337.118 528.405 337.279 528.405 337.44L528.435 337.43ZM439.233 397.851C431.125 397.851 424.384 397.871 417.643 397.851C406.469 397.801 406.347 398.113 405.71 409.279C405.467 413.548 406.762 414.344 410.902 414.615C430.65 415.924 450.417 412.833 470.043 414.454C491.44 416.216 512.868 413.961 534.204 416.146C540.065 416.75 545.986 416.78 551.877 417.092C555.885 417.304 558.355 416.166 557.859 411.454C557.616 409.158 557.96 406.742 558.375 404.446C559.164 400.086 558.081 398.254 553.051 398.143C532.666 397.71 512.261 398.818 491.865 397.096C473.879 395.586 455.954 401.375 439.233 397.841V397.851ZM414.202 471.946C414.202 471.442 414.202 470.929 414.202 470.425C390.78 470.425 367.349 470.456 343.927 470.415C331.842 470.395 335.293 468.442 333.046 480.534C332.51 483.404 333.765 484.39 336.619 484.39C361.731 484.37 386.721 487.25 411.884 486.706C435.629 486.193 459.415 486.384 483.141 488.045C493.849 488.79 493.596 488.861 493.728 478.309C493.778 473.828 492.422 472.781 488.009 472.711C463.403 472.328 438.787 473.184 414.202 471.956V471.946ZM559.377 389.011C561.229 389.011 563.092 389.011 564.944 389.011C575.936 389.051 575.632 389.041 576.088 378.056C576.28 373.294 574.651 372.67 570.45 372.68C546.34 372.71 522.22 373.334 498.131 371.884C477.908 370.666 457.695 370.817 437.482 371.744C435.639 371.824 432.674 370.898 432.471 373.687C432.148 378.268 430.457 382.92 432.35 387.491C432.522 387.914 433.878 387.954 434.688 387.984C446.298 388.306 457.927 389.897 469.517 387.843C478.565 386.232 487.695 386.242 496.744 387.088C517.595 389.041 538.557 386.887 559.387 389.011H559.377ZM415.71 423.919C407.532 423.919 400.123 424.13 392.714 423.858C384.151 423.546 384.161 423.355 384.424 432.064C384.444 432.568 384.505 433.071 384.485 433.574C384.333 437.149 385.78 438.488 389.596 438.367C398.685 438.085 407.805 437.944 416.874 438.407C427.613 438.961 438.271 440.924 449.101 440.23C455.984 439.787 462.887 439.465 469.79 439.354C488.161 439.052 506.481 440.32 524.811 441.206C535.135 441.7 534.791 441.438 535.672 431.38C536.107 426.396 534.437 425.57 530.014 425.58C509.973 425.61 489.932 425.862 469.922 424.211C451.601 422.69 433.281 427.11 415.71 423.929V423.919ZM548.547 362.581C556.796 362.098 570.045 364.323 583.355 363.719C596.392 363.125 596.291 363.044 596.908 350.247C597.06 347.015 596.048 346.27 592.95 346.431C583.871 346.904 574.772 347.005 565.683 347.368C532.332 348.707 499.001 346.471 465.66 346.673C453.97 346.743 455.822 344.478 455.407 357.245C455.296 360.87 456.743 362.098 460.185 361.635C466.713 360.759 473.302 360.547 479.851 361.061C501.026 362.722 522.241 362.954 548.537 362.581H548.547ZM426.844 462.219C460.053 462.934 484.335 463.397 508.607 464.032C512.918 464.143 514.427 462.854 514.234 458.343C513.89 450.359 514.194 450.369 506.339 450.258C502.969 450.208 499.598 450.067 496.228 449.865C482.918 449.05 469.567 448.707 456.278 449.634C445.306 450.399 434.384 450.862 423.483 449.332C412.582 447.801 401.702 447.469 390.709 448.275C383.837 448.778 376.863 448.597 369.99 448.023C359.838 447.177 360.01 446.935 358.614 456.863C358.077 460.699 359.464 461.374 362.925 461.354C387.217 461.192 411.499 461.203 426.844 462.209V462.219ZM436.196 509.914C445.974 509.914 455.761 509.793 465.539 509.985C468.586 510.045 469.598 509.219 469.719 506.128C470.104 496.694 470.235 496.523 461.004 496.734C417.157 497.741 373.361 495.869 329.554 494.57C327.378 494.509 325.202 494.137 323.036 493.815C309.898 491.902 309.989 491.891 310.576 505.071C310.698 507.89 311.568 508.887 314.402 508.827C324.008 508.605 333.603 508.988 343.219 508.132C356.316 506.964 369.474 506.3 382.632 507.125C400.477 508.233 418.321 509.159 436.206 509.924L436.196 509.914Z" fill="#292929"/>
<path d="M744.609 19.257C743.799 40.5922 738.272 60.8803 730.995 80.816C718.404 115.291 698.13 145.235 675.791 173.98C671.054 180.082 666.358 186.224 661.58 192.305C660.376 193.835 659.414 195.084 660.902 197.108C668.17 207.025 666.317 217.164 660.73 226.86C654.009 238.54 643.604 247.038 633.624 255.807C631.438 257.73 628.695 257.972 626.084 256.452C623.29 254.831 622.359 252.223 622.713 249.142C623.088 245.93 624.606 243.091 625.851 240.161C627.44 236.435 628.655 232.609 628.503 228.491C628.351 224.242 626.863 223.296 623.159 225.561C619.434 227.837 615.952 230.505 612.43 233.103C609.98 234.905 607.743 235.217 605.112 233.304C590.709 222.823 575.678 213.187 561.902 201.84C558.188 198.779 556.295 195.517 557.226 190.573C557.975 186.636 557.924 182.559 558.38 178.561C558.754 175.249 557.105 174.725 554.493 175.611C549.959 177.142 546.234 180.072 542.448 182.871C539.857 184.784 537.175 186.505 533.805 186.626C528.794 186.818 525.727 183.555 527.438 178.984C532.63 165.039 539.361 151.95 551.001 142.033C556.062 137.723 562.054 136.082 568.461 137.582C571.872 138.388 573.269 137.25 574.828 134.632C587.045 114.133 600.01 94.1266 615.739 76.0637C640.487 47.6402 668.585 23.4153 703.646 8.18157C713.586 3.86217 724.031 1.38531 734.811 0.0864667C738.758 -0.386755 740.813 1.08325 742.179 4.47635C744.092 9.23877 744.811 14.1623 744.619 19.257H744.609ZM567.5 189.506C566.467 193.11 567.651 195.396 570.374 197.178C572.196 198.366 573.765 199.937 575.536 201.226C580.577 204.901 583.472 203.783 584.787 197.792C585.577 194.198 586.387 190.603 587.429 187.079C591.073 174.826 596.832 163.418 601.974 151.779C613.837 124.896 628.867 99.9865 648.635 78.0371C658.321 67.294 668.281 56.8126 678.423 46.4924C679.364 45.5359 681.297 44.821 680.559 42.9382C679.202 39.5249 671.449 37.7529 668.392 40.0082C633.22 65.9347 606.792 99.3019 584.899 136.596C575.182 153.148 567.884 170.426 567.489 189.516L567.5 189.506ZM655.578 108.847C644.606 108.847 635.456 117.747 635.436 128.44C635.416 136.847 641.934 143.342 650.457 143.402C660.335 143.473 669.313 134.169 669.486 123.708C669.627 114.536 664.313 108.847 655.578 108.847ZM595.365 218.685C596.235 218.07 597.45 217.436 598.35 216.51C600.213 214.577 601.964 212.533 603.654 210.448C611.164 201.206 619.242 192.375 625.062 181.884C626.205 179.83 626.539 177.897 624.434 176.034C622.511 174.323 620.638 174.534 619.019 176.004C606.893 186.979 599.555 201.004 593.755 215.946C593.36 216.963 593.219 218.342 595.354 218.685H595.365ZM721.976 12.793C709.628 14.5348 688.626 24.4121 681.955 31.3795C685.447 33.7657 688.919 36.1117 692.36 38.5181C693.697 39.4545 694.972 40.1895 696.389 38.7597C704.739 30.2921 713.08 21.8244 721.976 12.7829V12.793Z" fill="#292929"/>
<path d="M896.734 410.686C913.02 408.642 917.352 411.411 916.168 423.885C924.721 419.053 933.527 415.7 943.264 414.733C962.778 412.8 977.09 420.966 984.5 439.139C985.876 442.512 987.111 443.157 990.633 442.16C1003.61 438.485 1012.68 444.375 1014.38 457.625C1014.84 461.29 1016.21 461.683 1019.46 461.542C1033.81 460.938 1042.81 469.385 1042.38 482.726C1042.34 483.562 1042.4 484.428 1042.18 485.223C1041.45 487.921 1040.42 490.59 1036.94 490.257C1033.51 489.935 1032.3 487.791 1032.24 484.337C1032.07 474.44 1027.55 470.805 1017.75 472.285C1004.63 474.279 1004.69 474.279 1004.36 461.119C1004.27 457.665 1004.57 453.638 1000.64 451.876C996.828 450.164 993.042 451.211 989.601 453.386C988.609 454.011 987.728 454.826 986.736 455.44C982.556 457.998 979.378 456.89 977.678 452.228C977.05 450.497 976.675 448.684 976.119 446.922C970.643 429.584 957.788 421.972 939.833 425.658C928.253 428.034 918.152 432.937 911.451 443.217C909.569 446.107 906.957 447.345 903.668 445.664C900.267 443.922 900.348 441.153 901.502 437.911C903.182 433.189 905.156 428.557 906.107 423.573C906.704 420.442 905.631 419.455 902.727 419.979C899.083 420.643 895.479 421.539 891.826 422.073C888.809 422.516 885.631 422.818 883.576 419.777C881.613 416.878 882.574 413.998 884.001 411.219C884.538 410.172 885.084 409.105 885.813 408.199C890.247 402.701 892.888 396.841 890.368 389.622C887.402 381.144 883.07 373.774 874.669 369.525C858.576 361.4 841.521 366.314 830.62 382.262C828.919 384.749 827.644 387.548 825.802 389.924C823.018 393.519 818.484 392.965 817.188 388.676C815.822 384.155 812.644 381.306 809.476 378.345C805.599 374.721 802.633 375.113 799.475 379.493C798.504 380.842 797.795 382.393 796.996 383.863C795.599 386.441 794.07 389.058 790.609 388.625C787.178 388.203 786.287 385.383 785.497 382.514C784.516 378.97 783.554 375.385 782.157 371.992C774.029 352.248 759.414 344.052 736.195 351.694C712.469 359.497 699.828 378.295 694.2 401.936C692.884 407.464 692.489 413.203 691.174 418.73C689.584 425.426 685.991 427.49 679.615 424.983C675.414 423.332 674.108 424.691 672.732 428.376C669.685 436.532 667.256 437.649 658.956 435.555C654.472 434.427 650.373 435.092 647.549 438.847C642.964 444.959 638.166 451.03 639.371 459.558C639.867 463.052 636.122 465.287 632.276 464.19C622.134 461.3 617.64 462.951 611.728 471.711C608.854 475.96 607.234 480.712 606.303 485.666C605.635 489.17 604.056 491.435 600.251 490.7C596.495 489.975 595.686 487.126 596.232 483.763C597.943 473.131 602.376 463.968 610.919 457.051C615.382 453.437 620.403 451.111 626.253 451.735C628.976 452.027 629.765 450.899 630.423 448.694C631.921 443.69 634.006 438.938 637.225 434.749C643.146 427.037 650.535 422.909 660.495 425.869C663.045 426.624 663.764 425.637 664.341 423.553C664.786 421.942 665.424 420.382 666.122 418.861C668.511 413.686 671.831 411.692 677.479 413.092C681.487 414.089 682.58 412.961 682.945 409.145C684.24 395.402 688.512 382.494 696.234 371.066C707.662 354.171 722.642 341.958 743.766 339.33C764.718 336.732 779.667 344.716 789.506 363.293C791.739 367.508 795.029 368.76 799.374 367.049C807.107 363.998 814.354 365.458 818.656 372.053C821.763 376.815 823.049 374.922 825.609 371.841C838.859 355.882 857.554 351.231 876.562 358.923C890.742 364.672 901.775 381.386 901.816 396.64C901.826 401.976 898.708 406.004 896.734 410.686Z" fill="#292929"/>
<path d="M42.0884 471.217C43.3333 466.455 44.2949 461.874 46.886 457.836C51.8153 450.134 59.2142 446.63 68.0909 448.925C72.6558 450.114 72.9898 448.583 72.7773 444.848C71.7145 426.271 73.9008 408.238 83.7289 391.978C100.865 363.615 126.736 350.969 159.479 351.865C172.982 352.237 182.152 360.534 189.288 371.075C191.575 374.448 193.417 375.173 197.365 373.804C209.045 369.736 216.545 372.475 222.871 382.342C223.651 383.55 224.066 385.252 226.222 384.477C229.076 383.46 232.315 383.842 233.783 379.805C237.244 370.3 244.086 363.353 252.73 358.288C263.257 352.116 277.002 353.294 285.322 360.816C287.448 362.739 289.32 364.863 290.444 367.582C291.466 370.059 291.284 372.213 289.138 373.905C286.77 375.777 284.745 374.63 282.852 372.938C269.35 360.876 256.445 362.507 246.03 377.842C242.973 382.332 240.888 387.165 234.724 388.927C231.1 389.964 229.673 394.525 227.477 397.677C225.908 399.922 224.329 402.278 221.08 401.654C217.679 400.999 216.819 398.351 216.373 395.31C216.06 393.176 215.381 391.072 214.653 389.018C212.092 381.849 209.258 380.56 202.061 383.107C200.158 383.782 198.215 384.336 196.343 385.091C191.93 386.863 188.438 385.524 185.583 382.05C184.308 380.49 183.174 378.818 182 377.177C171.312 362.245 157.516 357.362 139.58 362.145C103.416 371.8 82.8483 398.371 82.737 435.655C82.7167 442.361 82.8483 449.076 82.7775 455.782C82.7269 461.149 80.1053 462.971 74.9129 461.431C73.9514 461.149 73.0202 460.736 72.089 460.333C61.4005 455.782 56.5624 458.098 53.6169 469.344C52.9388 471.932 52.5744 474.6 52.2404 477.258C51.6635 481.759 48.9913 483.31 44.801 482.474C41.1673 481.749 37.736 480.48 34.487 478.547C27.2601 474.278 22.5535 475.204 17.2903 481.638C13.2517 486.562 10.9136 492.26 9.97231 498.503C9.47635 501.775 8.06944 504.131 4.49649 503.638C0.8122 503.124 -0.453009 500.386 0.113804 496.952C1.60169 488.001 4.86086 479.846 11.3893 473.261C19.5272 465.055 27.6549 463.787 37.979 469.063C39.2948 469.737 40.6005 470.442 42.0884 471.217Z" fill="#292929"/>
<path d="M831.804 439.633C831.571 442.905 830.336 446.137 827.826 448.805C826.308 450.427 824.405 451.021 822.351 449.913C820.387 448.846 819.456 447.164 820.073 444.879C820.417 443.61 821.348 442.1 820.184 441.113C818.859 439.995 817.33 441.254 816.004 441.768C812.198 443.217 809.769 446.188 807.775 449.581C806.308 452.088 804.435 454.091 801.287 452.45C798.16 450.829 798.109 448.181 799.273 445.13C803.15 434.961 815.397 428.477 825.468 431.316C829.567 432.474 831.662 435.082 831.794 439.653L831.804 439.633Z" fill="#292929"/>
<path d="M117.838 477.468C117.697 470.531 123.861 463.745 132.059 461.661C134.984 460.916 138.547 461.288 137.535 456.264C137.14 454.331 139.478 454.401 140.976 454.502C144.61 454.764 150.177 460.342 150.44 463.936C150.592 466.101 149.327 467.491 147.495 468.125C145.46 468.84 143.274 469.182 141.138 469.575C134.893 470.733 128.841 471.941 126.836 479.402C126.249 481.566 124.276 483.016 121.695 482.352C119.104 481.677 117.778 479.905 117.848 477.458L117.838 477.468Z" fill="#292929"/>
<path d="M539.095 242.174C534.976 242.144 533.427 238.66 535.816 234.914C537.982 231.511 541.008 228.803 544.055 226.165C548.994 221.896 553.924 217.617 558.964 213.458C560.169 212.461 561.687 211.143 563.448 212.472C565.027 213.66 565.118 215.583 564.349 217.043C558.792 227.443 550.452 235.287 540.786 241.852C540.28 242.194 539.48 242.103 539.105 242.174H539.095Z" fill="#292929"/>
<path d="M529.415 302.292C526.247 302.121 524.152 298.869 525.781 296.03C531.378 286.263 538.12 277.322 546.106 269.328C547.077 268.351 548.322 267.586 549.699 268.542C550.903 269.378 551.338 270.617 550.802 272.076C549.992 274.261 549.415 276.567 548.332 278.611C544.476 285.87 539.759 292.576 534.607 298.99C533.221 300.721 531.652 302.202 529.415 302.292Z" fill="#292929"/>
<path d="M587.537 237.642C583.924 247.288 579.926 257.588 571.646 265.492C570.594 266.499 569.187 267.475 567.557 266.499C565.816 265.452 565.665 263.679 566.262 262.058C570.007 251.94 575.199 242.596 581.849 234.088C582.689 233.011 583.792 231.611 585.645 232.457C586.809 232.991 587.679 234.984 587.537 237.642Z" fill="#292929"/>
<path d="M550.937 252.372C551.119 250.258 552.202 247.841 553.619 245.535C557.577 239.051 562.749 233.554 567.931 228.067C569.409 226.496 571.271 224.643 573.579 226.284C575.664 227.775 574.551 229.929 573.66 231.742C569.348 240.491 564.338 248.767 556.98 255.382C555.603 256.621 553.953 257.799 552.01 256.571C550.775 255.785 550.552 254.406 550.927 252.382L550.937 252.372Z" fill="#292929"/>
<path d="M856.04 446.688C855.949 449.235 855.089 452.266 853.368 455.025C852.083 457.089 850.149 458.066 847.771 457.381C845.22 456.646 844.218 454.37 844.997 452.206C847.366 445.611 844.633 441.704 838.854 438.976C837.487 438.331 836.222 437.284 836.515 435.492C836.829 433.569 838.428 432.854 840.048 432.31C847.386 429.874 855.919 437.193 856.04 446.688Z" fill="#292929"/>
<path d="M544.445 254.166C544.141 260.368 532.582 273.749 526.287 275.128C524.394 275.541 522.522 275.44 521.256 273.719C520.022 272.037 520.072 270.124 521.378 268.594C526.722 262.321 532.582 256.552 539.141 251.528C540.356 250.601 541.925 250.239 543.423 251.064C544.688 251.759 544.516 253.008 544.455 254.176L544.445 254.166Z" fill="#292929"/>
<path d="M599.165 243.21C597.93 246.28 596.624 249.895 595.035 253.379C592.879 258.081 590.622 262.753 588.172 267.304C587.231 269.056 585.672 270.616 583.223 269.378C581.158 268.331 580.014 266.408 580.875 264.414C584.579 255.815 588.921 247.529 594.994 240.3C595.733 239.424 596.897 238.719 598.132 239.464C599.316 240.179 599.114 241.468 599.165 243.21Z" fill="#292929"/>
<path d="M569.216 274.414C568.315 280.133 566.412 285.792 562.889 290.786C561.574 292.659 559.661 293.786 557.221 292.578C554.752 291.35 553.861 289.296 554.742 286.748C556.735 280.989 560.096 276.035 564.226 271.585C565.126 270.608 566.361 269.662 567.768 270.538C568.993 271.303 569.145 272.743 569.216 274.404V274.414Z" fill="#292929"/>
<path d="M859.985 146.557C859.074 150.846 857.221 154.733 853.891 157.763C852.272 159.243 850.339 159.606 848.375 158.196C846.462 156.827 846.027 155.075 846.837 152.91C848.476 148.55 851.472 145.198 854.944 142.217C855.703 141.563 856.695 140.979 857.697 141.653C859.377 142.781 859.782 144.583 859.985 146.547V146.557Z" fill="#292929"/>
<path d="M885.446 149.71C885.365 151.824 884.737 153.606 882.693 154.683C880.8 155.69 879.039 155.187 877.49 154.099C873.421 151.24 871.802 147.202 872.379 142.339C872.672 139.802 874.454 139.047 876.751 139.46C879.909 140.014 885.395 146.568 885.446 149.71Z" fill="#292929"/>
<path d="M173.698 463.627C173.769 467.201 170.469 469.356 167.119 467.755C164.062 466.295 161.461 464.11 159.457 461.402C157.352 458.542 158.354 455.723 161.613 454.767C166.198 453.407 173.617 458.844 173.708 463.637L173.698 463.627Z" fill="#292929"/>
<path d="M304.124 158.491C297.677 158.29 292.798 155.541 293.142 152.017C293.557 147.778 297.1 148.1 300.045 148.12C305.248 148.161 310.116 151.463 309.964 154.776C309.792 158.592 306.897 158.531 304.134 158.491H304.124Z" fill="#292929"/>
<path d="M311.955 131.143C313.16 131.092 314.577 131.948 315.396 133.549C316.621 135.925 317.674 138.382 318.818 140.798C319.668 142.601 318.99 144.061 317.735 145.309C316.368 146.658 314.698 146.638 313.048 145.923C309.85 144.534 306.631 137.778 307.4 134.334C307.876 132.23 309.131 131.183 311.955 131.143Z" fill="#292929"/>
<path d="M328.742 166.263C328.864 164.008 330.038 162.215 333.034 162.306C336.131 162.407 340.908 168.528 340.929 172.385C340.939 175.234 339.512 176.785 336.597 176.724C333.408 176.654 328.742 170.653 328.752 166.263H328.742Z" fill="#292929"/>
<path d="M889.056 119.412C889.005 122.342 881.515 129.873 878.529 130.014C876.556 130.105 875.867 128.967 875.766 127.255C875.543 123.389 879.845 116.915 883.438 115.677C886.283 114.7 889.106 116.583 889.056 119.412Z" fill="#292929"/>
<path d="M847.206 124.899C851.619 124.899 855.263 127.647 855.01 130.95C854.777 133.96 852.844 135.471 849.909 135.149C846.255 134.746 842.034 134.363 841.558 129.681C841.204 126.188 843.957 124.909 847.206 124.889V124.899Z" fill="#292929"/>
<path d="M867.124 119.917C866.769 123.411 865.018 125.797 861.729 125.576C857.994 125.324 857.103 122.162 857.134 118.94C857.154 115.89 857.953 112.929 861.668 112.939C866.294 112.95 866.142 117.068 867.124 119.927V119.917Z" fill="#292929"/>
<path d="M872.205 155.77C872.114 159.515 871.406 162.415 867.57 162.103C864.219 161.831 863.258 159.385 864.027 156.253C864.067 156.092 864.057 155.921 864.098 155.76C864.999 152.739 864.331 147.624 868.339 147.816C872.721 148.027 870.728 153.504 872.205 155.77Z" fill="#292929"/>
<path d="M311.342 178.608C310.937 183.089 307.465 187.076 304.105 186.854C301.676 186.693 300.471 185.384 300.704 182.937C301.018 179.565 306.312 174.047 308.832 174.49C311.18 174.903 311.565 176.594 311.342 178.608Z" fill="#292929"/>
<path d="M341.939 148.258C345.026 148.409 347.354 149.567 347.566 152.789C347.728 155.276 346.19 157.118 343.639 156.867C340.431 156.555 337.84 154.752 337.728 151.248C337.657 148.701 339.914 148.298 341.939 148.248V148.258Z" fill="#292929"/>
<path d="M325.473 176.6C325.098 178.432 324.825 180.607 322.446 180.406C319.845 180.194 319.005 177.919 319.066 175.694C319.116 173.73 319.713 171.374 322.335 171.626C325.139 171.898 324.825 174.667 325.462 176.59L325.473 176.6Z" fill="#292929"/>
</g>
<defs>
<clipPath id="clip0_96_642">
<rect width="1317" height="520" fill="white"/>
</clipPath>
</defs>
</svg>
