<svg width="534" height="450" viewBox="0 0 534 450" fill="none" xmlns="http://www.w3.org/2000/svg">
<g clip-path="url(#clip0_96_351)">
<path d="M297.915 358.232C308.362 362.927 318.866 364.085 328.982 366.723C340.687 369.772 352.204 373.367 361.537 381.765C370.023 389.401 374.434 398.784 374.729 410.195C374.916 417.357 374.564 424.576 376.884 431.536C377.279 432.729 377.186 434.002 375.921 434.692C374.621 435.404 373.4 434.98 372.257 434.139C370.03 432.492 367.055 432.715 364.749 433.305C360.007 434.513 355.035 434.563 350.473 436.921C348.849 437.763 346.542 436.238 344.847 435.102C343.072 433.916 342.282 433.844 341.319 436.181C339.221 441.271 334.465 443.249 329.054 441.811C328.594 441.688 328.113 441.645 327.639 441.595C321.704 440.969 320.54 439.833 320.526 433.822C320.511 427.596 320.555 421.355 320.935 415.142C321.654 403.408 316.926 394.255 308.268 386.763C296.176 376.301 282.079 370.779 266.237 369.506C265.065 369.413 263.88 369.492 262.033 369.492C263.923 371.469 265.935 371.807 267.71 372.44C276.26 375.503 284.86 378.443 292.814 382.945C310.129 392.752 317.523 408.844 313.765 428.351C312.996 432.341 312.5 436.382 311.846 440.387C311.408 443.062 310.359 444.6 307.636 442.343C306.257 441.199 305.581 440.998 304.626 443.062C302.405 447.836 300.667 448.174 296.406 444.931C293.654 442.832 291.104 440.459 288.546 438.115C287.712 437.353 287.245 436.44 286.06 437.734C284.314 439.639 281.914 439.905 279.471 439.977C277.201 440.042 274.945 440.157 272.681 440.423C270.152 440.718 268.442 441.235 268.126 444.227C267.947 445.902 266.402 446.772 264.584 446.47C263.413 446.276 262.206 446.067 261.114 445.614C256.343 443.659 251.4 444.176 246.428 444.176C239.595 444.176 237.928 442.364 238.244 435.49C238.366 432.844 237.389 431.529 235.176 430.601C231.095 428.897 227.036 427.143 222.998 425.338C221.934 424.863 220.943 424.784 219.887 425.187C218.637 425.661 217.099 425.489 216.603 424.518C215.439 422.217 213.78 423.195 212.084 423.181C210.13 423.159 209.598 423.885 209.655 425.705C209.742 428.458 209.433 431.191 208.772 433.894C208.276 435.908 206.99 436.476 205.086 436.511C203.096 436.547 202.492 435.598 202.126 433.765C201.443 430.292 201.702 426.833 201.881 423.382C202.765 405.802 203.656 388.222 204.705 370.649C204.892 367.557 204.281 366.306 200.911 366.723C198.203 367.061 195.408 366.788 192.663 366.637C190.896 366.536 190.17 366.982 190.077 368.952C189.092 389.279 186.685 409.527 186.434 429.904C186.405 432.514 185.83 435.131 185.334 437.712C185.011 439.416 184.285 441.027 182.073 440.797C179.953 440.574 178.825 439.122 178.717 437.18C178.516 433.715 178.401 430.22 178.645 426.769C178.861 423.735 178.013 422.404 174.809 421.843C164.692 420.075 154.497 418.507 144.675 415.394C119.09 407.291 102.5 390.782 97.3768 363.847C97.0319 362.021 96.2847 361.554 94.5675 361.489C81.3113 360.978 68.0623 360.382 54.5619 359.792C56.2791 364.732 57.1988 369.844 58.219 375.416C62.1923 372.921 66.1727 370.843 70.5842 369.736C74.0115 368.873 77.3812 368.55 80.8443 369.42C82.0442 369.722 83.4165 369.837 83.553 371.268C83.6823 372.562 82.7052 373.489 81.4981 373.928C78.9187 374.863 76.3537 375.898 73.7025 376.56C69.4203 377.624 65.174 379.047 60.6906 378.925C58.8657 378.875 58.3555 379.558 58.6142 381.219C58.7794 382.283 58.8297 383.362 58.9591 384.433C59.1746 386.259 58.916 388.524 62.0701 387.388C62.5515 387.215 63.3922 387.812 63.9741 388.201C71.8847 393.457 89.2938 399.583 98.6916 400.323C98.0809 398.504 96.723 397.332 95.6668 395.973C90.0194 388.711 87.2533 380.493 87.3035 371.304C87.3035 370.822 87.2533 370.333 87.3538 369.866C87.8065 367.651 88.0651 364.775 90.7667 364.645C93.6766 364.502 93.4323 367.557 93.7628 369.52C96.6942 387.029 105.201 400.517 121.482 408.513C122.459 408.995 124.227 409.383 123.738 410.814C123.257 412.216 121.554 411.59 120.555 411.26C107.112 406.881 92.6491 407.326 79.3139 402.401C72.244 399.791 65.3249 396.987 59.4476 391.192C59.6704 395.11 59.8859 398.411 60.0224 401.718C60.0655 402.84 60.4679 403.242 61.6247 403.588C81.4119 409.519 101.566 413.287 122.244 414.15C126.289 414.323 130.327 415.034 134.336 415.681C135.593 415.883 137.619 415.753 137.519 417.788C137.447 419.377 135.902 420.075 134.508 420.492C133.488 420.794 132.396 420.83 131.304 420.995C136.218 428.3 135.73 436.202 134.156 444.241C133.948 445.291 133.366 446.053 132.331 446.211C130.952 446.42 130.442 445.269 130.111 444.284C129.651 442.932 129.206 441.509 129.177 440.107C129.062 433.93 127.69 427.725 129.493 421.232C117.667 420.887 105.877 420.183 94.2514 418.09C82.7555 416.019 71.159 414.136 60.5254 408.189C59.8212 409.39 60.0871 410.706 60.0799 411.928C60.0368 417.918 60.1158 423.914 60.0296 429.904C60.0009 432.046 59.7638 434.211 59.3614 436.31C58.9519 438.46 58.8441 441.408 55.8336 441.279C52.7872 441.149 52.4567 438.201 52.1837 435.864C51.3359 428.581 51.9969 421.261 51.767 413.956C51.2065 396.476 50.6174 378.997 50.1575 361.518C50.0929 358.951 48.6272 359.008 46.8884 358.915C41.471 358.627 41.4207 358.627 42.872 363.632C46.8237 377.307 46.4789 391.343 46.3926 405.356C46.3495 412.187 46.2561 419.011 46.1699 425.841C46.1627 426.675 46.1484 427.524 46.0047 428.343C45.7173 430.04 45.2934 431.852 43.1882 431.96C40.9249 432.075 40.1705 430.321 39.8616 428.444C38.5826 420.729 38.9778 412.913 38.7479 405.148C38.3815 392.809 37.7061 380.507 36.4847 368.226C36.2332 365.738 36.0967 363.136 36.5709 360.72C36.9804 358.62 36.2476 358.189 34.5735 357.987C28.8758 357.304 23.1782 356.614 17.4949 355.881C14.9299 355.55 12.6523 354.536 10.9351 352.523C10.037 351.473 9.43346 350.308 10.3388 348.949C11.1363 347.748 12.3433 347.705 13.5504 348.015C31.3403 352.667 49.5828 352.271 67.7318 352.933C90.5799 353.767 113.435 354.184 136.29 354.723C153.606 355.133 170.85 357.527 188.173 358.44C199.453 359.037 210.668 358.519 221.884 357.693C243.927 356.075 265.741 352.307 287.892 351.3C307.456 350.409 326.87 347.296 346.284 344.434C373.385 340.436 400.257 335.273 427.114 329.989C447.059 326.063 467.191 323.352 487.273 320.26C493.891 319.239 500.608 319.872 507.24 319.117C510.437 318.758 513.577 317.945 516.76 317.391C518.061 317.169 519.361 317.19 520.662 317.593C522.393 318.125 523.686 319.081 524.089 320.9C524.534 322.914 523.198 324.042 521.732 324.934C518.24 327.048 514.188 327.077 510.337 327.767C502.548 329.162 494.638 329.306 486.763 329.759C478.019 330.262 469.462 331.995 460.804 333.037C428.731 336.884 397.44 345.196 365.453 349.546C348.418 351.861 331.547 355.37 314.483 357.606C309.245 358.289 303.979 357.498 297.951 358.246L297.915 358.232Z" fill="#292929"/>
<path d="M342.369 17.2293C349.073 17.445 355.812 23.226 356.646 29.5677C356.833 30.977 357.005 31.6601 354.598 31.9908C350.424 32.5588 348.261 30.222 345.581 27.9859C343.964 30.2436 344.446 31.696 346.371 33.5007C351.782 38.577 358.047 41.9852 364.952 44.5089C371.562 46.9248 376.914 57.5016 375.348 64.5049C374.644 67.6542 372.833 68.6464 369.55 66.8273C369.665 69.423 369.837 71.6447 369.844 73.8665C369.852 78.0081 367.581 80.4456 364.154 82.6458C359.038 85.9173 354.311 86.2768 349.209 82.9693C347.492 81.8548 347.65 83.6524 347.334 84.5152C344.166 93.3016 342.053 102.397 339.51 111.363C337.599 118.086 335.177 124.543 331.204 130.338C321.274 144.827 307.329 150.428 290.228 148.285C286.284 147.789 283.963 147.825 282.691 152.247C281.607 156 279.846 159.574 279.042 163.456C278.725 164.966 278.381 166.498 277.425 167.792C275.945 169.798 274.055 171.107 271.591 170.028C269.191 168.986 269.514 166.591 270.082 164.679C272.079 157.97 275.305 151.851 279.623 146.092C277.648 144.906 275.672 143.82 273.825 142.569C272.87 141.922 271.663 141.001 272.216 139.678C272.834 138.197 274.213 138.866 275.356 139.161C284.222 141.469 293.138 142.828 302.321 141.21C313.637 139.211 321.691 132.927 326.864 122.789C331.994 112.744 334.976 101.844 339.344 91.4897C340.932 87.7292 342.211 83.8178 345.797 81.4018C346.723 80.7763 346.414 80.2874 346.034 79.6906C343.045 75.0098 341.751 69.574 339.273 64.6703C337.584 61.3196 335.386 58.3501 332.231 56.2002C330.629 55.1073 328.941 54.2948 326.483 54.719C328.883 60.277 331.786 65.0298 337.045 67.9849C338.389 68.7399 340.207 69.4374 339.984 71.2061C339.754 73.0468 337.764 73.0684 336.277 73.4135C325.679 75.8366 316.223 70.4224 312.99 60.047C312.43 58.2494 312.329 56.0924 309.484 56.7251C307.293 57.214 305.044 56.8905 304.799 60.5287C304.404 66.2665 299.619 70.5159 293.426 71.8964C288.569 72.9821 283.669 72.6226 278.768 72.5435C273.991 72.4644 269.169 72.0402 264.442 72.9749C260.181 73.8162 256.071 75.0817 255.475 80.4527C255.389 81.2221 254.699 81.2365 254.11 81.2796C253.025 81.3587 252.256 80.9417 251.954 79.8344C251.372 77.7133 250.187 75.9085 248.865 74.2045C245.445 69.8112 239.74 68.2006 235.458 70.3505C231.305 72.4357 229.006 78.6768 230.278 83.753C232.045 90.7922 236.809 94.8979 243.139 97.702C244.849 98.457 248.031 98.8165 247.133 101.347C246.171 104.065 243.297 102.728 241.17 102.174C230.788 99.4636 224.292 93.1794 222.697 82.2503C222.151 78.5258 222.755 75.1104 224.573 71.8748C225.27 70.6309 225.521 69.8328 223.624 69.4517C221.62 69.0491 220.492 67.4169 219.565 65.6625C216.145 59.1913 216.791 50.5703 221.699 45.6306C222.324 53.6405 222.403 61.3124 226.635 67.9921C227.799 67.5032 228.826 66.8848 227.792 65.1736C223.545 58.1272 223.89 50.5199 225.356 42.8911C226.283 38.0881 227.439 33.3066 228.912 28.6474C230.737 22.8664 234.574 18.6602 240.372 16.5966C248.383 13.7493 256.51 12.1171 264.88 15.2305C265.778 15.5612 266.64 16.4744 267.129 14.4611C269.414 5.04913 277.181 -0.343515 286.787 0.792536C290.573 1.23833 294.331 1.97892 297.234 4.93409C298.671 6.40089 300.862 5.77534 302.666 6.34337C306.078 7.41471 309.549 8.31348 312.997 9.28416L315.009 9.96004C318.178 12.2106 321.914 12.9584 325.549 13.9506C333.252 16.0573 340.566 18.7752 345.638 25.4765C346.077 26.0589 346.644 26.9361 347.787 26.1883C346.68 22.773 343.749 20.429 342.463 17.143L342.398 17.2221L342.369 17.2293ZM359.031 43.301C360.511 48.7152 362.631 53.7915 366.525 57.969C365.569 52.2887 363.644 47.1046 359.031 43.301ZM271.713 15.8776C274.4 13.2172 277.181 10.6359 279.976 8.05464C275.88 9.16912 272.977 11.5994 271.713 15.8776Z" fill="#292929"/>
<path d="M425.543 286.711C431.277 286.438 436.256 286.244 441.221 285.949C466.152 284.475 490.976 286.359 515.793 288.322C517.826 288.48 519.781 289.105 521.527 290.234C522.805 291.061 523.768 292.061 523.445 293.758C523.158 295.26 522.073 295.85 520.722 296.26C518.487 296.936 516.217 297.008 513.961 296.634C495.007 293.535 475.902 292.65 456.733 292.312C446.329 292.133 435.933 291.392 425.551 290.723C420.514 290.4 415.614 292.233 410.548 291.327C413.243 293.225 416.462 292.931 419.371 293.794C420.255 294.052 421.584 293.916 421.577 295.152C421.57 296.598 420.112 296.519 419.113 296.67C418.179 296.813 417.187 296.813 416.246 296.677C406.388 295.246 396.689 296.964 386.924 297.899C380.623 298.503 374.265 298.575 367.92 298.683C354.52 298.906 341.149 300.265 327.735 299.948C325.731 299.898 323.661 300.186 321.923 298.69C321.003 297.899 319.896 298.208 318.855 298.604C315.629 299.833 312.575 301.25 309.622 303.184C304.363 306.628 298.399 307.872 292.119 306.096C287.701 304.845 283.569 305.219 279.223 307.023C272.347 309.878 265.428 310.453 258.839 305.564C256.482 303.809 252.911 305.427 250.282 303.63C250.21 303.579 249.685 303.975 249.556 304.255C247.832 307.987 244.189 308.325 240.862 309.123C228.468 312.107 216.046 312.581 203.601 309.324C198.026 307.872 192.436 308.454 186.853 309.353C186.027 309.483 185.186 309.669 184.367 309.619C183.419 309.569 182.406 309.332 182.075 308.239C181.673 306.901 182.614 306.261 183.591 305.744C186.623 304.133 189.986 303.68 193.313 303.5C198.809 303.205 204.305 303.241 209.816 303.759C218.912 304.615 227.886 303.27 237.105 302.17C234.655 298.144 234.791 297.921 239.662 297.302C238.34 294.93 236.084 293.758 234.188 292.204C233.052 291.277 231.069 290.407 232.097 288.588C233.153 286.711 235.251 286.992 236.925 287.804C241.588 290.055 245.813 292.952 249.182 297.173C248.256 287.61 237.09 275.847 228.59 273.431C223.41 271.957 217.49 272 212.776 274.668C201.101 281.268 189.512 279.205 177.376 276.501C161.009 272.848 144.34 271.051 127.499 272.388C125.839 272.518 124.201 272.92 122.548 273.115C121.061 273.287 119.538 273.215 119.071 271.41C118.625 269.721 119.66 268.743 121.047 268.017C125.185 265.852 129.819 265.91 134.274 264.839C129.309 263.552 124.287 262.948 119.107 263.436C117.088 263.631 114.077 264.752 113.402 262.2C112.569 259.065 115.981 258.569 118.094 257.922C128.397 254.758 138.463 255.793 148.026 260.611C150.433 261.826 151.726 261.538 153.566 259.777C159.615 253.96 165.464 247.963 170.96 241.614C171.822 240.622 172.706 239.644 173.633 238.702C175.566 236.732 177.843 236.272 180.078 237.926C182.485 239.702 182.169 242.074 180.638 244.282C176.78 249.825 171.995 254.528 166.944 258.957C164.436 261.157 161.742 263.134 158.796 265.478C165.442 266.636 171.736 267.571 177.958 268.865C183.096 269.929 188.312 270.986 193.198 272.834C198.45 274.826 202.674 273.107 207.266 270.706C201.532 265.831 195.684 261.423 191.243 255.534C187.838 251.019 188.075 248.229 192.134 244.318C194.232 242.297 196.503 241.722 199.341 242.664C202.509 243.707 205.089 245.59 207.496 247.747C214.458 253.974 221.384 260.244 228.282 266.535C229.546 267.686 230.847 268.52 232.542 268.987C241.71 271.525 248.931 276.652 253.508 285.18C254.126 286.323 254.391 288.099 256.439 286.388C266.541 277.989 278.87 274.315 291.056 270.447C293.571 269.649 294.656 268.592 295.13 265.946C296.61 257.569 299.003 249.423 302.265 241.55C302.768 240.334 303.335 239.141 303.953 237.99C305.232 235.603 307.122 234.273 309.837 235.459C312.446 236.595 312.144 238.846 311.397 240.996C309.636 246.079 307.826 251.148 305.95 256.196C305.067 258.562 305.613 259.532 308.156 260.517C311.497 261.819 314.457 262.099 317.691 260.625C318.876 260.086 320.184 259.748 321.47 259.525C329.898 258.022 337.535 255.621 344.239 249.372C350.799 243.261 359.744 241.089 368.854 240.902C370.27 240.874 371.714 241.089 373.108 241.391C375.026 241.808 377.002 242.463 376.923 244.929C376.844 247.532 374.631 247.647 372.77 247.978C369.717 248.524 366.605 248.812 363.588 249.523C360.613 250.228 357.581 250.89 354.894 252.579C359.148 252.342 363.358 252.277 367.575 252.335C370.018 252.371 372.317 252.845 374.394 254.219C376.039 255.304 377.785 256.448 377.196 258.727C376.549 261.243 374.523 262.415 372.037 262.336C368.093 262.214 364.177 261.905 360.211 262.157C339.102 263.523 318.531 267.571 298.485 274.33C290.675 276.961 282.578 278.687 274.904 281.757C271.944 282.943 268.927 284.058 266.469 286.416C267.64 287.401 268.668 286.69 269.645 286.625C270.953 286.546 272.562 286.014 273.022 287.675C273.439 289.199 271.944 289.896 270.809 290.536C268.625 291.773 266.405 292.952 264.206 294.167C262.101 295.332 260.19 296.741 258.271 298.805C260.578 298.877 262.015 297.619 263.495 296.741C267.72 294.225 272.368 293.269 277.132 292.65C278.008 292.535 279.251 292.169 279.632 293.362C279.991 294.477 278.921 295.088 278.116 295.519C275.285 297.058 272.404 298.517 269.53 299.977C268.273 300.617 266.987 301.185 265.808 302.17C270.479 303.148 274.789 301.825 278.906 299.862C282.765 298.021 286.831 297.216 290.754 298.604C296.143 300.509 301.51 300.2 306.64 298.776C311.174 297.518 315.348 295.009 320.198 294.548C321.621 294.412 321.089 293.24 320.902 292.291C320.241 288.99 317.87 286.956 315.557 284.856C313.99 283.425 311.67 281.966 313.265 279.55C314.867 277.134 317.626 277.083 320.054 278.342C324.933 280.866 329.064 284.36 331.464 289.386C332.384 291.313 333.267 292.161 335.387 291.895C355.699 289.321 376.255 289.789 396.545 286.92C399.268 286.531 402.235 285.755 404.405 288.782C405.059 289.695 406.805 289.415 407.811 288.919C412.409 286.668 417.281 284.856 420.808 280.837C424.458 276.681 425.083 272.101 422.741 267.197C421.771 265.169 420.485 263.221 419.019 261.51C403.313 243.11 386.012 226.436 365.327 213.695C353.313 206.296 343.161 196.596 332.441 187.652C319.329 176.701 305.368 167.153 290.718 158.496C289.669 157.877 287.643 157.633 288.161 156.058C288.692 154.44 290.611 154.98 291.997 155.166C298.916 156.094 304.815 159.588 310.843 162.745C323.891 169.576 335.114 179.06 346.179 188.493C358.522 199.02 371.944 207.964 384.834 217.692C400.461 229.484 414.859 242.621 427.368 257.749C432.412 263.846 433.863 270.634 431.571 278.248C430.602 281.477 428.575 283.921 425.543 286.733V286.711ZM206.756 260.474C204.176 257.332 203.077 253.399 200.77 250.199C200.217 249.437 199.908 247.136 198.04 248.833C196.704 250.048 195.964 251.292 197.695 252.996C200.483 255.743 203.429 258.281 206.756 260.474ZM220.005 267.463C218.934 266.09 217.892 264.831 216.261 263.868C216.189 266.615 215.751 269.433 220.005 267.463Z" fill="#292929"/>
<path d="M68.1273 246.072C59.0958 246.971 51.408 249.926 43.6483 252.594C42.9729 252.824 42.3478 253.241 41.658 253.399C30.8447 255.801 27.0727 263.444 26.232 273.582C25.2261 285.654 24.9028 297.734 24.8382 309.835C24.8022 315.939 24.5005 322.044 24.2705 328.141C24.2131 329.73 24.716 331.772 22.2731 332.096C19.9668 332.405 18.1418 331.37 17.5598 329.133C16.906 326.602 16.4605 323.971 16.3528 321.361C15.7133 305.808 14.4847 290.249 16.2091 274.696C16.7623 269.685 17.7898 264.774 20.2111 260.258C23.5089 254.125 29.3144 251.22 35.3353 248.797C46.4576 244.318 58.0037 241.248 69.8732 239.515C71.8634 239.227 73.0417 238.429 74.1123 236.783C87.0739 216.902 101.293 197.905 116.223 179.513C136.894 154.038 163.679 138.334 195.99 132.187C201.515 131.137 207.048 130.245 212.623 129.562C217.573 128.958 222.416 129.203 227.101 130.986C228.221 131.41 230.169 131.338 230.032 133.014C229.924 134.337 228.229 134.286 227.086 134.488C220.253 135.652 213.37 136.551 206.602 138.011C193.633 140.801 180.808 144.209 168.421 149.055C150.61 156.022 136.549 168.123 125.003 182.863C108.406 204.06 91.859 225.35 77.7622 248.373C73.4513 255.412 69.0397 262.401 64.8725 269.527C60.9639 276.206 58.5929 283.44 57.6948 291.162C56.9691 297.439 59.5628 301.803 65.1024 304.572C71.9496 307.987 79.4435 309.109 86.8224 310.496C104.763 313.876 122.84 312.495 140.882 311.647C151.76 311.136 162.616 310.381 173.487 309.763C174.794 309.691 176.145 309.576 177.295 310.439C177.661 310.712 178.193 311.057 178.236 311.424C178.488 313.408 178.444 313.416 180.348 313.473C191.851 313.854 203.225 315.465 214.592 317.097C218.184 317.615 221.245 320.023 224.579 320.786C227.754 321.512 230.197 317.586 233.718 316.946C256.243 312.812 278.904 310.187 301.817 309.964C308.017 309.907 314.275 309.576 319.657 313.746C321.036 314.818 322.904 314.092 324.542 313.79C339.695 310.964 354.82 308.016 370.001 305.348C382.252 303.191 394.631 301.933 406.989 300.552C413.75 299.797 420.454 298.539 427.179 297.461C427.984 297.331 428.903 297.079 429.492 296.562C433.185 293.326 436.907 295.045 440.564 296.461C441.886 296.972 443.115 297.935 443.115 299.632C443.115 301.487 441.786 302.386 440.313 302.99C436.16 304.701 431.684 304.938 427.315 305.442C397.146 308.893 366.991 312.467 337.123 318.061C334.896 318.478 332.532 319.067 330.362 318.729C321.625 317.392 314.498 322.662 306.494 324.151C292.598 326.739 278.487 327.552 264.405 328.458C253.175 329.177 241.995 330.413 230.844 331.787C224.32 332.592 217.969 331.815 211.567 331.233C189.775 329.241 168.242 325.15 146.479 322.892C144.754 322.713 143.087 322.526 143.174 320.081C143.224 318.715 142.01 319.139 141.298 319.182C138.554 319.333 135.809 319.585 133.072 319.815C112.027 321.577 91.2555 319.29 70.5989 315.522C66.4747 314.767 62.6164 313.027 59.0096 310.834C50.4883 305.65 47.4275 296.979 49.5471 285.007C51.3792 274.653 56.0279 265.558 61.5028 256.778C63.5792 253.442 65.6485 250.099 68.1273 246.101V246.072ZM312.695 315.4C311.588 313.674 310.194 314.084 308.8 314.401C307.062 314.789 305.33 315.35 303.562 315.494C289.753 316.615 275.836 316.493 262.098 318.499C249.453 320.347 236.211 320.016 225.326 328.091C227.151 328.659 227.165 328.695 228.322 328.328C239.545 324.733 251.228 323.539 262.824 322.094C275.268 320.541 287.792 319.657 300.257 318.298C304.446 317.838 308.764 317.564 312.687 315.4H312.695ZM150.581 319.189C152.126 319.189 153.685 319.074 155.216 319.211C170.103 320.527 184.803 323.173 199.582 325.294C205.848 326.193 212.206 326.408 218.4 327.846C219.427 328.084 220.555 328.177 220.972 326.682C221.353 325.323 220.692 324.618 219.592 324.194C218.155 323.64 216.711 322.971 215.21 322.72C209.67 321.799 204.13 320.857 198.555 320.246C185.974 318.873 173.451 316.788 160.748 316.917C157.328 316.953 153.872 317.133 150.589 319.197L150.581 319.189Z" fill="#292929"/>
<path d="M45.9526 337.812C63.5413 336.812 83.0196 340.019 102.627 340.537C118.068 340.947 133.486 341.737 148.869 342.96C166.048 344.326 183.278 344.649 200.45 346.181C213.577 347.353 226.732 346.569 239.773 344.304C257.096 341.299 274.634 339.796 291.993 337.093C326.84 331.664 361.636 325.833 395.944 317.6C423.915 310.892 452.173 306.319 480.726 303.241C490.828 302.155 500.894 300.667 510.975 299.38C512.275 299.215 513.59 298.992 514.898 299.02C516.241 299.049 518.138 298.424 518.583 300.293C519.022 302.127 517.7 303.45 516.133 304.248C513.446 305.607 510.551 306.441 507.591 306.858C483.32 310.295 459.049 313.703 434.764 317.068C422.543 318.758 410.731 322.245 398.725 324.92C374.116 330.406 349.271 334.72 324.49 339.322C304.617 343.01 284.499 344.98 264.525 347.95C246.175 350.675 227.781 353.076 209.237 353.393C198.977 353.565 188.695 352.3 178.414 351.948C156.406 351.193 134.478 349 112.456 348.432C95.2483 347.986 78.0548 346.713 60.8757 345.419C48.0003 344.448 35.0818 343.938 22.2065 342.874C20.0079 342.694 16.8465 343.003 16.9974 340.026C17.1339 337.251 20.2881 337.891 22.307 337.862C29.4848 337.761 36.6697 337.826 45.9454 337.826L45.9526 337.812Z" fill="#292929"/>
<path d="M487.433 376.747C487.433 369.392 487.419 356.938 487.44 344.485C487.44 342.098 487.541 339.718 487.914 337.331C488.403 334.253 490.185 332.333 493.059 332.348C496.17 332.362 496.472 335.289 496.752 337.654C497.736 346.11 497.988 354.601 498.081 363.107C498.304 383.348 496.256 403.531 496.709 423.778C496.809 428.337 495.063 430.667 492.541 430.674C489.876 430.674 488.266 428.215 488.209 423.512C488.051 409.621 488.547 395.729 487.426 376.747H487.433Z" fill="#292929"/>
<path d="M475.312 362.373C474.249 377.207 477.065 392.601 477.776 408.117C478.2 417.314 478.797 426.517 477.46 435.685C477.166 437.727 477.094 440.459 474.126 440.358C471.274 440.265 470.57 437.763 470.376 435.44C470.002 431.033 469.6 426.603 469.679 422.189C469.952 407.794 468.012 393.55 467.1 379.234C466.36 367.644 466.094 356.039 468.098 344.527C468.529 342.039 468.702 338.617 472.258 338.869C475.973 339.135 475.283 342.521 475.305 345.081C475.348 350.581 475.319 356.089 475.319 362.366L475.312 362.373Z" fill="#292929"/>
<path d="M30.4987 295.432C30.4341 282.317 31.7489 271.704 36.182 261.652C37.2166 259.316 38.668 257.295 40.457 255.505C41.3911 254.57 42.4041 254.225 43.6759 254.958C44.9404 255.685 45.2781 256.756 44.8542 258.007C38.7901 275.867 40.0978 294.404 39.8176 312.796C39.7529 317.348 39.4368 321.878 38.5171 326.35C38.1794 328.011 37.7268 329.291 35.6431 329.305C33.5451 329.319 33.4086 327.795 33.1787 326.422C31.3537 315.414 30.9442 304.298 30.4844 295.432H30.4987Z" fill="#292929"/>
<path d="M266.578 187.234C255.269 187.564 246.403 183.006 239.649 174.047C234.21 166.835 229.662 159.142 226.407 150.707C226.106 149.931 225.897 149.118 225.639 148.32C225.279 147.213 225.236 146.07 226.314 145.43C227.579 144.682 228.685 145.43 229.418 146.422C230.97 148.543 232.471 150.707 233.865 152.936C238.112 159.738 242.221 166.619 247.883 172.415C253.171 177.829 259.501 180.202 266.988 179.684C271.198 179.389 274.906 177.93 277.93 174.938C279.461 173.421 280.847 171.76 282.392 170.265C283.786 168.92 285.173 166.619 287.443 168.453C289.433 170.056 288.866 172.422 287.774 174.363C283.118 182.625 276.134 187.169 266.571 187.234H266.578Z" fill="#292929"/>
<path d="M99.2384 321.282C103.664 321.282 107.846 321.296 112.028 321.282C114.765 321.275 116.971 322.447 117.193 325.179C117.409 327.882 115.146 328.515 112.768 328.673C103.255 329.299 93.7419 329.888 84.2434 330.723C76.9939 331.355 69.6724 331.291 62.5019 332.657C59.0388 333.318 59.4555 330.73 58.8663 328.81C58.1263 326.401 59.3836 325.452 61.4385 325.143C74.0552 323.245 86.6001 320.613 99.2384 321.289V321.282Z" fill="#292929"/>
<path d="M175.032 336.395C159.426 336.129 143.253 333.792 127.317 329.78C125.801 329.399 123.574 329.198 123.875 326.897C124.17 324.617 126.354 324.862 127.921 324.998C135.062 325.631 142.19 326.401 149.317 327.177C161.912 328.55 174.5 329.945 187.088 331.362C188.561 331.527 190.81 331.204 190.925 333.116C191.062 335.446 188.698 335.431 186.959 335.805C183.287 336.603 179.573 336.323 175.032 336.395Z" fill="#292929"/>
<path d="M248.598 112.981C247.384 123.824 242.958 132.92 236.348 141.045C234.889 142.842 232.82 144.057 230.722 142.562C228.495 140.973 228.265 138.32 229.817 136.148C235.608 128.023 240.12 119.28 243.195 109.789C243.576 108.624 244.345 107.955 245.545 107.977C246.723 108.006 247.643 108.718 248.009 109.76C248.397 110.86 248.44 112.075 248.591 112.981H248.598Z" fill="#292929"/>
<path d="M180.327 281.698C184.423 281.705 186.219 284.883 184.416 288.263C183.015 290.887 181.369 293.375 179.896 295.956C178.524 298.365 177.604 300.788 178.237 303.758C178.797 306.389 175.154 308.41 172.453 307.058C169.04 305.354 167.66 302.162 168.07 298.725C168.903 291.729 172.877 286.451 178.459 282.353C179.084 281.892 179.99 281.806 180.32 281.698H180.327Z" fill="#292929"/>
<path d="M407.843 98.8529C416.041 99.6366 424.239 100.413 432.437 101.211C433.263 101.29 434.111 101.413 434.88 101.7C436.719 102.39 438.623 103.304 438.371 105.648C438.12 107.956 436.23 108.473 434.175 108.747C430.181 109.286 426.322 108.466 422.457 107.769C415.416 106.503 408.389 105.13 401.527 103.052C400.385 102.707 398.567 102.455 398.84 100.737C399.099 99.1405 400.78 99.2052 402.08 99.1693C403.992 99.1189 405.903 99.1549 407.814 99.1549C407.821 99.0542 407.828 98.9464 407.836 98.8457L407.843 98.8529Z" fill="#292929"/>
<path d="M400.355 84.731C398.084 84.731 395.807 84.8029 393.543 84.695C392.573 84.6519 391.603 84.1198 391.474 83.0269C391.366 82.0778 392.214 81.5529 392.969 81.2006C400.894 77.4832 409.185 75.4844 417.979 76.2825C419.625 76.4335 421.406 77.0159 421.493 79.2017C421.572 81.2365 420.171 82.2216 418.453 82.6817C412.526 84.2492 406.455 84.7453 400.348 84.731H400.355Z" fill="#292929"/>
<path d="M139.86 432.413C139.86 427.999 139.846 423.591 139.867 419.176C139.867 418.019 139.637 416.653 141.254 416.293C142.95 415.912 144.049 416.789 144.595 418.27C145.084 419.601 145.479 420.995 145.658 422.398C146.571 429.509 146.722 436.663 146.355 443.817C146.298 444.989 146.01 446.176 145.687 447.312C145.234 448.893 144.423 450.281 142.461 449.958C140.715 449.67 140.291 448.268 140.284 446.729C140.263 441.955 140.284 437.188 140.284 432.413C140.148 432.413 140.011 432.413 139.875 432.413H139.86Z" fill="#292929"/>
<path d="M314.968 9.96082L312.956 9.28494C311.828 7.4802 311.857 5.95588 314.358 5.81208C322.9 5.32314 331.3 5.61075 338.75 10.7661C341.114 12.3983 342.594 14.2678 342.357 17.2301L342.422 17.151C340.87 17.1654 339.411 16.8275 337.902 16.4104C330.243 14.3109 322.778 11.5067 314.968 9.96082Z" fill="#292929"/>
<path d="M312.875 111.17C312.538 114.068 311.984 116.822 308.751 118.044C307.731 118.432 306.847 118.317 306.136 117.541C305.525 116.872 305.374 115.937 305.856 115.204C308.119 111.71 307.257 108.122 306.358 104.498C306.093 103.419 305.36 101.988 306.897 101.356C308.464 100.709 309.649 101.593 310.432 102.974C311.869 105.504 312.624 108.237 312.875 111.178V111.17Z" fill="#292929"/>
<path d="M303.499 129.504C299.425 129.489 295.969 128.325 292.858 126.189C291.543 125.29 290.343 124.046 291.392 122.306C292.384 120.667 293.792 121.408 295.164 121.968C297.909 123.097 300.704 124.054 303.693 124.442C305.582 124.686 308.471 124.564 308.356 127.196C308.219 130.266 305.194 129.209 303.506 129.504H303.499Z" fill="#292929"/>
<path d="M236.792 75.4911C241.333 75.6205 245.68 81.5812 244.408 85.9097C244.135 86.8372 243.56 87.3693 242.634 87.3837C241.843 87.3981 241.204 86.9523 241.103 86.1542C240.643 82.7029 238.129 81.1713 235.37 79.8268C234.292 79.3019 233.099 78.8058 233.624 77.188C234.141 75.5989 235.42 75.4479 236.799 75.4839L236.792 75.4911Z" fill="#292929"/>
<path d="M284.849 95.6596C284.914 98.8808 282.169 102.454 279.776 102.39C277.952 102.339 277.01 101.196 276.874 99.4272C276.694 97.1192 280.236 92.7835 282.428 92.726C284.626 92.6685 284.612 94.4372 284.849 95.6668V95.6596Z" fill="#292929"/>
<path d="M264.382 9.67903C264.224 10.887 264.417 12.5551 262.24 12.4257C260.099 12.2963 257.549 8.90248 257.771 6.31401C257.922 4.58117 258.009 2.50321 260.38 2.30188C262.327 2.13651 264.432 6.09831 264.382 9.67903Z" fill="#292929"/>
<path d="M321.951 108.589C320.629 108.524 319.322 107.963 319.336 105.9C319.35 103.822 323.13 99.8457 324.969 100.141C326.816 100.443 327.441 101.773 327.362 103.556C327.247 106.338 324.962 108.675 321.951 108.582V108.589Z" fill="#292929"/>
<path d="M284.293 79.4531C285.378 79.6113 286.348 79.6545 287.261 79.8989C289.035 80.3807 290.379 81.3513 289.955 83.4581C289.466 85.8812 287.57 84.9392 286.197 84.7307C284.437 84.4575 282.741 83.7888 280.988 83.4221C280.025 83.2208 278.933 83.2136 278.782 82.0416C278.603 80.6251 279.896 80.3016 280.873 80.014C282.009 79.676 283.223 79.6185 284.286 79.4603L284.293 79.4531Z" fill="#292929"/>
<path d="M327.635 86.8809C329.014 86.8952 330.063 86.9671 331.076 87.4633C332.513 88.1607 333.526 89.1458 333.052 90.8211C332.535 92.669 330.925 92.0219 329.725 91.8637C327.477 91.5761 325.256 91.0943 323.022 90.6917C322.462 90.591 321.757 90.6917 321.628 89.8935C321.513 89.2105 321.944 88.7575 322.476 88.4555C324.164 87.492 325.975 86.9312 327.635 86.888V86.8809Z" fill="#292929"/>
</g>
<defs>
<clipPath id="clip0_96_351">
<rect width="534" height="450" fill="white"/>
</clipPath>
</defs>
</svg>
