<svg width="534" height="450" viewBox="0 0 534 450" fill="none" xmlns="http://www.w3.org/2000/svg">
<g clip-path="url(#clip0_96_328)">
<path d="M433.129 303.375C438.947 302.863 444.313 301.578 449.687 299.697C445.063 296.966 444.856 294.84 448.875 291.345C458.199 283.246 469.344 278.565 480.873 274.719C485.818 273.067 490.893 271.82 495.93 270.436C497.775 269.931 499.696 269.946 500.462 272.05C501.181 274.03 499.972 275.392 498.265 276.393C495.379 278.099 492.217 279.063 489.048 280.026C475.843 284.026 462.715 288.171 452.274 298.633C462.088 295.467 471.534 292.416 480.972 289.372C495.754 284.6 510.52 279.797 525.317 275.078C528.042 274.206 531.296 272.661 533.332 275.858C535.2 278.795 532.666 281.204 530.951 283.3C517.792 299.375 504.526 315.367 491.888 331.856C482.427 344.192 473.134 356.658 464.797 369.789C463.802 371.357 462.7 372.902 462.294 374.944C464.369 375.158 466.259 375.311 468.135 375.556C469.704 375.762 471.258 376.191 471.442 378.11C471.656 380.267 470.026 381.047 468.38 381.383C462.516 382.576 456.614 383.594 450.735 384.726C446.609 385.521 442.506 386.439 438.373 387.219C435.073 387.846 434.025 389.505 434.92 392.863C438.35 405.665 438.288 418.583 435.425 431.454C434.193 437.006 432.93 442.673 428.743 447.017C425.482 450.398 421.631 450.979 417.712 448.386C411.756 444.448 409.223 438.307 408.067 431.683C407.569 428.823 406.574 428.188 403.941 428.211C399.432 428.25 395.497 429.573 391.785 432.096C377.562 441.786 365.482 441.427 351.849 430.72C349.07 428.54 346.636 428.043 343.161 428.724C318.052 433.687 293.067 439.308 267.798 443.461C266.542 443.668 265.256 443.744 263.986 443.737C259.209 443.721 257.479 441.404 258.933 436.846C260.771 431.11 263.794 425.925 266.734 420.724C279.38 398.331 291.023 375.403 303.271 352.796C306.057 347.649 309.387 342.8 312.235 337.683C314.524 333.561 317.938 331.412 322.439 330.433C332.658 328.208 343.107 327.282 353.303 325.11C371.729 321.179 390.047 316.759 408.411 312.53C409.154 312.361 409.896 312.155 410.601 311.872C411.894 311.352 412.813 310.404 412.575 308.958C412.369 307.689 411.083 307.788 410.134 307.62C396.492 305.157 382.905 304.683 369.096 307.008C355.409 309.31 341.591 310.74 328.234 314.778C326.136 315.413 323.725 315.849 322.684 313.119C321.566 310.189 323.832 308.782 325.922 307.926C333.148 304.951 340.864 303.719 348.473 302.236C359.489 300.087 370.604 298.526 381.81 297.922C394.502 297.234 407.01 298.84 419.319 301.869C423.093 302.794 425.658 302.327 428.107 298.863C438.709 283.896 453.836 274.841 470.24 267.583C478.048 264.126 485.948 260.891 494.307 259.002C496.152 258.582 498.089 258.52 499.995 258.444C501.618 258.375 503.156 258.842 503.57 260.647C504.021 262.643 502.682 263.774 501.059 264.409C499.168 265.151 497.193 265.686 495.241 266.252C475.981 271.82 457.617 279.147 442.797 293.288C439.429 296.5 436.344 300.018 433.129 303.39V303.375ZM429.462 409.864C429.401 409.864 429.347 409.856 429.286 409.849C429.286 407.807 429.378 405.765 429.263 403.738C429.11 401.069 428.184 399.631 425.168 401.207C422.113 402.797 418.776 403.776 415.393 404.404C412.667 404.901 409.491 406.981 407.301 403.784C405.273 400.824 407.692 398.193 409.039 395.746C411.488 391.287 414.328 387.035 415.622 382.026C416.181 379.869 417.612 377.131 414.573 376.114C412.147 375.296 411.106 377.95 409.942 379.724C406.873 384.404 403.834 389.115 400.603 393.689C397.572 397.979 396.232 397.972 392.566 394.377C389.006 390.89 385.745 387.165 382.79 383.15C381.68 381.651 380.302 379.701 378.128 381.322C376.215 382.752 377.37 384.611 378.381 386.072C381.496 390.576 384.589 395.111 389.634 397.811C391.938 399.042 392.596 401.084 391.211 403.272C389.833 405.444 387.651 405.153 385.844 403.868C383.563 402.254 381.458 400.388 379.361 398.538C377.738 397.1 376.199 395.547 374.201 394.637C372.823 394.01 371.063 393.192 370.029 394.668C369.18 395.876 370.803 396.878 371.545 397.826C374.952 402.186 379.208 405.627 383.602 408.931C385.217 410.147 386.388 411.661 385.048 413.826C383.778 415.875 381.757 415.814 379.965 415.126C378.22 414.46 376.597 413.321 375.112 412.143C369.968 408.074 365.72 403.218 362.336 397.574C361.111 395.532 359.466 393.842 356.695 395.379C353.939 396.909 355.003 398.996 355.929 400.97C359.458 408.449 363.798 415.256 371.323 419.432C372.67 420.181 374.025 421.16 373.306 423.057C372.617 424.854 371.124 425.428 369.302 425.328C365.804 425.145 362.956 423.431 360.514 421.152C357.82 418.636 355.393 415.829 352.813 413.191C351.313 411.654 349.43 410.224 347.509 411.967C345.503 413.787 347.08 415.784 348.374 417.336C351.826 421.481 355.845 425.091 360.621 427.569C368.828 431.829 377.11 432.464 385.186 426.949C387.597 425.305 390.154 423.837 392.734 422.452C396.041 420.678 399.692 419.256 403.367 420.082C410.685 421.734 418.148 419.753 425.42 421.466C427.579 421.971 428.727 420.969 428.812 418.621C428.919 415.699 429.248 412.786 429.478 409.872L429.462 409.864ZM441.97 311.88C438.097 312.744 434.338 312.797 431.981 316.95C425.903 327.688 419.457 338.219 413.249 348.888C409.414 355.472 405.028 361.774 402.318 368.963C401.545 371.013 399.845 373.95 402.387 375.135C404.622 376.175 405.74 372.955 406.827 371.265C418.378 353.27 429.485 335.007 440.149 316.468C440.899 315.161 441.932 313.975 441.97 311.88Z" fill="#292929"/>
<path d="M265.43 229.396C265.43 222.257 265.445 215.119 265.415 207.98C265.415 206.282 265.315 204.491 266.992 203.558C269.052 202.41 269.581 200.651 269.757 198.516C270.339 191.278 271.005 184.055 271.58 176.818C271.656 175.861 271.993 174.652 270.936 174.01C269.841 173.344 268.991 174.3 268.225 174.867C262.75 178.876 256.539 180.513 249.876 180.345C243.604 180.192 238.183 182.801 232.799 185.326C222.055 190.375 211.142 192.801 199.509 188.822C197.081 187.996 194.738 188.233 192.402 189.044C180.456 193.206 168.739 187.169 162.39 178.447C155.184 168.547 153.568 157.667 159.541 146.473C163.37 139.297 169.413 133.865 175.026 128.126C180.203 122.832 184.43 116.956 185.081 109.305C185.832 100.506 185.464 91.7148 183.925 83.0156C180.609 64.2093 183.588 46.7343 197.633 33.1996C210.192 21.1032 224.949 11.8837 243.497 13.1308C249.57 13.5363 253.797 12.6259 258.729 8.55551C272.223 -2.59208 287.478 -1.71986 300.811 9.64961C301.393 10.1469 302.044 10.5983 302.511 11.1875C308.989 19.5271 317.743 21.524 327.76 20.6824C332.163 20.3152 336.681 19.9556 341.069 21.2639C348.743 23.5516 352.151 28.586 350.251 36.2829C348.314 44.1712 345.32 51.7763 343.604 59.7564C343.06 62.2889 341.169 64.1787 339.216 65.8925C337.975 66.979 336.628 68.0425 336.115 69.6951C335.716 70.9652 335.402 71.9981 337.608 72.1664C344.217 72.6714 349.018 76.8641 350.313 83.2757C350.749 85.4486 351.768 86.5963 353.644 87.4685C357.718 89.366 361.999 90.6513 366.372 91.493C377.246 93.5894 385.142 99.5801 390.571 109.083C395.664 118.004 397.969 127.461 396.154 137.713C393.65 151.814 384.453 160.092 371.579 164.4C355.306 169.84 338.864 170.903 322.774 163.352C320.14 162.12 319.573 163.038 319.902 165.448C321.281 175.57 323.961 185.379 327.162 195.058C327.583 196.328 328.181 197.047 329.659 196.443C333.786 194.759 337.654 196.198 341.544 197.491C359.663 203.527 376.389 212.38 392.7 222.211C408.859 231.951 422.988 243.726 433.939 259.204C436.512 262.838 439.583 266.113 442.44 269.541C443.895 271.285 444.615 273.114 442.723 274.942C440.839 276.763 438.611 277.161 436.551 275.348C434.552 273.588 432.415 271.782 431.014 269.571C418.064 249.051 400.052 234.445 378.793 223.099C365.261 215.876 351.638 209.12 337.102 204.185C334.192 203.198 332.99 203.918 332.04 206.611C320.301 239.969 301.944 269.724 281.796 298.492C280.938 299.716 280.693 301.032 280.31 302.356C279.797 304.101 278.893 305.371 276.933 305.47C274.834 305.57 274.068 304.123 273.617 302.417C270.546 290.834 268.401 279.089 267.1 267.177C265.721 254.613 265.407 242.012 265.438 229.388L265.43 229.396ZM272.453 226.205H272.851C272.943 227.988 273.05 229.771 273.111 231.553C273.709 248.753 274.612 265.914 277.905 282.861C278.112 283.932 277.997 285.501 279.085 285.883C280.478 286.373 280.8 284.674 281.436 283.833C298.59 261.109 312.068 236.373 322.001 209.702C322.766 207.644 322.613 205.853 321.87 203.833C317.337 191.508 313.669 178.967 311.846 165.892C311.21 161.355 312.198 158.31 316.203 156.037C319.925 153.918 322.943 150.857 324.911 147.093C330.915 135.601 332.852 123.161 331.803 110.414C331.504 106.749 332.377 104.706 334.866 102.641C339.913 98.4554 342.134 92.9314 342.157 86.4892C342.18 80.353 339.155 78.0194 333.105 79.3966C328.931 80.3454 327.721 79.4732 328.265 75.3875C328.847 70.9652 327.101 67.1473 325.722 63.1994C325.271 61.9063 324.421 61.4473 323.073 61.6232C315.66 62.6179 308.308 61.2024 300.925 61.0418C288.129 60.7587 277.852 55.9385 272.315 43.6662C271.066 40.9042 270.37 37.8897 269.428 34.9899C268.8 33.0618 267.774 31.4704 265.553 31.3174C263.186 31.1491 262.183 32.8553 261.547 34.7374C260.215 38.716 259.051 42.7557 257.695 46.7266C252.404 62.3195 242.395 74.2245 228.564 82.8702C224.589 85.3492 222.422 88.3866 222.001 92.9084C221.672 96.4202 220.936 99.9015 223.954 102.855C225.171 104.048 225.348 105.93 224.015 107.392C222.828 108.7 221.327 108.631 219.803 107.927C218.999 107.553 218.172 107.216 217.345 106.879C213.072 105.142 210.338 106.091 208.071 110.077C206.057 113.627 206.532 117.461 209.556 121.018C213.983 126.221 220.163 127.996 226.42 127.568C230.348 127.3 231.459 128.822 232.807 131.546C237.524 141.057 242.931 150.077 250.52 157.69C255.138 162.326 260.483 165.127 266.939 165.823C269.221 166.068 271.534 165.953 273.816 166.19C279.184 166.756 281.076 168.968 280.425 174.316C279.36 183.038 278.135 191.745 276.848 200.436C276.557 202.426 276.282 204.782 275.079 206.205C272.399 209.388 272.468 212.969 272.453 216.657C272.445 219.839 272.453 223.022 272.453 226.205ZM195.106 57.5988C194.945 60.927 195.259 63.1305 198.046 63.5054C200.78 63.8803 201.523 61.7227 201.814 59.6569C203.062 50.6516 206.807 43.2148 214.71 38.2187C216.12 37.3311 216.319 35.9004 215.652 34.5232C215.024 33.2225 213.715 32.9088 212.382 33.2608C211.41 33.5133 210.391 33.8499 209.587 34.4237C201.27 40.3839 197.066 48.846 195.113 57.5988H195.106ZM324.359 37.6754C325.945 37.6754 328.372 37.7519 330.784 37.6525C332.561 37.576 334.69 37.5071 334.644 34.9976C334.606 32.6946 332.661 32.1361 330.823 32.1361C321.579 32.1284 312.596 30.3993 303.667 28.257C301.569 27.752 299.294 27.4613 298.735 30.185C298.245 32.5645 300.259 33.3908 302.174 33.9647C309.143 36.0458 316.157 37.8897 324.359 37.6678V37.6754ZM382.285 129.197C382.186 123.482 380.08 118.302 377.851 113.184C377.231 111.768 375.99 110.544 374.214 111.194C372.537 111.807 372.1 113.543 372.337 115.005C372.674 117.109 373.249 119.282 374.237 121.156C376.917 126.252 376.013 131.202 374.145 136.198C373.969 136.672 373.67 137.132 373.616 137.614C373.448 139.197 372.628 141.148 374.574 142.036C376.312 142.824 377.736 141.638 378.786 140.253C381.259 136.994 382.186 133.222 382.278 129.197H382.285ZM169.191 164.4C169.244 165.724 169.619 168.103 170.661 170.322C171.496 172.089 172.844 173.359 174.881 172.694C176.941 172.02 176.703 170.23 176.221 168.539C174.283 161.714 176.129 155.769 180.387 150.36C180.938 149.664 181.512 148.968 181.949 148.203C182.753 146.772 183.818 145.165 182.01 143.834C180.394 142.64 178.878 143.49 177.584 144.706C172.223 149.748 169.39 155.93 169.191 164.4ZM246.53 46.1375C246.583 43.9034 246.086 42.8858 244.998 42.3885C243.482 41.7075 242.532 42.7175 241.721 43.6432C240.985 44.4849 240.373 45.5178 240.005 46.5736C237.8 52.9622 234.239 58.4174 229.215 62.9545C227.867 64.171 226.335 65.8237 227.492 67.5375C228.794 69.4579 231.152 68.6546 232.646 67.5987C240.289 62.2124 244.562 54.6149 246.53 46.1451V46.1375ZM309.587 52.5567C311.609 52.4343 313.186 51.8834 313.37 49.8483C313.546 47.9125 311.999 47.3005 310.46 46.9256C309.602 46.719 308.698 46.7037 307.818 46.5736C303.031 45.8621 298.283 45.0587 293.98 42.6257C291.613 41.2867 289.913 39.1903 287.822 37.5454C286.827 36.765 285.655 36.1452 284.392 37.2852C283.22 38.3334 283.319 39.5499 283.947 40.7435C284.476 41.7458 285.173 42.6716 285.885 43.5591C292.073 51.2867 301.293 50.973 309.587 52.572V52.5567Z" fill="#292929"/>
<path d="M66.2304 162.876C63.1455 160.192 60.5658 158.142 58.2157 155.855C53.286 151.052 48.4787 146.12 43.6178 141.248C41.1835 138.808 39.7061 135.978 39.6219 132.453C39.5224 128.292 40.9845 126.64 45.233 126.625C49.0068 126.61 52.4898 127.872 55.8121 129.57C67.2256 135.413 77.4832 142.777 86.9829 151.45C96.2454 159.901 104.36 169.354 112.627 178.677C121.66 188.871 124.615 202.11 129.345 214.407C136.855 233.94 141.348 254.345 146.125 274.65C146.768 277.365 146.829 280.691 151.369 279.07C152.785 278.565 153.435 279.965 153.902 281.303C155.219 285.127 156.75 288.867 158.924 292.592C160.738 291.276 161.251 289.387 162.024 287.735C169.572 271.522 178.429 256.073 189.115 241.726C199.725 227.485 213.006 216.732 230.314 211.524C232.013 211.012 233.697 210.339 235.527 210.469C237.249 210.591 238.903 211.004 239.454 212.901C240.036 214.904 238.688 215.998 237.142 216.786C234.991 217.88 232.871 219.164 230.574 219.837C215.134 224.38 204.05 234.322 194.994 247.255C182.287 265.403 171.7 284.6 164.344 305.539C163.616 307.604 162.568 309.723 160.087 309.998C157.385 310.296 156.421 308.002 155.533 306.059C153.581 301.8 151.79 297.471 149.807 292.89C142.741 302.794 134.566 310.847 123.964 316.201C116.768 319.841 109.175 321.646 101.091 321.286C96.6664 321.088 95.1431 318.709 96.3066 314.365C98.2969 306.916 102.698 301.088 108.463 296.27C110.874 294.259 111.402 292.102 110.836 289.234C106.802 268.898 103.188 248.471 98.5113 228.265C97.6233 224.418 96.5822 221.749 91.3233 221.42C83.8444 220.954 77.1157 217.474 72.2625 211.318C71.1755 209.933 70.0502 209.643 68.3049 209.918C57.3354 211.631 43.5259 201.077 42.1251 190.041C41.4821 184.955 43.9316 180.864 48.8844 178.998C50.1398 178.524 51.4794 178.088 51.7167 176.734C53.0104 169.239 58.4224 165.775 66.2304 162.861V162.876ZM118.59 309.983C127.026 305.669 133.877 300.148 139.649 293.211C140.988 291.597 140.858 290.121 140.414 288.278C137.659 276.913 134.987 265.518 132.315 254.13C127.317 232.816 122.142 211.562 112.29 191.808C109.626 186.47 105.967 181.965 100.792 178.822C92.5787 173.843 79.8485 175.304 74.7351 181.789C73.5638 183.273 72.6835 184.948 73.6787 186.684C74.5896 188.267 76.4191 187.693 77.8889 187.525C80.7901 187.204 83.477 185.82 86.4854 185.858C91.507 185.911 93.7729 188.382 93.0609 193.345C92.7012 195.854 92.0811 198.293 92.4792 200.901C93.2064 205.62 90.9635 207.708 86.0643 207.096C84.0205 206.844 81.9996 206.064 79.4122 206.645C82.4665 211.891 87.4269 213.038 92.1347 214.109C95.9009 214.966 98.8174 217.482 102.499 218.438C104.467 218.95 104.987 221.191 105.355 223.103C105.623 224.472 105.692 225.887 105.998 227.241C109.596 243.24 113.546 259.155 116.73 275.246C118.988 286.649 121.315 297.96 118.582 309.975L118.59 309.983ZM49.7953 135.634C53.1864 140.598 57.4349 144.567 61.76 148.506C68.5958 154.716 76.4268 159.962 81.3642 168.077C81.724 168.665 82.0991 169.178 82.8416 168.872C85.3984 167.832 88.3685 168.704 91.1855 167.059C80.0552 152.796 65.6869 143.198 49.7953 135.642V135.634ZM78.2869 199.624C79.4352 199.624 80.5834 199.601 81.724 199.624C84.3114 199.693 84.5946 197.758 84.564 195.991C84.5257 193.506 82.6349 194.24 81.1805 194.439C80.1701 194.576 79.1749 194.844 78.1645 194.928C73.4796 195.318 69.1163 194.607 66.4141 190.271C63.6966 185.911 65.6104 181.965 68.0753 178.202C69.1852 176.505 70.5555 174.99 71.2903 173.04C71.8262 171.61 71.4741 170.96 69.9967 170.6C65.7252 169.568 60.5888 172.734 59.6931 177.025C57.4043 187.992 67.1261 199.823 78.2869 199.601V199.624ZM58.8817 199.364C56.4857 194.645 54.6485 189.789 52.6965 184.978C52.2755 183.938 51.7014 183.135 50.4307 183.571C49.2441 183.977 48.3102 184.818 48.7006 186.133C50.3847 191.816 52.9644 196.871 58.8817 199.364Z" fill="#292929"/>
<path d="M203.705 368.297C202.534 368.458 202.35 369.123 202.074 369.659C192.644 387.738 177.096 396.885 157.515 400.128C156.007 400.38 154.491 400.602 152.968 400.732C134.772 402.307 123.435 396.793 112.741 377.283C108.011 368.649 105.684 359.051 103.356 349.514C102.032 344.076 100.585 338.669 99.0544 333.293C98.2047 330.295 98.7023 327.916 101.734 326.678C104.505 325.538 106.824 326.922 107.827 330.693C109.986 338.799 111.853 346.975 113.859 355.12C115.137 360.321 116.944 365.353 119.018 370.278C127.485 390.4 148.773 398.751 168.967 390.132C181.513 384.778 190.087 375.303 197.099 364.083C198.27 362.21 199.464 360.359 201.676 359.709C203.766 359.097 203.062 357.506 203.024 356.267C202.802 349.904 202.45 343.541 202.205 337.178C202.128 335.274 202.09 333.339 202.35 331.457C202.656 329.247 203.315 327.091 206.308 327.328C208.994 327.549 209.477 329.507 209.653 331.656C209.859 334.195 210.12 336.734 210.204 339.274C211.199 369.322 214.353 399.241 215.907 429.251C216.182 434.627 215.149 436.623 212.21 436.654C209.377 436.677 207.754 434.337 207.463 429.526C206.354 410.965 205.289 392.396 204.187 373.834C204.08 371.991 203.866 370.148 203.705 368.29V368.297Z" fill="#292929"/>
<path d="M252.902 426.782C253.308 425.596 253.721 423.99 254.387 422.491C265.234 398.171 277.345 374.501 290.656 351.435C294.798 344.269 298.809 337.026 302.904 329.837C304.229 327.512 305.545 325.157 307.666 323.428C309.105 322.258 310.575 320.43 312.641 322.013C314.746 323.627 313.422 325.501 312.419 327.099C307.612 334.762 303.096 342.586 298.885 350.586C285.834 375.35 272.154 399.792 260.098 425.076C259.493 426.338 258.766 427.539 258.069 428.755C257.403 429.917 256.531 430.927 255.038 430.529C253.415 430.101 253.101 428.678 252.918 426.789L252.902 426.782Z" fill="#292929"/>
<path d="M485.344 381.529C485.344 378.86 485.199 376.183 485.39 373.522C485.536 371.419 486.24 369.361 488.889 369.3C491.698 369.239 492.647 371.312 492.793 373.583C493.841 389.483 491.797 404.603 481.081 417.367C474.237 425.52 466.375 432.525 456.998 437.657C454.434 439.056 451.104 441.45 448.869 437.947C446.48 434.208 450.507 432.647 452.796 430.988C460.121 425.665 467.172 420.074 473.426 413.49C481.961 404.503 485.964 393.911 485.344 381.529Z" fill="#292929"/>
<path d="M224.082 266.704C224.901 260.425 227.757 253.572 229.938 246.552C231.707 240.846 233.804 235.24 235.856 229.627C236.46 227.967 237.318 226.369 238.267 224.877C239.285 223.294 240.831 222.094 242.776 222.889C244.988 223.791 244.437 225.872 243.947 227.547C241.183 236.938 238.297 246.299 235.519 255.691C235.036 257.32 233.643 259.362 234.906 260.608C236.024 261.71 237.953 260.088 239.553 259.813C242.684 259.27 245.792 258.605 248.93 258.054C250.453 257.786 251.954 258 253.454 258.459C255.207 258.995 256.547 259.996 256.616 261.84C256.692 263.989 255.001 264.914 253.194 265.342C251.464 265.755 249.68 266.069 247.912 266.13C242.799 266.306 238.16 267.813 233.934 270.665C233.092 271.231 232.219 271.782 231.316 272.241C229.51 273.158 227.711 274.306 225.59 272.983C223.546 271.713 224.013 269.709 224.082 266.704Z" fill="#292929"/>
<path d="M352.777 244.402C352.922 250.842 352.937 256.685 352.057 262.497C351.169 268.378 348.452 269.908 343.062 267.484C337.398 264.937 331.902 261.97 325.54 261.289C323.764 261.098 321.965 260.31 322.088 257.962C322.226 255.476 324.078 254.436 326.13 254.046C330.424 253.228 334.451 254.551 338.355 256.18C344.731 258.834 344.846 258.849 344.609 251.752C344.318 242.988 343.82 234.231 343.43 225.466C343.246 221.275 344.678 219.05 347.694 219.21C351.422 219.409 351.904 222.178 352.057 225.183C352.394 231.783 352.96 238.376 352.761 244.402H352.777Z" fill="#292929"/>
<path d="M338.2 322.885C335.191 322.877 333.89 320.69 335.299 318.227C336.516 316.086 338.621 315.122 340.856 314.495C355.684 310.342 370.863 309.08 386.181 309.042C386.816 309.042 387.467 309.088 388.072 309.256C389.633 309.669 391.026 310.403 390.958 312.285C390.889 314.059 389.48 314.464 388.018 314.678C380.218 315.826 372.417 316.95 364.625 318.135C356.212 319.412 347.7 320.131 339.516 322.678C339.034 322.831 338.514 322.839 338.2 322.885Z" fill="#292929"/>
<path d="M13.8535 146.739C9.94186 146.387 6.72679 146.387 3.66482 145.385C1.66689 144.728 -0.292774 143.84 0.0363878 141.21C0.36555 138.556 2.1568 137.6 4.65231 137.737C9.36009 137.997 14.0832 137.623 18.7833 138.296C21.2712 138.655 23.0394 139.756 23.1313 142.257C23.2308 144.934 21.1027 145.867 18.8292 146.227C16.9461 146.525 15.04 146.624 13.8612 146.739H13.8535Z" fill="#292929"/>
<path d="M14.7034 168.275C12.4835 168.16 10.4549 167.855 9.72768 165.445C8.96984 162.929 10.2099 161.193 12.3457 160.184C15.6832 158.593 19.1585 157.331 22.9554 157.614C24.9916 157.767 26.7369 158.593 27.3493 160.666C28.023 162.945 26.4154 164.245 24.739 165.224C21.6158 167.036 18.1634 167.855 14.7034 168.275Z" fill="#292929"/>
<path d="M26.0588 123.153C23.303 122.266 20.0956 120.629 17.9216 117.746C16.1609 115.421 17.9445 112.484 21.0371 112.461C24.8646 112.431 27.7811 114.534 30.1159 117.333C31.1569 118.58 30.9503 120.239 30.0699 121.639C29.3351 122.801 28.2021 123.321 26.0588 123.145V123.153Z" fill="#292929"/>
<path d="M287.328 142.946C283.983 142.686 280.408 142.418 277.438 140.109C275.777 138.824 274.873 137.118 276.037 135.122C277.147 133.226 278.923 132.744 280.974 133.746C288.461 137.394 294.769 134.671 300.724 130.098C301.329 129.639 301.857 129.08 302.424 128.568C304.222 126.947 306.335 124.622 308.624 126.732C311.181 129.096 309.106 131.742 307.369 133.746C302.171 139.749 295.404 142.541 287.328 142.938V142.946Z" fill="#292929"/>
<path d="M299.455 109.341C299.37 112.936 291.922 119.658 288.24 119.452C285.905 119.322 285.071 117.991 285.691 115.857C285.921 115.062 286.579 114.328 287.191 113.724C290.483 110.506 290.799 107.011 288.141 103.238C285.882 100.019 283.594 96.8218 281.45 93.5256C280.509 92.0725 280.103 90.3364 281.841 89.128C283.364 88.065 284.979 88.7839 285.951 89.954C290.085 94.9175 294.624 99.575 298.146 105.028C298.965 106.297 299.493 107.766 299.455 109.341Z" fill="#292929"/>
<path d="M255.99 73.0283C257.337 73.2042 258.593 73.4872 259.144 74.8791C259.695 76.2787 259.726 77.7624 258.516 78.7642C254.52 82.091 250.134 84.9284 246.812 89.0583C245.863 90.236 244.202 89.9684 243.007 88.9053C241.461 87.5287 241.369 85.7085 242.127 83.9954C243.949 79.8655 247.302 77.1505 251.053 74.8409C252.599 73.8925 254.237 73.2654 255.99 73.0283Z" fill="#292929"/>
<path d="M299.723 70.972C297.434 70.972 295.13 71.1173 292.856 70.9185C291.463 70.7961 290.131 70.1384 290.016 68.3488C289.909 66.6739 290.843 65.6032 292.267 65.1979C297.763 63.6224 303.313 63.7448 308.847 64.999C310.233 65.3126 311.098 66.3221 311.121 67.7293C311.144 69.1824 310.103 69.9166 308.809 70.4061C305.839 71.5303 302.754 70.9644 299.723 70.972Z" fill="#292929"/>
<path d="M309.139 95.2769C308.924 97.0665 307.883 98.6802 305.426 98.8026C302.624 98.9479 299.409 94.3515 299.225 90.1911C299.111 87.5143 300.473 86.0995 302.992 85.8624C305.878 85.5947 309.085 90.3364 309.139 95.2693V95.2769Z" fill="#292929"/>
<path d="M268.717 105.946C268.794 108.087 268.182 109.433 266.543 110.022C264.99 110.58 263.466 110.267 262.356 109.013C260.259 106.619 259.317 103.751 259.509 100.592C259.608 98.9556 260.557 97.7167 262.226 97.3113C263.872 96.906 265.334 97.4107 266.161 98.9021C267.454 101.235 268.304 103.751 268.717 105.953V105.946Z" fill="#292929"/>
</g>
<defs>
<clipPath id="clip0_96_328">
<rect width="534" height="450" fill="white"/>
</clipPath>
</defs>
</svg>
