<svg width="534" height="450" viewBox="0 0 534 450" fill="none" xmlns="http://www.w3.org/2000/svg">
<g clip-path="url(#clip0_96_381)">
<path d="M142.337 447.575C136.458 451.21 130.25 450.007 124.077 448.805C122.499 448.494 122.327 446.514 121.202 445.51C119.988 444.421 119.117 443.855 117.78 445.205C115.399 447.617 112.546 447.773 109.294 447.645C106.825 447.546 103.889 446.676 101.625 449.286C100.603 450.467 98.7855 449.371 97.3587 449.258C90.6706 448.734 84.353 447.454 81.8904 439.654C81.4034 438.112 80.1824 438.282 79.0574 438.402C77.2808 438.586 76.8281 438.077 76.9241 436.062C77.5895 421.578 79.4621 407.215 80.9026 392.81C81.2525 389.295 81.6298 385.787 81.9865 382.28C82.0688 381.481 82.4529 380.406 81.6915 379.974C80.3196 379.182 80.1138 376.516 78.1794 377.096C76.3959 377.634 76.636 379.741 76.4371 381.346C74.4272 398.036 72.1293 414.697 70.8534 431.472C70.7642 432.639 70.3047 433.664 69.4472 434.173C66.6142 435.864 65.5441 439.194 62.9307 441.146C62.135 440.58 63.4588 439.223 62.4779 438.848C61.4216 438.445 61.0649 439.668 60.4338 440.262C58.0055 442.532 56.1809 445.587 52.6688 446.471C51.9074 446.662 51.1871 447.299 50.4326 446.74C46.2688 443.621 41.083 447.044 36.8164 444.463C36.3431 444.18 35.2044 444.258 34.9094 444.618C32.8447 447.193 30.6497 445.573 29.2023 444.336C27.3297 442.737 25.6559 442.589 23.5569 443.169C16.5053 445.114 11.4155 441.076 6.32574 437.087C5.30367 436.288 5.70839 435.135 5.8593 434.138C7.53988 423.276 9.74866 412.54 12.5405 401.904C14.7698 393.425 15.9908 384.656 18.3162 376.212C20.4907 368.306 22.1164 360.293 24.0508 352.344C24.2909 351.354 26.8906 351.227 26.3419 349.049C25.7657 346.793 26.1292 344.551 27.0896 342.564C31.1093 334.283 31.0955 324.538 36.0824 316.575C37.0702 314.998 37.5435 312.904 38.1266 311.023C42.6607 296.448 51.1185 284.122 59.7616 272.071C66.1272 263.189 72.8221 254.286 82.3569 248.48C84.7508 247.023 86.9322 244.894 90.1493 246.973C91.7613 248.013 92.2689 246.195 92.4953 244.972C93.9563 237.044 99.0941 232.221 105.885 228.013C105.967 232.617 104.884 236.641 104.225 240.686C102.517 251.131 101.317 261.633 100.432 272.177C100.356 273.111 100.322 274.066 100.384 274.999C100.624 278.86 103.848 280.6 106.77 278.21C112.751 273.309 118.143 267.666 124.687 263.465C127.685 261.541 130.579 259.413 133.371 257.178C135.306 255.622 136.582 255.87 137.748 257.991C140.087 262.263 142.453 266.513 144.82 270.763C145.533 272.05 146.281 273.323 147.31 274.483C147.509 270.876 147.55 267.496 145.814 264.101C143.222 259.038 139.421 254.377 139.668 247.885C142.59 248.777 143.386 251.853 145.794 253.875C146.082 248.586 145.3 243.763 144.566 238.996C142.879 228.077 140.882 217.208 139.147 206.303C138.859 204.492 137.782 201.692 140.114 201.02C142.316 200.384 142.879 203.311 143.805 204.952C145.348 207.682 145.026 210.885 145.691 213.848C146.734 218.523 147.598 223.24 148.497 227.95C148.702 229.018 149.409 229.506 150.253 229.937C162.058 236.005 174.453 240.022 187.726 239.597C197.899 239.272 207.612 236.712 215.816 229.916C216.612 229.258 217.469 228.261 218.478 228.466C222.23 229.251 221.592 226.691 221.269 224.605C219.596 213.785 217.119 203.163 213.642 192.802C213.237 191.586 212.928 190.327 212.668 189.076C212.352 187.562 212.517 186.31 214.293 185.766C216.022 185.236 217.229 185.632 217.853 187.407C219.218 191.254 220.597 195.094 221.873 198.969C222.737 201.586 223.08 203.566 227.079 203.29C232.944 202.894 238.686 204.471 243.762 208.417C250.073 213.332 256.212 218.311 261.432 224.513C264.08 227.66 265.294 231.387 266.933 234.972C268.285 237.928 269.574 240.913 271.275 244.753C263.936 242.369 257.351 240.34 250.841 238.07C247.864 237.03 246.382 237.511 245.916 240.658C244.105 253.013 239.598 264.646 236.923 276.753C234.803 286.328 233.925 296.109 232.656 305.833C230.111 325.323 231.97 344.82 231.566 364.303C231.161 383.935 231.072 403.573 230.008 423.184C229.954 424.237 229.885 425.249 229.274 426.203C228.685 427.13 228.156 428.049 226.928 427.886C225.81 427.738 225.049 427.009 224.72 425.927C224.315 424.598 223.862 423.318 223.945 421.826C225.138 401.155 225.31 380.455 225.351 359.756C225.378 343.045 225.433 326.327 225.179 309.623C224.905 291.752 224.521 273.875 223.691 256.018C223.341 248.444 223.512 240.799 222.271 233.049C211.687 241.563 199.744 245.028 186.759 245.318C173.87 245.601 161.749 242.221 149.58 236.705C150.445 243.543 151.33 249.802 152.009 256.089C153.12 266.357 154.56 276.619 155.034 286.929C155.754 302.572 157.428 318.145 157.935 333.788C158.779 359.43 159.534 385.08 160.425 410.723C160.693 418.368 161.125 425.998 160.576 433.643C160.542 434.11 160.659 434.626 160.508 435.043C159.863 436.825 159.822 439.534 157.304 439.315C154.883 439.102 154.828 436.648 154.807 434.633C154.67 421.798 154.807 408.948 154.375 396.119C153.758 377.577 152.743 359.049 151.906 340.513C151.652 335.004 152.132 329.46 151.055 323.053C150.218 324.92 149.457 326.023 149.237 327.225C147.982 334.127 146.775 341.044 145.718 347.981C144.641 355.039 146.253 362.047 146.267 369.091C146.308 384.09 146.377 399.083 146.288 414.082C146.247 421.394 147.269 428.622 147.605 435.899C147.756 439.095 146.946 441.931 144.237 443.487C142.385 444.548 143.215 446.429 142.241 447.624C140.807 445.559 139.291 447.73 137.782 447.61C135.251 447.412 132.672 447.857 130.113 448.027C134.311 449.18 138.324 448.515 142.302 447.546L142.337 447.575ZM140.69 309.659C138.941 309.482 137.631 310.387 136.801 311.929C135.093 315.068 134.716 318.633 134.284 322.084C134.064 323.866 134.915 325.789 137 326.539C139.161 327.317 140.375 325.818 141.164 324.333C143.029 320.811 144.168 316.964 144.209 312.919C144.23 310.776 143.119 309.361 140.69 309.659ZM138.735 395.193C138.564 393.284 137.679 391.933 135.985 391.077C134.174 390.158 132.658 390.66 131.341 391.989C129.077 394.26 128.556 397.286 129.276 400.129C129.852 402.399 131.375 404.853 134.188 404.825C136.732 404.797 137.316 402.512 137.734 400.363C138.07 398.644 138.399 396.926 138.735 395.2V395.193ZM19.3246 378.249C20.0105 380.554 18.1036 382.216 18.0899 384.267C18.083 385.519 16.4641 387.428 18.3917 387.845C19.9556 388.185 20.0037 385.066 19.9008 384.713C19.2766 382.541 22.0409 380.194 19.3177 378.249H19.3246ZM16.0869 401.466C13.3019 404.662 12.4513 406.932 12.6914 410.249C15.0991 407.703 15.0168 404.358 16.0869 401.466ZM17.1501 391.763C16.5533 392.753 15.9085 393.531 15.5861 394.429C15.202 395.511 15.1265 396.728 15.7782 397.767C16.0251 398.163 16.567 398.128 16.9649 397.803C17.9595 396.982 18.2408 396.063 17.6097 394.797C17.2187 394.019 18.4191 393.071 17.1432 391.763H17.1501ZM86.7127 443.819C86.404 441.599 85.4025 439.774 83.6396 437.596C83.2898 440.976 84.9429 442.433 86.7127 443.819Z" fill="#292929"/>
<path d="M269.739 228.204C278.252 233.303 285.557 239.696 292.76 246.217C303.131 255.622 313.009 265.586 323.367 275.02C326.563 277.934 328.237 277.991 331.489 275.48C334.424 273.21 337.518 270.254 341.936 271.258C342.388 271.364 343.074 270.636 343.589 270.204C348.432 266.188 353.693 262.963 359.578 260.813C362.946 259.582 366.362 260.332 369.758 260.275C373.846 260.205 373.778 260.304 373.414 255.962C372.913 249.993 372.502 244.01 372.097 238.034C371.994 236.5 371.932 234.746 373.62 234.088C375.664 233.296 377.31 233.911 377.55 236.443C378.469 246.04 379.327 255.643 380.198 265.24C380.335 266.767 380.033 268.139 378.387 268.592C376.858 269.009 375.739 268.231 374.923 266.93C374.676 266.534 374.429 266.124 374.278 265.685C373.826 264.405 373.393 262.001 372.989 262.008C371.096 262.05 369.093 262.468 367.398 263.33C366.554 263.755 363.008 264.441 366.417 266.746C367.007 267.142 366.637 268.309 366.342 269.094C365.34 271.774 365.807 274.363 366.781 277.085C368.324 275.926 369.676 274.667 371.24 273.804C373.421 272.602 375.417 272.467 377.866 274.122C383.504 277.927 389.582 277.736 395.385 274.299C400.372 271.343 404.501 267.234 408.514 263.033C409.831 261.654 409.708 260.275 409.427 258.324C408.137 249.371 406.923 240.382 406.916 231.288C406.916 229.138 407.849 227.681 409.68 227.462C412.047 227.179 412.232 229.527 412.438 231.125C412.98 235.319 413.199 239.555 413.625 243.763C414.119 248.67 414.51 253.607 415.298 258.472C415.971 262.652 415.031 265.947 411.937 268.769C410.126 270.417 410.86 272.977 413.686 275.211C415.676 276.788 416.135 274.391 416.979 273.542C418.522 271.994 419.757 270.127 421.163 268.429C422.556 266.746 424.415 266.909 425.766 268.055C427.117 269.207 426.404 270.876 425.444 272.163C416.149 284.617 405.119 294.73 389.548 297.375C373.208 300.154 360.463 287.941 359.818 271.612C359.757 269.971 360.367 268.465 360.436 266.612C354.187 270.36 346.463 271.788 344.57 281.152C342.347 292.156 341.119 303.237 340.605 314.383C339.555 337.055 338.801 359.749 338.074 382.435C337.497 400.384 337.113 418.396 335.563 436.316C335.405 438.162 335.618 440.743 332.641 440.496C329.698 440.248 329.856 437.73 329.925 435.687C330.432 420.864 331.015 406.034 331.612 391.212C331.715 388.595 331.543 386.346 329.472 384.232C327.462 382.188 326.845 379.112 326.063 376.262C322.695 364.034 321.926 351.46 321.508 338.88C321.151 328.173 321.33 317.438 321.378 306.724C321.391 303.612 321.762 300.5 321.583 297.339C318.078 307.601 314.388 317.798 311.123 328.144C305.95 344.544 301.615 361.191 298.412 378.129C295.908 391.353 292.279 404.337 290.798 417.767C290.18 423.367 289.755 428.983 288.87 434.562C287.697 441.903 281.537 446.139 275.878 441.903C269.506 437.129 265.335 440.128 260.575 443.706C256.04 447.122 251.678 445.913 249.078 440.573C248.522 439.435 248.145 440.135 246.526 439.654C245.038 439.216 242.26 438.593 242.116 437.978C241.567 435.574 238.748 434.485 238.898 432.087C239.598 421.267 237.677 410.539 238.055 399.726C238.453 388.263 237.273 376.778 238.535 365.314C238.631 364.466 239.001 363.391 238.151 362.344C237.465 361.503 238.631 360.194 238.631 359.31C238.617 355.244 238.041 351.185 237.897 347.111C237.78 343.681 237.966 340.237 238.041 336.8C238.336 323.413 238.85 310.033 238.878 296.646C238.912 281.314 244.516 267.34 248.227 252.892C248.756 250.849 249.64 248.89 250.011 246.825C250.477 244.194 251.801 244.194 253.811 244.859C259.024 246.584 264.279 248.175 269.506 249.837C272.105 250.665 274.863 250.417 277.497 251.464C279.452 252.242 280.09 249.47 279.61 248.678C276.969 244.314 275.734 239.3 273.278 234.88C272.051 232.674 270.898 230.418 269.711 228.183L269.739 228.204ZM390.59 286.477C391.544 283.259 389.678 282.722 386.591 282.835C382.565 282.99 378.593 282.191 375.177 279.858C372.865 278.273 372.2 280.353 371.041 281.406C369.744 282.587 369.902 283.698 371.123 284.971C375.239 289.263 380.075 291.703 386.022 291.653C390.467 291.618 390.638 291.498 390.583 286.477H390.59ZM396.297 289.086C400.969 287.707 404.687 284.794 408.446 281.958C409.31 281.307 409.461 280.628 409.049 279.546C407.005 274.193 406.333 273.967 401.723 277.17C400.118 278.28 398.424 279.256 396.764 280.282C395.996 280.756 395.2 281.024 395.467 282.368C395.9 284.518 396.023 286.738 396.304 289.086H396.297Z" fill="#292929"/>
<path d="M462.205 273.718C464.139 275.451 463.755 276.907 462.438 278.64C460.476 281.228 458.727 284.001 457.06 286.801C456.306 288.074 454.543 289.814 456.326 291.037C457.835 292.07 460.174 292.07 461.677 290.302C462.87 288.894 463.769 287.232 464.859 285.726C466.588 283.336 468.516 281.214 471.527 280.507C472.967 280.168 473.941 280.564 474.689 281.865C475.56 283.378 474.092 283.59 473.502 284.29C469.73 288.725 466.08 293.258 463.57 298.604C463.138 299.53 462.225 300.924 463.446 301.772C464.338 302.395 465.443 301.489 466.225 300.874C470.066 297.861 473.235 294.135 476.466 290.471C477.152 289.693 477.797 288.809 478.627 288.237C479.669 287.515 480.787 287.756 481.775 288.619C482.777 289.488 482.097 290.309 481.761 291.136C479.944 295.606 477.282 299.594 474.97 303.781C474.298 304.997 472.7 306.496 474.216 307.805C475.595 308.993 477.33 307.882 478.599 306.928C480.952 305.167 482.392 302.564 483.936 300.096C484.368 299.403 484.759 298.682 485.212 298.003C486.481 296.108 487.578 293.3 490.425 295.033C492.997 296.603 490.939 298.788 490.295 300.627C489.369 303.279 488.23 305.853 487.311 308.512C486.803 309.976 485.637 311.814 487.544 312.918C489.499 314.049 491.962 313.108 492.675 311.44C495.076 305.867 499.857 300.683 496.118 293.526C499.877 293.3 501.97 295.528 503.575 298.038C506.778 303.045 509.591 308.314 512.732 313.363C518.268 322.288 523.961 331.099 529.497 340.024C531.027 342.492 532.323 345.123 533.551 347.768C534.374 349.543 534.127 351.304 532.275 352.329C528.804 354.26 525.278 356.07 520.991 354.918C521.485 363.298 522.109 371.614 522.438 379.945C522.829 389.662 523.694 399.386 522.219 409.095C521.663 412.759 520.161 416.104 518.625 419.342C515.819 425.262 510.407 427.27 504.501 427.751C501.846 427.97 500.358 425.849 500.193 423.211C499.727 415.58 499.226 407.943 499.061 400.305C498.691 382.484 496.4 364.903 493.34 347.4C491.927 339.296 490.672 331.17 489.348 323.052C488.971 320.732 488.593 318.766 485.863 317.712C482.742 316.503 483.806 313.158 483.703 310.068C480.705 312.302 477.941 314.572 474.134 314.106C470.669 313.681 469.572 312.019 469.263 306.171C468.118 305.895 467.418 306.871 466.519 307.26C460.387 309.947 456.793 307.274 457.767 300.443C458.123 297.932 457.712 297.055 455.174 296.567C452.992 296.143 452.67 297.253 452.025 298.696C447.793 308.201 446.003 318.384 444.082 328.539C441.805 340.569 441.256 352.789 440.145 365.695C443.149 360.165 443.952 354.267 447.553 349.691C449.748 351.424 449.103 353.418 448.486 355.427C443.849 370.426 439.109 385.383 434.959 400.538C431.556 412.964 428.394 425.474 423.764 437.51C423.51 438.161 423.339 438.91 422.907 439.42C421.946 440.544 420.629 441.272 419.271 440.431C417.796 439.512 417.741 437.85 418.215 436.308C419.662 431.605 421.267 426.952 422.673 422.235C425.232 413.699 427.708 405.142 430.171 396.578C430.507 395.411 431.152 394.117 429.67 393.113C425.582 390.348 424.971 385.737 424.278 381.395C421.576 364.422 422.145 347.421 423.929 330.385C425.417 316.164 428.257 302.296 433.196 288.923C434.451 285.528 436.125 282.296 437.634 279.001C439.177 275.635 441.935 273.28 444.617 270.571C440.021 267.848 435.734 265.211 431.138 263.146C428.881 262.127 426.446 261.519 424.642 259.489C423.421 258.117 421.528 258.209 419.792 258.231C418.763 258.245 417.94 257.7 417.741 256.703C417.508 255.543 418.674 255.614 419.312 255.26C423.153 253.174 426.906 254.228 430.493 255.869C437.058 258.881 443.533 262.085 449.261 266.689C451.669 268.626 454.193 269.029 457.465 268.188C467.939 265.493 477.81 268.124 487.208 273.11C490.377 274.793 493.265 276.893 495.673 279.637C496.201 280.238 496.825 280.882 497.038 281.617C497.579 283.435 497.847 285.514 496.009 286.624C494.04 287.819 492.894 285.832 491.804 284.644C484.073 276.2 474.353 273.103 463.398 273.258C463.186 273.258 462.973 273.414 462.164 273.725L462.205 273.718Z" fill="#292929"/>
<path d="M435.918 167.654C435.692 167.152 435.63 166.763 435.41 166.572C427.577 159.981 423.53 150.3 417.047 142.606C415.867 141.206 414.791 139.72 414.4 137.747C414.07 136.086 412.904 134.947 411.162 134.452C409.625 134.021 408.192 133.25 406.676 132.741C397.395 129.615 389.822 124.063 383.84 116.093C382.317 114.064 380.438 112.289 378.586 110.549C377.536 109.559 377.049 108.661 377.509 107.183C378.03 105.507 379.19 105.111 380.664 105.089C382.345 105.068 383.758 105.698 385.027 106.822C388.422 109.806 391.715 112.897 394.589 116.426C398.081 120.704 402.368 124.028 406.724 127.274C407.54 127.882 408.528 128.816 409.399 127.698C410.147 126.736 410.743 125.464 409.893 124.127C409.769 123.929 409.632 123.724 409.461 123.582C401.936 117.571 396.325 109.509 388.992 103.272C385.932 100.669 382.386 102.43 379.114 101.808C378.14 101.624 376.617 102.869 376.322 101.051C376.062 99.4531 376.85 98.1943 378.558 97.572C383.641 95.7333 388.402 96.6951 393.149 98.8874C401.819 102.89 408.123 109.934 414.804 116.511C415.874 117.564 416.931 118.66 418.131 119.537C419.167 120.287 420.477 120.824 421.533 119.58C422.652 118.257 422.178 117.027 421.06 115.874C418.474 113.215 415.929 110.506 413.377 107.805C412.849 107.246 411.676 106.956 411.964 106.044C412.307 104.969 413.494 104.715 414.509 104.672C423.118 104.333 431.055 106.051 437.592 112.416C441.508 116.221 443.724 121.171 446.406 125.789C449.198 130.591 452.648 134.784 456.449 138.702C459.535 141.884 461.387 145.562 462.224 150.045C463.96 159.345 467.616 167.075 476.602 171.813C486.336 176.947 489.278 185.85 486.006 195.518C484.236 200.73 480.505 203.799 475.641 205.454C473.419 206.21 471.944 207.406 470.833 209.534C466.628 217.575 460.935 223.636 451.407 224.314C450.748 224.364 450.028 224.633 449.486 225.029C442.4 230.198 434.244 229.937 426.157 229.958C423.838 229.958 421.136 230.439 420.655 226.86C420.642 226.754 420.546 226.641 420.456 226.577C414.077 221.811 415.14 216.521 418.735 210.355C422.158 204.471 423.701 197.413 429.278 192.908C430.423 191.982 429.175 191.579 428.873 190.971C427.851 188.92 427.721 187.47 430.615 187.152C432.982 186.89 435.335 186.345 437.53 185.263C438.895 184.585 440.171 183.785 440.946 182.428C442.215 180.207 442.853 177.612 441.865 175.32C441.021 173.362 438.641 174.125 436.878 173.97C435.74 173.871 434.587 173.934 433.455 173.807C432.022 173.637 430.3 173.743 430.286 171.495C430.273 169.302 431.157 167.909 433.476 167.838C434.237 167.817 434.999 167.725 435.925 167.647L435.918 167.654Z" fill="#292929"/>
<path d="M136.027 21.0964C137.735 22.1076 139.463 21.8036 141.123 21.7682C145.596 21.6621 150.027 22.0086 154.41 22.9068C159.774 24.01 160.604 23.4937 161.579 18.2676C162.505 13.2819 169.529 7.77292 175.208 7.83656C177.294 7.85778 178.844 7.36982 180.415 5.89886C182.781 3.68536 185.443 1.80424 188.626 0.955609C191.404 0.220131 194.113 0.708092 195.657 3.1974C196.933 5.24825 198.373 5.53112 200.246 5.04316C206.776 3.35298 212.744 4.08139 218.554 8.02043C221.147 9.78133 224.782 8.43767 227.958 9.03171C237.184 10.7643 241.033 14.3073 242.809 23.6847C243.056 24.993 243.824 25.3466 244.723 25.8558C251.027 29.4553 254.244 35.1058 254.909 42.3898C255.294 46.6047 253.195 49.0303 249.182 48.5848C241.472 47.7291 233.782 46.9795 226.031 48.0474C223.747 48.3585 221.462 47.8635 219.322 46.9866C217.518 46.2511 216.503 44.8579 217.237 42.8142C217.607 41.7958 218.876 40.9755 217.271 39.9571C215.803 39.0236 214.452 38.5781 212.538 39.0165C202.4 41.3432 192.103 43.8042 183.145 35.6362C181.389 34.0309 179.948 33.8965 177.959 34.731C174.948 35.9898 171.978 37.8992 168.527 35.9615C167.862 35.5867 167.196 36.1454 166.668 36.5838C162.882 39.7662 158.307 40.0561 153.745 40.2966C150.967 40.4451 148.292 40.9189 145.85 42.312C142.571 44.1861 140.245 46.4067 139.957 50.9256C139.21 62.7569 136.761 74.4397 136.836 86.3558C136.836 86.7094 136.829 87.0771 136.726 87.4025C136.281 88.7956 135.485 90.1251 134.264 90.6767C131.417 91.9568 130.553 96.0938 126.149 95.4361C120.49 94.5946 117.698 97.1263 116.813 102.183C115.832 107.784 118.219 112.069 123.282 113.809C125.95 114.728 128.701 114.396 131.438 114.481C133.139 114.537 135.375 114.177 135.485 117.041C135.581 119.622 133.818 119.954 131.884 120.308C120.84 122.309 112.876 117.055 111.072 106.504C109.961 99.9975 112.759 93.8167 118.501 90.9596C120.373 90.0261 120.332 89.1846 119.866 87.459C117.993 80.4225 115.53 73.5981 113.205 66.7172C110.338 58.245 110.303 49.8507 114.508 41.7817C116.662 37.6446 120.236 35.1624 124.516 33.8399C128.55 32.5953 132.583 31.287 136.85 31.0748C138.091 31.0112 139.168 30.3464 139.216 29.0098C139.258 27.7722 138.05 27.2701 137.104 27.0085C134.394 26.2659 131.623 26.57 128.968 27.2418C124.976 28.2531 121.059 29.5614 117.876 32.468C116.642 33.5924 115.023 34.0026 113.85 32.8923C112.512 31.6335 113.356 30.0777 114.344 28.8189C117.328 25.0142 121.457 23.423 125.923 22.638C127.747 22.3127 128.783 21.6833 129.641 19.7598C131.225 16.2238 134.257 13.9113 137.797 12.6101C143.106 10.6512 148.525 10.7148 153.93 12.3484C154.472 12.5111 155 12.7869 155.46 13.1193C156.544 13.8901 158.135 14.5336 157.641 16.2168C157.065 18.1686 155.384 17.8362 153.896 17.4685C149.465 16.3794 145.061 16.5774 140.691 17.7796C138.825 18.2959 137.063 19.0597 136.04 21.0893L136.027 21.0964ZM236.725 22.0511C235.456 19.8517 234.008 19.3001 232.444 18.9465C226.044 17.4897 220.029 18.5858 214.404 21.9804C213.21 22.7017 210.981 23.2533 211.509 24.8374C211.982 26.2589 214.109 25.2971 215.515 25.3395C215.735 25.3395 215.961 25.2617 216.18 25.1839C222.676 22.9563 229.268 21.3156 236.732 22.0511H236.725ZM211.667 10.1349C210.466 8.79127 209.472 8.69226 208.429 8.77712C202.983 9.20851 198.483 11.7827 194.443 15.3752C193.331 16.3653 192.385 17.8504 193.345 18.9677C193.791 19.484 196.048 19.9154 197.125 18.9677C201.384 15.2267 206.467 12.9 211.674 10.1349H211.667ZM192.344 6.59191C189.168 4.21575 186.245 4.79565 183.001 8.47303C182.37 9.18729 180.71 9.90863 182.006 11.2028C182.864 12.0656 184.105 12.4616 185.395 11.4857C187.645 9.78841 189.998 8.23259 192.344 6.58484V6.59191Z" fill="#292929"/>
<path d="M108.408 212.816C114.101 202.201 121.907 194.104 131.037 187.266C132.094 186.473 133.13 184.96 134.454 186.721C135.661 188.326 136.203 190.094 134.323 191.685C130.166 195.2 126.51 199.274 122.573 203.029C116.955 208.389 114.527 214.712 115.48 222.837C118.025 220.192 118.951 216.791 120.549 213.87C122.182 210.893 124.713 209.33 128.664 209.698C131.785 209.995 134.934 212.378 135.167 215.298C135.997 225.666 138.357 235.864 138.357 246.316C138.357 246.959 138.926 247.794 138.021 248.162C130.619 251.181 125.269 257.341 118.683 261.634C114.595 264.3 110.109 266.605 107.077 271.294C106.329 269.625 106.583 268.239 106.666 266.916C107.633 251.995 109.478 237.2 112.942 222.646C113.731 219.344 114.108 215.935 114.636 212.569C114.787 211.6 114.719 210.589 113.683 210.171C112.777 209.804 111.769 209.924 111.172 210.758C103.929 220.857 92.3154 224.676 82.8355 231.529C70.4472 240.482 58.5802 249.816 51.2474 263.748C44.4496 276.668 39.0031 290.268 33.879 304.001C18.8498 344.24 7.94309 385.752 -2.13357 427.519C-2.27076 428.092 -2.40109 428.665 -2.46969 429.245C-2.75093 431.734 -3.75242 433.848 -6.48252 433.346C-9.61733 432.766 -8.85592 429.938 -8.37575 427.901C-5.34384 415.009 -2.28448 402.124 1.01495 389.31C5.10324 373.419 9.60995 357.656 14.5282 342.013C19.6592 325.691 25.0096 309.454 31.1146 293.485C35.196 282.814 39.0099 271.959 44.6416 262.065C52.1117 248.932 61.9002 237.844 74.6247 229.739C82.6777 224.612 90.6005 219.252 98.6262 214.075C100.259 213.021 102.083 212.279 103.86 211.501C105.575 210.758 107.303 210.391 108.394 212.816H108.408Z" fill="#292929"/>
<path d="M364.7 232.121C364.906 237.369 363.801 239.08 359.116 239.985C352.435 241.279 345.919 240.869 340.239 236.449C337.968 234.681 335.629 235.247 333.42 235.997C326.527 238.337 320.387 237.927 314.749 232.51C312.595 230.438 309.179 230.035 306.895 227.694C301.956 222.638 301.284 214.993 305.722 209.47C310.112 204.003 313.939 198.402 316.107 191.429C316.985 188.594 317.506 186.281 317.115 183.389C316.375 177.943 319.681 172.809 325.141 170.412C326.431 169.846 327.494 169.485 327.61 167.611C327.734 165.518 329.401 164.669 331.308 164.768C333.544 164.889 333.53 166.664 333.564 168.382C333.763 179.089 334.298 189.768 337.001 200.192C340.568 213.953 354.143 225.417 367.924 226.287C372.252 226.563 376.581 226.718 380.895 225.778C382.295 225.474 384.497 224.731 384.764 227.157C384.984 229.208 384.449 231.06 381.677 231.69C376.107 232.949 370.579 232.751 364.714 232.107L364.7 232.121ZM328.845 190.864C328.324 185.991 327.823 181.578 328.008 177.13C328.036 176.465 328.139 175.624 327.247 175.419C326.492 175.242 325.957 175.808 325.491 176.31C323.385 178.573 321.78 181.225 322.116 184.414C322.493 188.028 325.374 189.421 328.845 190.878V190.864Z" fill="#292929"/>
<path d="M243.322 101.377C243.843 112.133 242.835 122.769 240.043 133.108C234.645 153.093 221.015 163.906 201.932 168.199C197.041 169.302 192.068 170.115 187.026 169.097C186.244 168.941 185.455 168.821 184.687 168.623C183.178 168.234 181.751 167.732 182.073 165.639C182.368 163.694 183.72 163.227 185.332 163.291C190.806 163.496 196.259 163.786 201.671 162.379C221.324 157.273 233.026 144.642 236.188 123.872C237.656 114.226 238.253 104.481 238.905 94.7502C239.014 93.0953 239.028 91.4476 239.858 89.9696C240.379 89.0361 240.997 87.9894 242.211 88.3925C243.192 88.7178 243.308 89.821 243.308 90.7828C243.329 94.3117 243.315 97.8406 243.315 101.369L243.322 101.377Z" fill="#292929"/>
<path d="M251.82 201.677C260.024 200.913 265.766 204.937 271.082 209.357C283.072 219.328 294.754 229.689 306.642 239.787C314.914 246.824 323.304 253.719 331.7 260.607C332.996 261.675 334.032 262.785 334.574 264.404C334.924 265.458 336.138 266.547 334.979 267.551C333.881 268.499 332.392 268.393 331.165 267.544C328.709 265.84 326.185 264.199 323.893 262.276C311.162 251.59 298.376 240.975 285.837 230.049C277.05 222.397 268.002 215.085 258.886 207.9C256.547 206.061 254.393 204.223 251.834 201.677H251.82Z" fill="#292929"/>
<path d="M346.71 110.52C339.095 111.072 334.349 114.65 331.049 120.527C330.247 121.955 329.554 123.441 328.772 124.876C328.429 125.498 327.928 126.184 327.174 125.866C326.741 125.689 326.323 125.018 326.234 124.508C325.658 121.241 325.356 118.094 327.434 115.053C332.99 106.914 340.735 103.526 349.982 105.435C351.587 105.768 353.048 106.291 353.981 107.854C352.78 109.113 351.086 109.212 349.522 110.018C352.307 111.411 352.506 113.568 351.566 116.241C349.11 123.214 345.633 129.48 340.028 134.282C338.993 135.173 337.765 135.859 336.557 136.502C334.747 137.471 332.469 138.065 331.186 136.326C329.917 134.6 329.959 132.167 331.406 130.138C336.084 123.554 339.301 115.817 346.703 110.513L346.71 110.52Z" fill="#292929"/>
<path d="M178.346 228.529C173.023 228.501 163.729 226.478 155.641 220.1C154.009 218.812 152.692 217.497 153.919 215.503C155.058 213.65 157.054 214.159 158.502 215.121C164.565 219.145 171.144 221.415 178.298 222.285C186.777 223.31 194.624 221.846 201.799 216.96C202.746 216.316 203.733 215.658 204.79 215.284C206.498 214.69 208.364 214.605 209.262 216.571C210.175 218.579 208.837 219.746 207.273 220.821C198.863 226.613 193.122 228.466 178.346 228.522V228.529Z" fill="#292929"/>
<path d="M140.284 197.667C139.975 187.865 140.352 177.901 140.62 167.937C140.805 161.119 140.798 154.288 140.887 147.471C140.901 146.41 140.791 145.321 140.997 144.302C141.34 142.605 141.614 140.59 143.954 140.703C146.327 140.823 146.409 142.69 146.402 144.557C146.341 160.2 146.581 175.843 146.066 191.493C145.922 195.8 144.091 197.299 140.284 197.674V197.667Z" fill="#292929"/>
<path d="M238.624 53.0127C246.225 52.1923 247.802 54.8797 247.096 62.5739C246.568 68.3163 246.458 74.3627 242.774 79.3413C240.929 81.8306 239.502 81.8519 238.549 78.8958C237.41 75.3457 236.903 71.5835 235.963 67.9627C235.023 64.3418 233.919 60.7635 232.835 57.178C231.669 53.3026 231.833 53.0551 235.887 53.0197C236.8 53.0127 237.712 53.0197 238.624 53.0197V53.0127Z" fill="#292929"/>
<path d="M196.524 130.774C188.698 130.852 183.464 128.844 178.834 125.096C177.757 124.226 176.796 123.236 176.097 121.984C175.225 120.428 174.738 118.887 176.289 117.557C177.887 116.185 179.403 117.062 180.521 118.293C183.587 121.68 187.291 123.83 191.668 124.671C197.389 125.775 202.622 124.792 206.546 119.962C207.877 118.321 209.42 118.236 211.115 118.491C213.522 118.851 214.044 120.4 212.576 122.458C208.117 128.724 201.738 130.576 196.531 130.782L196.524 130.774Z" fill="#292929"/>
<path d="M371.445 113.236C373.675 113.321 375.293 114.672 376.713 116.199C379.546 119.255 382.173 122.515 385.048 125.527C387.695 128.292 390.611 130.775 394.383 131.793C395.989 132.224 396.812 133.073 396.38 134.799C395.92 136.644 395.001 138.073 392.861 137.804C390.672 137.528 388.772 136.482 386.886 135.336C381.117 131.807 376.549 126.864 371.966 121.956C370.718 120.619 368.811 119.99 368.159 118.024C367.165 115.047 368.42 113.173 371.438 113.243L371.445 113.236Z" fill="#292929"/>
<path d="M264.82 224.095C258.331 218.416 252.782 211.924 246.299 206.387C239.968 200.977 233.335 196.034 226.736 190.999C225.858 190.327 223.368 190.086 224.788 187.944C226.043 186.048 227.882 185.108 230.111 186.48C234.823 189.372 239.262 192.646 243.336 196.444C250.257 202.894 255.45 210.779 260.807 218.537C262.104 220.418 263.483 222.249 264.827 224.102L264.82 224.095Z" fill="#292929"/>
<path d="M371.23 200.729C367.135 200.376 363.136 200.036 360.104 196.826C358.698 195.341 357.991 193.629 359.521 191.847C360.913 190.22 362.47 190.956 363.767 192.059C369.954 197.314 378.336 194.393 382.679 189.931C385.861 186.656 388.976 185.68 390.238 187.858C392.241 191.31 389.113 192.88 387.137 194.584C382.535 198.572 377.164 200.581 371.237 200.729H371.23Z" fill="#292929"/>
<path d="M364.335 115.35C364.356 123.242 355.555 136.085 348.805 138.779C347.522 139.288 346.116 139.543 345.396 138.334C344.436 136.714 344.669 134.642 346.157 133.539C352.516 128.822 355.575 121.948 358.052 114.692C358.649 112.939 359.273 111.687 361.324 112.04C363.519 112.422 364.287 113.943 364.342 115.35H364.335Z" fill="#292929"/>
<path d="M204.681 184.196C204.681 180.2 204.653 176.197 204.695 172.202C204.715 170.618 204.9 169.055 207.02 169.034C209.112 169.012 210.175 170.002 210.237 172.209C210.45 180.32 210.731 188.432 210.909 196.543C210.95 198.339 210.779 200.178 208.323 200.277C205.696 200.383 205.381 198.559 205.36 196.543C205.326 192.434 205.346 188.319 205.346 184.21C205.127 184.21 204.9 184.21 204.681 184.21V184.196Z" fill="#292929"/>
<path d="M207.471 102.989C207.279 105.641 206.593 108.081 204.363 109.714C202.937 110.761 201.249 111.037 199.987 109.714C198.752 108.42 198.691 106.603 200.062 105.294C201.688 103.746 201.153 102.593 200.001 101.101C197.264 97.5364 196.338 93.3357 196.372 88.8663C196.386 87.3246 196.88 85.8537 198.512 85.783C200.172 85.7052 201.661 86.4265 201.839 88.541C202.189 92.7063 202.895 96.6595 206.572 99.3469C207.629 100.125 207.615 101.638 207.464 102.982L207.471 102.989Z" fill="#292929"/>
<path d="M363.665 182.52C361.421 182.619 359.693 181.544 358.739 179.472C357.717 177.244 358.177 174.974 359.768 173.234C362.203 170.575 365.256 168.659 368.233 166.707C369.481 165.887 370.723 166.177 371.526 167.436C372.404 168.815 372.664 170.413 371.217 171.544C369.68 172.739 368.013 173.8 366.285 174.663C364.357 175.625 363.349 176.53 365.572 178.248C366.621 179.062 366.93 180.073 366.347 181.332C365.805 182.513 364.796 182.576 363.671 182.52H363.665Z" fill="#292929"/>
<path d="M253.611 96.6808C253.481 101.072 252.487 104.34 249.859 106.935C248.899 107.883 247.925 108.59 246.546 107.748C245.291 106.985 245.901 105.881 246.1 104.934C246.361 103.689 246.738 102.451 247.184 101.263C248.288 98.3427 248.364 95.5776 246.334 92.9963C245.229 91.589 244.639 89.9554 246.292 88.6825C247.87 87.4661 249.523 87.9399 250.888 89.3755C253.015 91.6244 253.769 94.3612 253.611 96.6808Z" fill="#292929"/>
<path d="M397.132 162.527C397.201 165.809 393.983 169.889 391.336 169.762C389.099 169.656 388.173 168.05 387.968 166.035C387.68 163.157 390.835 158.206 392.79 158.489C395.006 158.807 397.022 159.656 397.132 162.527Z" fill="#292929"/>
<path d="M177.425 84.7365C177.397 87.8482 175.545 89.7788 172.561 89.8424C169.838 89.899 168.562 88.322 168.521 85.7195C168.459 82.2967 170.483 79.5811 172.884 79.5599C175.922 79.5316 177.466 81.2925 177.431 84.7365H177.425Z" fill="#292929"/>
<path d="M351.312 166.806C352.183 164.96 351.586 161.721 355.201 161.912C358.363 162.082 359.982 164.02 359.776 167.238C359.591 170.264 356.731 173.532 354.398 173.001C351.325 172.308 351.572 169.479 351.305 166.806H351.312Z" fill="#292929"/>
<path d="M219.913 83.4845C219.763 87.9256 218.576 89.5239 215.757 89.2763C212.841 89.0218 211.977 87.0346 212.196 84.3685C212.395 81.9286 212.8 79.7293 216.079 79.8707C218.747 79.9839 220.195 80.9244 219.913 83.4845Z" fill="#292929"/>
<path d="M367.074 99.1341C368.748 99.0705 370.086 99.3746 371.327 99.9828C372.315 100.464 373.529 100.874 373.008 102.522C372.576 103.879 371.938 104.799 370.374 104.721C369.009 104.65 367.644 104.686 366.279 104.728C364.632 104.785 362.705 104.806 362.513 102.748C362.307 100.563 364.022 99.5019 365.998 99.1412C366.437 99.0634 366.903 99.1271 367.081 99.1271L367.074 99.1341Z" fill="#292929"/>
<path d="M217.203 67.8409C216.153 67.7065 215.015 67.6216 213.897 67.4024C212.751 67.1761 211.537 66.7659 211.359 65.4011C211.153 63.8452 212.388 63.1522 213.526 62.5794C214.816 61.9358 216.263 62.0278 217.56 62.3248C219.412 62.7491 221.854 63.23 221.682 65.7193C221.504 68.3713 218.966 67.4943 217.203 67.8338V67.8409Z" fill="#292929"/>
<path d="M393.25 150.01C392.777 149.975 391.727 150.038 390.739 149.791C389.457 149.473 387.762 149.253 387.961 147.344C388.126 145.767 389.491 145.003 390.897 144.826C393.236 144.537 395.363 145.534 397.441 146.474C398.374 146.899 398.683 147.91 398.45 148.865C398.23 149.763 397.393 150.003 396.536 150.003C395.623 150.003 394.711 150.003 393.25 150.003V150.01Z" fill="#292929"/>
<path d="M169.165 67.8912C167.635 67.1132 164.754 68.1882 164.83 65.2321C164.891 62.7216 167.388 62.4812 169.24 62.3609C171.243 62.2407 173.5 62.9125 173.479 65.3736C173.459 67.9902 170.887 67.3537 169.165 67.8912Z" fill="#292929"/>
<path d="M350.879 145.498C352.526 145.618 354.138 146.276 354.083 147.987C354 150.547 351.497 150.752 349.761 151.113C348.218 151.438 346.75 150.265 346.853 148.489C346.99 146.028 349.295 146.156 350.886 145.498H350.879Z" fill="#292929"/>
</g>
<defs>
<clipPath id="clip0_96_381">
<rect width="534" height="450" fill="white"/>
</clipPath>
</defs>
</svg>
