<svg width="818" height="417" viewBox="0 0 818 417" fill="none" xmlns="http://www.w3.org/2000/svg">
<g clip-path="url(#clip0_96_562)">
<path d="M306.459 161.645C307.782 163.595 306.986 165.108 305.687 166.768C300.755 173.075 295.953 179.482 291.091 185.843C288.797 188.848 287 192.097 285.333 196.18C289.347 195.247 291.366 192.793 293.476 190.538C297.712 186.027 297.681 185.996 303.209 188.366C303.905 188.665 304.624 188.925 305.343 189.177C306.084 189.429 306.856 189.643 307.376 188.802C308.042 187.724 307.223 187.166 306.512 186.631C304.272 184.949 301.948 183.351 300.373 180.965C299.761 180.04 298.828 179.023 299.578 177.846C300.388 176.562 301.65 177.319 302.712 177.525C306.268 178.213 308.21 181.111 310.404 183.504C312.224 185.484 313.096 185.071 314.273 183.007C316.781 178.626 318.249 173.939 318.738 168.939C318.876 167.547 318.807 166.133 319.533 164.856C322.171 160.2 324.335 160.361 328.135 165.934C328.433 162.96 328.64 160.361 328.976 157.776C329.083 156.958 329.03 155.873 330.146 155.59C331.293 155.299 332.103 156.003 332.784 156.775C334.221 158.419 334.397 160.521 334.443 162.532C334.642 170.552 334.726 178.58 334.817 186.608C334.84 188.405 334.947 190.484 332.378 190.538C330.031 190.591 329.649 188.703 329.366 186.853C328.601 181.875 328.54 176.837 327.753 171.691C326.965 173.205 326.162 174.711 325.398 176.233C324.281 178.465 322.974 180.438 320.176 180.728C318.883 180.866 318.318 181.569 318.952 182.823C319.388 183.672 319.151 185.469 321.055 184.536C322.653 183.756 323.02 184.811 323.402 186.012C323.937 187.709 324.381 189.46 325.161 191.042C327.378 195.576 332.394 195.852 335.177 191.669C337.234 188.573 338.61 185.148 339.994 181.73C340.567 180.308 341.194 178.939 342.395 177.892C343.855 176.615 345.132 175.774 345.843 178.519C346.286 180.224 347.854 180.751 349.192 181.409C354.414 183.985 358.359 187.9 360.898 193.061C372.137 215.883 382.956 238.896 393.071 262.231C394.731 266.054 396.994 270.228 395.816 274.303C394.624 278.424 395.663 280.397 398.538 283.317C401.337 286.162 402.285 290.749 405.886 293.31C406.681 293.876 406.681 294.862 406.115 295.726C405.488 296.674 404.594 297.133 403.493 296.781C396.634 294.633 389.715 294.755 382.749 296.139C381.748 296.338 380.173 295.459 379.997 297.24C379.813 299.121 379.844 301.055 380.089 302.928C380.165 303.517 381.213 303.097 381.748 302.852C398.057 295.581 414.472 297.141 430.964 302.141C437.532 304.129 444.192 305.819 450.752 307.852C456.983 309.779 460.294 314.588 459.812 321.11C459.698 322.662 460.095 322.868 461.296 322.876C463.077 322.891 464.866 322.838 466.64 322.96C467.978 323.059 469.14 323.587 469.247 325.208C469.347 326.775 468.483 327.609 467.045 327.8C463.941 328.22 460.737 329.206 458.688 325.414C457.412 323.044 455.37 324.061 454.445 325.582C453.642 326.905 452.923 327.433 451.539 327.364C437.509 326.691 423.624 329.512 409.594 329.023C401.436 328.732 393.286 328.717 385.655 325.193C384.722 324.764 383.453 323.923 382.734 325.575C381.671 328.029 379.561 328.228 377.313 328.22C357.312 328.144 337.31 328.182 317.316 328.977C314.548 329.084 311.842 328.893 311.001 325.468C310.588 323.793 309.479 324.566 308.6 324.803C302.751 326.347 298.561 323.098 294.501 319.787C292.964 318.533 292.52 316.538 292.964 314.527C294.118 309.313 295.288 304.098 296.496 298.899C297.039 296.56 298.415 295.145 300.939 294.862C303.653 294.557 305.205 291.254 308.317 292.171C308.531 290.68 307.506 290.328 306.749 290.153C296.313 287.698 286.916 282.209 276.434 279.869C259.001 275.978 241.415 273.332 223.509 273.233C221.23 273.218 218.937 273.5 216.666 273.753C215.526 273.875 214.227 274.15 214.295 275.672C214.357 276.964 215.312 277.721 216.543 277.912C218.294 278.187 220.06 278.394 221.827 278.531C237.684 279.739 253.588 280.496 269.308 283.165C270.561 283.379 271.8 283.669 273.031 283.998C275.394 284.625 277.06 285.611 274.591 288.058C273.199 289.442 274.025 290.076 275.18 290.994C280.035 294.847 280.708 297.34 278.59 303.257C277.993 304.932 276.938 306.499 276.625 308.212C275.516 314.221 271.754 316.347 265.974 317.386C249.795 320.299 233.609 323.036 217.117 322.777C208.217 322.639 199.317 321.79 190.425 321.27C189.538 321.217 188.636 321.102 187.757 321.163C186.908 321.224 185.86 321.202 185.715 322.417C185.585 323.511 186.319 324.145 187.214 324.321C190.203 324.917 193.193 325.651 196.221 325.873C213.263 327.135 230.337 327.104 247.402 326.378C260.63 325.812 273.842 324.925 286.855 322.257C288.407 321.935 290.15 321.981 290.678 323.839C291.297 326.026 289.699 327.112 287.933 327.723C282.963 329.436 277.733 329.864 272.565 330.453C254.933 332.464 237.233 332.808 219.525 331.951C213.454 331.661 207.506 329.497 201.328 330.552C189.217 332.624 177.098 333.771 164.888 331.378C163.053 331.019 162.005 331.095 162.227 333.756C162.793 340.415 160.767 346.868 159.933 353.42C158.664 363.428 157.25 373.444 161.914 383.039C162.969 385.203 164.314 387.229 165.377 389.393C166.088 390.838 166.218 392.359 164.628 393.476C163.129 394.523 161.929 393.751 160.889 392.757C154.78 386.954 150.598 380.233 150.391 371.464C150.139 360.814 151.974 350.408 153.893 340.025C154.451 336.997 153.702 333.542 156.355 331.049C156.531 330.881 156.546 330.223 156.378 330.055C155.002 328.694 153.22 328.136 151.469 328.763C149.741 329.382 146.568 328.732 146.637 331.355C146.843 339.727 143.25 347.22 141.667 355.163C140.222 362.419 138.762 369.736 138.532 377.053C138.25 386.121 141.583 394.057 150.078 398.812C152.517 400.181 155.101 401.282 157.571 402.597C158.503 403.094 159.987 403.468 159.459 405.005C159.069 406.137 157.999 406.802 156.776 406.871C153.694 407.039 150.751 406.588 147.998 405.005C133.754 396.794 128.96 384.14 130.963 368.451C132.332 357.694 135.336 347.288 138.861 337.059C139.955 333.886 139.733 331.928 136.912 329.627C130.458 324.359 126.116 317.738 126.865 308.861C127.002 307.21 126.345 306.4 124.984 305.574C122.163 303.861 119.379 302.034 116.772 300.015C111.313 295.787 108.446 290.137 108.385 283.203C108.301 273.416 107.299 263.615 109.073 253.851C110.701 244.883 114.807 240.288 123.661 238.445C128.998 237.337 134.388 235.991 139.909 237.306C141.392 237.658 141.92 237.054 142.34 235.746C144.152 230.066 145.574 224.255 148.556 218.98C149.588 217.16 147.723 215.073 148.396 213.001C151.469 203.551 155.101 194.414 160.874 186.18C166.363 178.358 171.601 170.399 178.482 163.656C189.278 153.074 202.551 146.736 216.253 141.094C222.247 138.624 228.226 136.109 234.534 134.488C236.66 133.945 238.793 133.792 240.972 133.998C242.241 134.121 243.227 134.679 243.503 135.94C243.778 137.21 243.097 138.226 241.974 138.731C240.597 139.35 239.145 139.84 237.692 140.26C224.679 143.976 212.2 149.014 200.342 155.521C186.227 163.281 175.691 174.673 167.77 188.55C163.802 195.507 160.063 202.603 156.225 209.644C155.239 211.449 154.283 213.253 155.17 215.417C155.644 216.579 155.185 217.695 154.703 218.727C146.844 235.517 143.556 253.522 140.666 271.627C140.062 275.404 139.481 279.181 138.227 282.79C136.155 288.769 138.441 293.983 140.849 299.182C141.285 300.13 141.935 301.537 143.296 301.17C144.473 300.849 144.825 299.465 144.947 298.349C145.429 293.922 145.987 289.487 146.171 285.045C147.035 263.691 154.321 244.332 164.009 225.608C168.672 216.586 171.93 206.907 176.877 197.977C184.92 183.45 194.08 169.833 208.324 160.75C218.615 154.183 230.337 151.698 242.532 151.622C244.03 151.614 245.017 152.134 246.041 153.365C251.997 160.544 257.021 168.327 261.654 176.393C265.469 183.037 270.286 188.986 274.95 195.026C275.814 196.15 276.869 197.579 278.36 196.585C279.859 195.584 278.429 194.208 277.894 193.26C270.531 180.186 264.452 166.378 255.721 154.091C253.817 151.415 252.517 148.609 252.792 145.245C252.861 144.389 252.502 143.326 253.595 142.928C254.712 142.523 255.56 143.219 256.218 144.037C256.929 144.932 257.579 145.88 258.206 146.843C266.433 159.412 274.201 172.257 281.082 185.622C281.365 186.18 281.702 186.707 282.122 187.441C286.641 181.608 290.999 175.896 295.464 170.277C297.36 167.884 299.471 165.659 301.512 163.388C302.873 161.874 304.471 160.965 306.589 161.783L306.467 161.653L306.459 161.645ZM344.749 302.309C349.803 301.881 351.149 302.669 349.819 305.551C348.144 309.175 348.305 312.6 348.855 316.262C349.024 317.402 348.786 318.625 347.357 318.977C346.118 319.282 345.055 318.87 344.39 317.776C343.603 316.477 342.983 315.077 342.188 313.778C338.579 307.883 334.947 301.56 327.837 299.748C321.483 298.127 314.77 297.898 308.195 297.232C305.488 296.957 303.615 298.158 303.079 301.155C302.498 304.404 301.512 307.577 300.939 310.819C299.769 317.363 299.868 317.302 305.809 319.726C307.483 320.406 309.632 320.46 310.595 322.486C310.909 323.144 311.49 323.342 312.178 322.983C314.518 321.775 316.827 322.234 319.205 322.945C320.413 323.304 322.37 323.411 322.806 322.448C324.664 318.342 327.065 319.672 329.442 321.553C330.872 322.677 331.851 321.492 332.952 321.224C334.657 320.804 333.525 319.68 333.281 318.816C332.967 317.669 332.745 316.492 333.908 315.712C335.162 314.863 336.415 315.398 337.448 316.171C338.671 317.073 340.055 317.983 340.819 319.229C342.066 321.263 343.84 321.706 345.927 321.851C354.055 322.402 362.174 322.968 370.294 323.541C371.227 323.61 372.305 323.64 372.611 322.677C373.33 320.399 375.601 319.466 377.436 317.279C373.368 316.951 369.981 316.499 366.594 316.469C363.826 316.438 362.473 315.429 362.794 312.631C363.298 308.212 365.806 305.39 368.597 306.017C371.793 306.736 369.981 309.473 370.501 311.193C380.509 311.698 380.547 311.66 387.345 317.57C388.591 318.656 389.417 318.342 390.709 317.853C394.012 316.614 397.261 314.642 400.954 315.322C407.109 316.454 413.341 316.698 419.549 317.195C429.527 317.998 439.344 321.11 449.498 319.229C450.438 319.053 451.738 319.634 452.212 318.457C452.74 317.126 451.945 315.949 451.035 315.047C449.078 313.105 446.447 312.394 443.947 311.461C435.422 308.303 426.216 307.952 417.63 305.268C409.984 302.875 402.682 303.471 395.174 305.329C390.158 306.575 385.364 308.93 380.02 308.624C379.454 308.594 378.988 308.624 378.735 309.121C377.68 311.163 375.991 311.285 374.224 310.406C371.961 309.282 373.46 307.47 373.804 306.048C374.523 303.02 374.599 299.985 374.377 296.934C373.796 288.952 367.335 284.365 359.514 286.116C357.832 286.49 355.844 288.127 354.269 286.024C353.458 284.938 352.495 283.295 353.183 282.148C354.062 280.687 356.172 281.383 357.694 280.894C359.797 280.221 364.009 280.443 363.727 279.258C363.077 276.475 359.712 278.088 357.495 277.828C355.415 277.583 352.778 277.53 352.395 275.381C351.952 272.889 354.941 273.149 356.516 272.568C359.246 271.566 362.144 271.008 364.95 270.213C366.456 269.785 367.572 268.561 367.366 267.17C367.114 265.48 365.309 266.107 364.17 266.115C360.661 266.13 357.556 267.82 354.261 268.73C353.343 268.982 352.449 269.746 351.455 268.753C350.01 267.315 348.213 257.796 349.031 255.816C351.661 249.478 354.307 243.147 356.861 236.771C357.434 235.341 358.772 233.216 357.143 232.375C355.652 231.61 354.452 233.82 353.466 235.089C351.669 237.413 350.316 240.013 349.085 242.673C348.175 244.631 347.12 246.519 346.225 248.484C345.262 250.594 344.306 251.496 341.576 250.518C337.31 248.989 335.001 250.602 333.671 254.983C332.646 258.362 332.814 261.78 333.625 265.128C335.093 271.176 336.737 277.186 338.281 283.21C338.816 285.305 339.489 287.064 336.27 288.127C333.632 288.991 331.866 291.774 331.935 294.702C331.981 296.567 337.501 298.112 340.078 297.301C343.916 296.086 345.621 297.783 344.742 302.309H344.749ZM115.174 272.43C115.174 275.106 115.442 277.813 115.128 280.443C114.004 289.862 118.783 295.887 126.284 300.413C127.148 300.933 128.065 302.225 129.281 301.025C130.16 300.153 130.894 299.335 130.734 297.752C130.42 294.732 130.39 291.651 130.573 288.616C131.422 274.449 134.618 260.725 138.747 247.2C139.786 243.797 139.305 243.109 135.757 243.56C133.241 243.881 130.78 244.669 128.264 244.913C121.062 245.625 117.606 248.591 115.962 255.671C114.677 261.214 115.472 266.833 115.182 272.415L115.174 272.43ZM230.237 268.011C230.237 268.011 230.237 267.934 230.237 267.896C231.889 267.896 233.548 267.942 235.199 267.881C236.308 267.835 237.776 267.95 238.036 266.574C238.281 265.281 236.965 264.67 235.987 264.112C234.886 263.485 233.754 262.781 232.546 262.506C229.518 261.818 229.48 260.235 230.681 257.842C232.164 254.899 233.532 251.879 234.786 248.828C237.868 241.335 242.386 234.454 244.16 226.388C244.535 224.668 244.313 223.368 243.289 222.168C239.336 217.512 235.169 217.894 232.187 223.116C231.621 224.11 231.063 225.111 230.39 226.036C222.905 236.266 217.163 247.437 212.835 259.295C211.818 262.086 210.381 263.332 207.582 263.867C202.85 264.769 198.163 265.939 193.506 267.193C192.015 267.598 189.882 268.156 190.249 270.274C190.654 272.629 192.833 271.864 194.34 271.681C200.273 270.962 206.168 269.999 212.109 269.357C214.838 269.066 216.299 268.156 217.04 265.258C219.885 254.126 224.097 243.537 230.436 233.858C231.506 232.214 232.821 230.616 234.626 231.511C236.629 232.505 235.146 234.439 234.603 235.861C231.369 244.279 227.836 252.59 224.847 261.092C222.354 268.179 222.622 268.271 229.87 267.996C230 267.996 230.122 267.996 230.252 267.996L230.237 268.011ZM134.213 309.022C134.182 314.489 134.862 319.649 139.305 323.64C141.69 325.781 143.38 325.414 145.406 323.205C147.126 321.339 146.362 319.711 145.498 317.99C143.082 313.189 138.762 309.343 138.494 303.433C138.456 302.493 137.263 300.849 135.902 301.025C134.48 301.201 134.297 302.806 134.228 304.068C134.144 305.711 134.205 307.371 134.205 309.022H134.213ZM430.376 323.029C422.653 322.142 415.734 321.347 408.814 320.567C405.565 320.2 402.453 318.495 399.081 319.458C397.3 319.971 394.547 320.276 394.715 322.371C394.884 324.52 397.644 324.336 399.456 324.359C407.721 324.481 415.986 324.504 424.259 324.497C426.018 324.497 427.822 324.474 430.383 323.029H430.376ZM179.82 280.741C175.615 281.742 171.417 282.752 168.237 286.016C167.396 286.88 166.99 287.958 167.373 289.166C167.694 290.191 168.642 290.535 169.514 290.344C174.208 289.296 178.36 287.171 181.349 283.333C182.374 282.018 182.175 280.58 179.82 280.749V280.741Z" fill="#292929"/>
<path d="M548.929 326.239C544.18 325 539.983 325.015 535.869 324.465C522.887 322.729 509.904 321.001 496.944 319.098C494.735 318.777 491.065 318.509 491.615 315.535C492.227 312.232 495.522 314.159 497.747 314.35C518.674 316.185 539.264 320.665 560.237 322.164C566.071 322.584 571.889 323.265 577.723 323.762C579.917 323.945 581.554 323.823 583.304 321.498C585.621 318.417 589.857 317.4 594.077 315.634C587.571 314.686 581.729 313.883 575.903 312.966C573.77 312.63 571.683 312.01 569.779 310.932C568.877 310.42 567.929 309.831 568.02 308.654C568.12 307.293 569.312 306.842 570.375 306.444C571.751 305.924 573.12 306.314 574.496 306.643C591.761 310.733 608.842 310.084 625.701 304.548C628.591 303.6 631.344 302.247 634.172 301.115C635.426 300.611 636.711 300.481 637.651 301.681C638.676 302.988 637.804 304.189 637.055 305.137C634.838 307.92 631.733 309.495 628.476 310.634C622.107 312.867 615.677 315.091 608.872 315.29C603.168 315.458 598.696 317.301 595.828 322.913C604.04 321.277 612.236 321.002 620.433 320.833C636.099 320.505 651.75 319.832 667.371 318.532C671.423 318.196 675.521 318.295 679.597 318.371C691.043 318.57 695.141 325.925 689.498 336.109C689.093 336.843 688.879 337.378 689.185 338.181C690.377 341.369 688.688 342.562 685.82 343.105C681.768 343.87 677.685 343.602 673.625 343.472C670.934 343.38 669.993 344.114 670.383 346.867C671.844 357.051 670.789 367.204 669.512 377.312C669.137 380.324 669.16 384.636 664.771 384.277C660.306 383.91 661.743 379.728 661.835 376.906C662.149 366.852 662.99 356.814 662.424 346.737C662.325 344.894 662.424 343.464 659.84 343.801C640.381 346.331 620.754 346.882 601.226 348.595C576.744 350.743 552.201 352.257 527.596 351.936C523.269 351.882 518.949 351.469 514.629 351.179C512.809 351.056 512.045 351.232 512.297 353.602C513.65 366.424 513.413 379.284 512.901 392.144C512.848 393.459 512.412 394.606 511.663 395.692C510.623 397.198 509.132 397.167 507.572 397.121C505.699 397.068 506.005 395.485 505.508 394.407C503.52 390.087 503.986 385.622 504.177 381.043C504.498 373.16 504.185 365.247 504.208 357.349C504.208 355.56 504.07 354.161 501.937 353.58C500.324 353.144 499.743 352.02 501.646 351.056C504.246 349.734 502.113 348.855 501.272 347.455C499.788 355.33 494.153 357.624 487.333 358.121C490.545 366.08 490.499 374.184 491.317 382.113C492.295 391.601 492.877 401.128 493.603 410.639C493.802 413.208 494.161 416.159 490.827 416.878C487.287 417.635 485.797 415.081 485.116 412.122C484.543 409.653 483.984 407.137 483.839 404.622C483.052 390.645 482.302 376.677 480.613 362.77C480.269 359.941 479.397 358.496 476.155 358.771C461.444 360.009 446.703 360.927 431.992 362.227C417.779 363.488 403.542 364.589 389.29 364.765C371.567 364.987 353.951 366.906 336.266 367.609C330.914 367.823 325.569 368.16 320.233 367.594C318.252 367.388 317.702 367.831 317.641 369.995C317.281 382.725 316.303 395.409 314.024 407.963C313.818 409.087 313.573 410.218 313.206 411.296C312.648 412.925 312.487 415.127 310.117 415.066C307.724 415.004 306.631 413.2 306.103 411.082C305.033 406.801 305.415 402.443 305.828 398.161C306.699 389.292 307.839 380.462 308.274 371.547C308.389 369.268 307.67 368.924 305.858 368.894C282.431 368.534 259.15 365.094 235.662 365.713C222.671 366.05 209.681 365.277 196.798 363.496C194.236 363.144 193.227 363.962 192.569 366.355C189.496 377.457 188.769 388.925 187.156 400.248C186.942 401.755 186.743 403.284 186.315 404.744C185.719 406.816 184.595 408.651 182.11 408.399C179.48 408.131 178.096 406.388 177.905 403.758C177.568 399.147 178.172 394.591 179.006 390.087C180.55 381.738 181.139 373.183 184.082 365.124C184.809 363.137 184.197 362.663 182.186 362.38C174.609 361.294 172.927 359.337 173.134 351.546C173.263 346.431 172.384 340.926 177.186 337.042C177.759 336.576 177.614 336.369 176.467 334.427C179.579 337.44 183.433 336.407 187.057 336.629C213.397 338.227 239.798 336.69 266.146 338.166C278.861 338.877 291.583 339.496 304.184 341.438C306.371 341.775 310.171 341.484 309.941 344.443C309.712 347.387 306.042 346.385 303.863 346.408C284.618 346.622 265.419 345.177 246.198 344.802C241.488 344.711 236.778 344.443 232.068 344.405C216.402 344.282 200.72 344.741 185.076 343.472C182.484 343.266 181.812 344.053 181.819 346.576C181.842 355.346 181.766 355.177 190.49 355.957C208.152 357.525 225.867 357.609 243.56 357.915C264.601 358.282 285.513 360.292 306.424 362.288C315.569 363.159 324.461 361.669 333.445 360.858C350.434 359.329 367.392 357.494 384.481 357.226C407.289 356.875 429.989 354.612 452.736 353.159C464.426 352.41 476.132 351.806 487.823 351.064C489.52 350.957 491.936 351.515 492.578 349.535C493.481 346.767 493.45 343.701 492.563 340.872C492.165 339.619 490.629 339.94 489.497 340.016C460.779 341.905 432.069 343.87 403.343 345.651C394.191 346.217 385.016 346.568 375.849 346.538C359.028 346.477 342.222 346.828 325.417 347.57C323.13 347.669 320.829 347.593 318.543 347.463C317.044 347.371 315.683 346.668 315.722 344.971C315.752 343.449 317.105 343.029 318.421 342.761C326.189 341.186 334.079 340.964 341.962 340.46C360.549 339.259 379.159 340.643 397.739 339.741C425.341 338.403 452.934 337.05 480.421 334.068C483.075 333.777 485.758 333.724 488.427 333.663C490.285 333.624 492.265 334.16 492.747 331.377C492.93 330.344 494.085 330.383 495.002 330.49C496.294 330.635 497.273 331.438 497.426 332.6C497.877 336.102 501.058 338.365 501.448 341.882C501.585 343.113 502.732 342.799 503.596 342.83C522.183 343.441 540.74 344.382 559.365 343.694C582.028 342.853 604.613 340.911 627.238 339.527C645.037 338.441 662.852 337.516 680.682 337.348C683.817 337.317 685.125 336.881 684.918 333.235C684.498 325.879 684.75 325.688 677.463 325.956C661.3 326.545 645.144 327.355 628.989 328.028C623.002 328.28 617.015 327.906 611.044 327.944C601.509 328.013 591.983 328.815 582.448 329.266C559.671 330.352 537.009 332.799 514.331 334.978C511.296 335.268 508.222 335.215 505.164 335.23C502.388 335.245 499.23 335.039 499.215 331.476C499.207 328.043 502.579 328.479 504.796 328.402C516.762 327.99 528.736 327.76 540.709 327.493C543.255 327.439 545.786 327.355 548.951 326.231L548.929 326.239Z" fill="#292929"/>
<path d="M559.174 133.141C556.452 138.18 554.151 138.99 549.12 136.635C542.231 133.409 538.469 127.843 537.284 120.403C537.108 119.303 537.72 117.261 535.862 117.452C533.859 117.659 534.6 119.601 534.822 120.878C535.105 122.491 535.541 124.096 536.068 125.648C536.558 127.078 536.206 128.187 535.067 129.005C533.782 129.922 532.773 129.234 531.687 128.347C528.507 125.748 528.239 122.315 528.881 118.125C525.938 120.09 524.126 122.667 521.526 124.326C518.406 126.314 515.142 127.43 511.456 127.3C507.725 127.17 506.479 125.281 507.809 121.741C508.926 118.775 511.097 116.405 512.443 113.423C505.454 118.546 496.363 120.411 491.134 128.103C489.566 130.404 486.424 130.083 483.801 127.621C478.51 122.651 475.245 117.131 480.414 109.149C478.006 110.541 478.235 112.123 477.646 113.278C477.218 114.119 476.736 114.86 475.704 114.853C474.71 114.853 474.068 114.226 473.663 113.37C472.455 110.785 472.508 108.148 473.701 105.617C476.369 99.9744 480.789 96.3045 486.913 95.1041C489.13 94.6683 490.988 93.9267 492.755 92.604C499.911 87.2597 507.549 84.4461 516.648 87.3973C524.041 89.7981 531.726 89.2935 539.379 88.6895C547.43 88.0549 555.076 89.5763 562.263 93.338C566.683 95.647 570.1 98.9575 572.562 103.262C573.266 104.485 573.908 105.716 575.368 106.221C587.563 110.487 591.249 120.488 592.204 131.964C592.533 135.916 593.825 138.447 597.067 140.695C604.683 145.978 608.215 157.263 605.432 166.147C603.834 171.262 600.73 174.932 595.225 175.804C593.237 176.117 592.411 177.256 591.639 178.74C589.582 182.7 586.776 185.613 581.921 185.544C581.057 185.529 580.629 185.819 580.101 186.523C576.576 191.194 574.007 191.875 568.395 189.306C563.387 187.02 558.486 190.139 553.516 189.306C552.576 189.145 552.255 190.567 552.125 191.363C551.2 197.043 549.571 202.724 551.46 208.512C551.735 209.345 551.46 210.003 551.108 210.683C547.774 217.151 543.439 222.702 536.78 226.058C532.59 228.176 529.348 227.825 525.892 224.713C521.939 221.15 519.293 216.647 517.328 211.776C516.77 210.392 515.707 208.435 517.65 207.327C519.798 206.103 520.922 208.168 521.916 209.475C524.149 212.411 525.976 215.653 528.606 218.283C532.375 222.052 534.073 222.014 537.628 218.03C538.477 217.082 539.226 216.05 540.029 215.064C543.355 210.974 547.193 208.282 545.419 200.92C542.728 189.795 549.196 180.666 557.676 173.395C558.7 172.516 559.87 171.828 560.107 170.161C560.359 168.365 562.057 168.502 563.464 168.464C570.131 168.303 576.974 160.642 576.355 154.029C576.064 150.94 573.556 149.006 570.49 149.594C568.747 149.931 567.05 150.543 565.299 150.81C563.502 151.085 561.95 150.504 561.392 148.578C560.818 146.628 561.889 145.512 563.555 144.694C566.935 143.035 567.241 141.773 564.794 138.944C563.058 136.933 561.101 135.106 559.182 133.133L559.174 133.141Z" fill="#292929"/>
<path d="M332.95 20.5139C328.477 26.1793 322.261 29.9104 317.268 34.7959C312.184 39.7732 306.671 42.8926 300.241 44.9034C296.036 46.2261 291.639 45.2857 287.327 45.1634C286.448 45.1405 285.033 44.4294 284.964 46.0809C284.926 47.0824 285.63 48.0534 286.738 48.321C288.092 48.6498 289.514 48.7186 290.859 49.0627C295.73 50.3089 296.754 53.3442 293.535 57.1059C292.297 58.5509 290.92 59.9042 289.468 61.1351C287.052 63.1918 284.567 64.912 284.353 68.689C284.192 71.5714 282.487 71.5026 280.736 69.4C278.832 67.1216 276.508 65.3555 273.717 64.2698C269.978 62.8171 267.348 63.6887 265.207 67.0605C260.689 74.1862 263.586 83.2998 271.5 86.8626C273.006 87.5431 274.551 88.1395 275.98 88.9499C277.403 89.745 277.594 91.1824 277.28 92.6351C276.929 94.2636 275.583 94.3095 274.268 94.3248C269.764 94.3553 266.11 92.2222 263.044 89.2939C254.763 81.396 254.335 69.66 261.927 61.0892C263.067 59.8048 262.73 58.8032 262.195 57.6563C260.75 54.5446 259.198 51.4787 257.768 48.3593C256.147 44.8117 255.191 41.1953 256.606 37.2808C257.202 35.6293 257.875 34.5971 259.878 35.2241C260.689 35.4764 261.683 35.4611 262.516 35.247C264.099 34.8341 264.726 33.4426 264.665 32.0053C264.603 30.5602 263.197 30.7667 262.264 30.8737C258.349 31.3401 257.852 29.7269 258.999 26.3552C260.146 22.9911 261.988 20.5521 265.33 19.2218C270.491 17.1651 275.85 15.9036 281.363 16.4541C285.63 16.8822 288.634 15.4219 291.425 12.4095C297.198 6.16306 304.194 2.17204 312.704 0.543524C322.582 -1.34495 330.671 1.70566 337.729 8.34971C339.181 9.71827 340.519 10.2458 342.507 9.6724C345.558 8.79315 348.677 8.13563 351.797 7.50104C359.428 5.94898 364.91 9.93235 365.804 17.6086C367.096 28.71 359.871 37.7624 348.785 38.9169C346.59 39.1463 344.457 38.871 342.507 37.7624C339.174 35.8663 338.96 33.2286 342.11 31.0878C344.969 29.1382 346.085 26.2405 346.972 23.144C347.248 22.1883 347.783 20.9879 346.391 20.5521C344.9 20.0857 344.916 21.4849 344.602 22.3947C342.66 27.9225 339.067 31.7071 333.294 33.3127C331.329 33.8632 329.364 34.1996 328.133 32.2652C326.963 30.4226 328.148 29.0235 329.532 27.6549C331.444 25.7664 332.438 23.2893 332.942 20.5063L332.95 20.5139ZM305.998 26.9897C309.011 26.057 313.185 25.7817 316.267 22.7311C317.857 21.1561 318.82 19.153 317.169 17.3868C315.395 15.4831 313.675 16.9969 312.405 18.526C310.287 21.0797 307.718 22.7082 304.385 23.0905C303.337 23.2128 301.869 22.9605 302.267 24.8719C302.596 26.4469 303.391 27.4026 306.006 26.9897H305.998ZM278.741 41.6846C280.346 41.5852 282.258 41.9905 282.586 40.0026C282.908 38.053 280.912 38.1447 279.696 37.8007C277.158 37.082 274.574 36.5315 272.005 35.8969C270.942 35.6369 269.864 35.6522 269.329 36.6767C268.663 37.9536 269.634 38.8558 270.552 39.4903C273.037 41.2259 276.065 41.0195 278.741 41.677V41.6846Z" fill="#292929"/>
<path d="M459.865 227.977C465.523 231.012 468.306 225.897 471.785 222.09C479.538 213.595 488.767 207.196 499.501 202.999C500.09 202.769 500.664 202.41 501.275 202.31C503.86 201.89 507.293 200.621 508.378 203.725C509.365 206.538 505.71 206.775 503.86 207.632C477.802 219.605 461.578 240.263 451.608 266.495C447.945 276.129 445.323 286.068 442.54 295.969C442.004 297.873 441.943 301.061 439.015 300.45C436.53 299.922 436.874 297.04 436.92 294.884C436.996 291.298 437.906 287.827 438.816 284.401C439.313 282.528 439.252 281.496 437.379 280.449C431.361 277.092 428.869 271.679 428.769 264.928C428.647 256.648 428.792 248.414 430.964 240.324C432.241 235.561 435.1 232.648 439.833 231.333C446.095 229.598 452.41 228.206 459.865 227.977ZM460.232 234.514C454.307 234.621 448.725 236.341 443.059 237.679C440.261 238.344 438.755 240.019 438.074 242.756C435.956 251.227 435.605 259.859 435.643 268.522C435.651 270.769 436.82 272.658 438.22 274.347C438.854 275.12 439.451 276.267 440.529 276.16C441.836 276.03 441.569 274.623 441.828 273.713C445.491 261.036 450.552 249.025 458.489 238.36C459.292 237.282 460.347 236.226 460.232 234.506V234.514Z" fill="#292929"/>
<path d="M417.569 291.59C413.593 291.1 411.612 289.694 410.206 286.865C405.259 276.903 403.179 265.923 398.981 255.701C394.111 243.835 389.516 231.9 383.506 220.493C378.705 211.387 373.398 202.556 368.742 193.397C363.321 182.747 355.736 174.031 347.119 165.995C344.979 164 342.998 161.844 340.949 159.756C340.116 158.9 339.305 157.868 340.246 156.774C341.102 155.781 342.371 156.117 343.419 156.667C344.313 157.134 345.193 157.684 345.98 158.319C357.067 167.211 366.594 177.272 374.018 189.666C389.462 215.455 401.176 242.795 410.328 271.314C412.453 277.935 413.937 284.755 417.576 291.582L417.569 291.59Z" fill="#292929"/>
<path d="M333.998 132.346C331.452 131.604 329.969 132.896 328.708 134.937C326.085 139.181 324.273 143.791 322.369 148.371C321.689 150.015 321.046 151.674 320.328 153.302C319.601 154.946 318.516 156.185 316.497 155.519C314.677 154.915 314.555 153.348 314.761 151.75C314.853 151.001 315.021 150.244 315.243 149.525C317.124 143.416 319.617 137.606 323.417 132.391C324.823 130.465 326.452 128.989 328.815 128.439C349.145 123.653 356.722 108.591 359.926 89.9353C360.889 84.3158 360.132 78.765 359.62 73.199C359.459 71.5017 358.97 69.4909 361.111 69.1239C362.999 68.8028 363.282 70.9436 363.749 72.3198C364.398 74.2388 364.865 76.2191 365.347 78.184C365.645 79.4073 365.912 80.0419 367.319 79.0326C373.008 74.9346 372.557 67.8318 366.341 64.5213C365.285 63.9631 363.45 63.7261 363.825 62.1435C364.284 60.2321 366.234 60.5838 367.694 60.7061C373.298 61.1572 378.268 68.0612 377.152 73.8719C376.158 79.0403 373.451 83.146 368.673 85.432C366.226 86.6018 365.568 88.1921 365.201 90.6922C363.397 103.17 360.461 115.219 350.774 124.341C347.394 127.529 343.487 129.884 339.198 131.589C337.561 132.239 335.856 132.942 333.998 132.346Z" fill="#292929"/>
<path d="M561.32 205.178C562.925 205.262 564.538 206.295 566.251 207.143C579.624 213.741 590.397 223.535 600.061 234.668C609.901 245.998 621.095 256.136 629.987 268.301C634.445 274.394 638.046 280.931 639.973 288.309C640.523 290.412 640.523 292.338 639.2 294.112C638.474 295.091 637.457 295.618 636.211 295.404C635.018 295.206 634.567 294.288 634.391 293.233C632.526 282.392 626.447 273.729 619.52 265.724C608.281 252.734 596.728 240.004 584.487 227.939C577.491 221.051 569.906 214.842 560.8 210.806C560.226 210.553 559.683 210.186 559.186 209.796C558.246 209.062 557.497 208.175 557.894 206.868C558.353 205.354 559.607 205.155 561.32 205.171V205.178Z" fill="#292929"/>
<path d="M482.388 154.611C482.388 152.638 482.258 151.109 482.419 149.61C482.618 147.768 483.237 145.872 485.47 145.887C487.641 145.902 488.268 147.554 488.459 149.572C488.956 154.893 490.302 160.07 491.349 165.299C493.345 175.292 499.003 181.867 508.514 185.415C512.299 186.829 516.168 188.19 519.517 190.591C521.795 192.219 523.523 194.184 523.233 197.204C523.095 198.665 522.414 199.98 520.771 200.209C519.31 200.416 518.446 199.597 517.965 198.206C516.986 195.377 514.532 194.253 511.993 193.313C509.378 192.342 506.695 191.531 504.11 190.469C493.689 186.172 488.268 177.746 485.408 167.356C484.529 164.16 483.352 162.157 479.689 160.934C471.042 158.059 467.158 147.737 470.927 139.549C472.808 135.466 476.723 132.951 480.553 133.34C482.686 133.555 484.208 134.564 484.537 136.75C484.774 138.318 484.353 139.763 482.274 139.082C478.756 137.92 477.678 140.222 476.914 142.79C475.278 148.295 476.822 151.805 482.388 154.626V154.611Z" fill="#292929"/>
<path d="M576.877 269.762C577.405 271.788 575.524 275.022 577.16 276.283C578.621 277.407 581.733 276.36 584.118 276.299C590.632 276.13 597.085 276.612 603.432 278.126C604.777 278.447 606.108 278.975 607.339 279.617C608.501 280.221 609.495 281.199 608.975 282.683C608.524 283.982 607.27 284.097 606.1 284.028C600.258 283.677 594.417 283.363 588.591 282.889C572.458 281.574 557.862 285.534 544.925 295.367C542.708 297.056 540.636 299.037 537.883 299.832C536.392 300.26 534.634 300.39 533.801 298.754C532.944 297.056 534.267 295.925 535.483 294.946C545.308 287.048 556.065 280.97 568.528 278.348C570.875 277.851 571.265 276.681 570.654 274.571C569.675 271.214 570.08 267.751 570.218 264.326C570.271 263.033 570.608 261.757 571.479 260.801C572.351 259.845 573.536 259.203 574.889 259.478C576.319 259.769 576.396 261.053 576.472 262.192C576.64 264.601 576.74 267.017 576.877 269.769V269.762Z" fill="#292929"/>
<path d="M616.008 401.938C616.008 404.147 616.1 406.663 613.202 406.946C610.228 407.236 609.983 404.621 609.57 402.511C608.354 396.28 607.299 390.034 604.73 384.139C600.762 375.033 594.034 369.169 584.553 366.386C581.877 365.598 579.178 364.856 576.525 363.977C575.385 363.603 574.544 362.777 574.766 361.385C574.98 360.002 576.012 359.55 577.213 359.405C579.277 359.153 581.219 359.818 583.207 360.246C605.824 365.132 614.463 381.73 616.008 401.938Z" fill="#292929"/>
<path d="M330.74 108.767C321.603 108.721 314.332 102.551 312.841 94.2021C312.191 90.5781 314.087 88.8349 317.643 89.8288C318.491 90.0658 319.279 90.5169 320.097 90.8533C326.137 93.3228 332.246 95.3489 338.952 94.355C341.169 94.0262 343.402 94.2862 344.587 96.534C345.757 98.7589 344.113 100.364 342.974 102.016C339.846 106.55 335.45 108.66 330.74 108.759V108.767Z" fill="#292929"/>
<path d="M570.118 408.438C569.943 410.212 570.898 412.559 568.299 412.895C565.959 413.194 565.087 411.206 564.59 409.271C563.359 404.47 562.243 399.638 560.997 394.844C557.916 383.016 550.438 375.401 538.816 371.754C536.155 370.921 533.533 369.942 530.918 368.964C529.679 368.497 528.494 367.725 528.884 366.173C529.289 364.575 530.643 364.109 532.172 364.2C532.799 364.239 533.441 364.346 534.045 364.522C538.923 365.967 543.725 367.649 548.343 369.797C561.907 376.12 567.45 387.741 569.354 401.733C569.667 404.004 569.881 406.282 570.126 408.446L570.118 408.438Z" fill="#292929"/>
<path d="M416.022 397.688C415.915 395.233 415.892 391.273 415.525 387.351C415.081 382.603 412.627 379.04 408.49 376.616C406.296 375.332 404.148 373.956 402.014 372.564C400.913 371.846 399.828 370.905 400.592 369.445C401.387 367.916 402.718 368.107 404.232 368.566C420.082 373.443 425.808 381.54 424.677 397.978C424.409 401.893 424.249 405.876 422.742 409.607C421.855 411.817 420.693 414.111 417.925 413.629C415.051 413.124 415.463 410.494 415.532 408.346C415.632 405.287 415.808 402.237 416.014 397.688H416.022Z" fill="#292929"/>
<path d="M575.224 321.407C565.246 320.107 554.748 318.961 544.319 317.34C531.459 315.337 518.423 315.543 505.555 313.777C503.024 313.433 498.865 313.593 499.155 310.589C499.484 307.194 503.628 308.104 506.197 308.501C524.058 311.277 542.125 312.232 560.001 314.847C565.659 315.673 571.393 315.986 577.067 316.72C579.047 316.98 582.342 316.85 582.052 319.473C581.784 321.858 578.603 321.338 576.478 321.407C576.226 321.415 575.966 321.407 575.216 321.407H575.224Z" fill="#292929"/>
<path d="M306.579 161.774C302.963 158.524 298.826 155.986 294.292 154.434C285.484 151.421 279.176 145.267 273.251 138.569C270.98 136.008 268.984 133.194 266.974 130.419C266.27 129.448 265.253 128.248 266.507 127.024C267.761 125.793 268.893 127.001 269.925 127.552C270.919 128.087 271.92 128.767 272.639 129.616C282.548 141.222 294.805 149.609 308.567 155.978C311.648 157.408 313.988 159.816 315.257 163.005C315.777 164.312 316.397 166.009 314.546 167.019C312.803 167.974 311.748 166.965 310.7 165.673C309.469 164.151 308.835 161.949 306.449 161.644L306.579 161.774Z" fill="#292929"/>
<path d="M663.335 310.726C657.173 308.127 651.553 308.425 646.308 306.927C643.311 306.07 643.663 304.434 644.802 302.385C645.314 301.468 646.239 301.437 647.134 301.422C654.451 301.292 661.539 302.477 668.359 305.153C672.09 306.621 672.442 309.549 671.876 312.99C671.302 316.491 668.932 316.996 665.996 316.874C659.398 316.598 652.799 316.384 646.201 316.132C645.819 316.117 645.413 316.124 645.069 315.987C642.806 315.054 638.999 314.794 639.289 312.11C639.564 309.534 643.143 310.841 645.238 310.78C650.88 310.604 656.531 310.719 663.335 310.719V310.726Z" fill="#292929"/>
<path d="M375.315 400.187C375.239 402.588 375.262 404.974 374.558 407.351C373.794 409.936 372.219 410.677 369.703 410.478C366.943 410.257 366.951 408.368 366.92 406.403C366.897 404.752 366.79 403.093 366.874 401.449C367.379 391.838 364.366 383.757 356.958 377.358C355.535 376.127 352.653 374.697 354.503 372.212C356.598 369.399 358.869 371.822 360.765 373.015C370.774 379.284 375.522 388.421 375.308 400.195L375.315 400.187Z" fill="#292929"/>
<path d="M557.533 307.965C556.026 307.79 554.23 308.073 553.06 307.346C549.267 304.976 545.399 303.722 540.91 304.678C539.924 304.884 538.823 304.372 538.517 303.218C538.211 302.055 538.984 301.115 539.878 300.733C543.954 298.997 548.059 297.254 552.517 296.849C554.245 296.688 555.782 297.85 555.438 299.571C554.826 302.552 556.73 301.727 557.953 301.406C561.761 300.427 565.507 299.219 569.284 298.126C571.494 297.491 574.04 296.505 574.988 299.67C575.875 302.644 573.872 304.204 571.28 304.816C566.723 305.901 562.365 307.897 557.533 307.958V307.965Z" fill="#292929"/>
<path d="M482.074 294.563C484.307 285.748 487.052 277.208 493.757 270.586C494.453 269.898 495.432 269.417 496.357 269.05C498.085 268.369 498.834 269.134 498.398 270.869C498.123 271.963 497.588 273.002 497.121 274.042C494.055 280.854 490.431 287.437 489.575 295.091C489.323 297.308 488.176 299.678 485.117 299.288C482.342 298.936 482.648 296.513 482.074 294.563Z" fill="#292929"/>
<path d="M280.328 312.157C280.412 309.052 281.482 306.208 282.499 303.318C283.378 300.818 283.921 298.196 284.617 295.634C285.122 293.776 286.085 292.263 288.234 292.362C290.581 292.469 291.414 294.281 291.758 296.238C292.217 298.823 291.368 301.269 290.634 303.708C289.648 306.996 288.432 310.268 288.815 313.77C289.128 316.637 287.981 318.074 285.145 318.357C282.201 318.648 281.008 316.927 280.473 314.435C280.313 313.701 280.358 312.913 280.312 312.149L280.328 312.157Z" fill="#292929"/>
<path d="M517.92 169.381C513.936 169.741 510.748 167.692 507.751 165.23C506.26 164.007 506.015 162.118 506.803 160.711C507.797 158.937 509.364 160.505 510.373 161.078C516.719 164.687 522.637 164.595 528.272 159.618C529.817 158.249 531.721 157.645 533.349 159.48C535.253 161.621 533.701 163.242 532.187 164.679C528.226 168.433 523.28 169.305 517.92 169.381Z" fill="#292929"/>
<path d="M475.581 308.371C478.38 308.371 481.171 308.371 483.969 308.371C485.934 308.371 487.532 308.868 487.693 311.223C487.838 313.371 486.622 314.923 484.734 315.015C478.166 315.329 471.537 316.162 465.038 314.396C463.554 313.991 462.041 313.241 462.354 311.269C462.645 309.472 464.097 308.73 465.68 308.669C468.975 308.539 472.286 308.631 475.589 308.631C475.589 308.547 475.589 308.463 475.589 308.379L475.581 308.371Z" fill="#292929"/>
<path d="M340.496 83.6047C338.661 83.4136 336.527 83.7576 336.283 81.6245C336.053 79.6749 338.171 79.5143 339.54 79.0632C346.36 76.8154 346.345 76.8536 342.162 70.8442C340.572 68.5581 338.722 66.4097 337.888 63.6802C337.598 62.7398 337.239 61.5242 338.248 60.8743C339.196 60.2626 340.282 60.7519 340.985 61.5624C344.403 65.4999 347.859 69.468 349.778 74.3765C351.62 79.0785 349.847 81.8386 344.777 82.8478C343.286 83.146 341.78 83.3754 340.503 83.5971L340.496 83.6047Z" fill="#292929"/>
<path d="M275.612 102.207C274.573 107.719 273.036 113.576 269.664 118.76C268.67 120.289 267.347 121.65 265.275 120.579C263.249 119.532 264.067 117.735 264.495 116.214C265.726 111.84 267.034 107.482 268.379 103.147C268.785 101.832 269.182 100.464 270.245 99.462C271.354 98.4145 272.669 98.0934 274.099 98.5904C275.59 99.1103 275.697 100.387 275.605 102.207H275.612Z" fill="#292929"/>
<path d="M360.597 58.0076C360.467 61.7922 359.382 65.0798 356.575 67.6258C355.704 68.4133 354.679 68.9867 353.487 68.2909C352.187 67.5417 352.179 66.2113 352.164 64.9421C352.149 63.8259 351.95 62.3732 353.509 62.2356C357.386 61.8915 356.3 59.7584 355.39 57.5565C354.136 54.5135 352.867 51.4782 351.766 48.3817C351.315 47.1125 350.81 45.4687 352.233 44.5436C353.785 43.5344 354.916 45.01 355.681 45.9886C358.449 49.5362 360.375 53.489 360.597 57.9999V58.0076Z" fill="#292929"/>
<path d="M517.107 138.906C518.697 139.113 519.653 140.022 519.447 141.681C519.309 142.79 518.972 143.975 518.384 144.908C516.923 147.225 515.264 149.105 517.956 151.995C519.477 153.632 517.642 155.589 515.127 155.061C511.816 154.366 509.981 152.011 508.742 149.052C507.542 146.185 509.782 144.854 511.395 143.356C513.146 141.735 514.607 139.694 517.115 138.898L517.107 138.906Z" fill="#292929"/>
<path d="M468.839 301.49C466.156 301.199 463.113 301.001 460.123 300.504C458.609 300.251 456.331 300.16 456.392 298.042C456.461 295.901 458.632 295.924 460.238 295.924C463.655 295.924 467.073 296.046 470.483 296.199C472.28 296.283 474.222 296.398 474.13 298.982C474.046 301.574 472.119 301.475 470.307 301.49C469.925 301.49 469.55 301.49 468.832 301.49H468.839Z" fill="#292929"/>
<path d="M537.574 143.47C536.909 145.924 538.04 149.793 533.736 149.999C531.236 150.122 529.53 148.531 529.722 145.596C530.02 141.092 531.817 138.386 534.485 138.615C537.49 138.875 537.612 141.031 537.566 143.47H537.574Z" fill="#292929"/>
<path d="M324.709 65.5525C323.868 67.5557 325.099 71.7531 320.817 72.0742C317.636 72.3189 317.262 69.3448 317.262 66.8293C317.262 62.6548 318.86 60.277 321.589 60.3229C324.671 60.3764 324.854 62.5631 324.709 65.5525Z" fill="#292929"/>
<path d="M502.198 140.893C502.007 143.011 501.992 145.825 498.864 146.192C496.119 146.513 495.5 144.181 495.676 142.033C495.875 139.624 495.485 136.436 499.163 136.252C502.037 136.107 502.121 138.462 502.198 140.893Z" fill="#292929"/>
<path d="M474.368 323.15C475.66 323.517 478.803 322.982 478.856 326.04C478.902 328.685 476.31 329.045 474.04 329.106C471.784 329.167 470.4 328.525 470.675 325.872C470.866 323.983 471.256 322.592 474.368 323.15Z" fill="#292929"/>
<path d="M340.365 254.049C342.567 253.88 343.982 254.385 342.743 257.008C341.994 258.598 342.04 260.272 342.567 261.84C345.733 271.305 346.077 281.581 350.894 290.572C351.719 292.109 351.505 293.745 349.923 294.494C348.294 295.266 346.772 294.716 345.74 292.98C344.081 290.182 343.469 287.07 342.858 283.974C341.13 275.281 337.781 266.985 336.565 258.17C336.152 255.157 337.399 253.865 340.365 254.049Z" fill="#292929"/>
<path d="M353.073 311.705C353.493 308.081 356.383 304.762 358.822 305.129C360.489 305.382 360.696 306.544 360.55 307.966C360.183 311.491 357.217 314.855 354.762 314.511C353.027 314.266 352.851 313.119 353.08 311.712L353.073 311.705Z" fill="#292929"/>
</g>
<defs>
<clipPath id="clip0_96_562">
<rect width="818" height="417" fill="white"/>
</clipPath>
</defs>
</svg>
