<svg width="226" height="225" viewBox="0 0 226 225" fill="none" xmlns="http://www.w3.org/2000/svg">
<g clip-path="url(#clip0_96_757)">
<path d="M90.5863 45.4645C106.882 46.1694 124.826 45.6641 142.739 46.2318C158.321 46.7246 173.883 47.8101 189.483 47.9848C196.334 48.0596 203.316 47.6105 209.722 50.5612C220.358 55.4582 229.39 67.2424 223.78 80.4426C221.392 86.0633 220.395 92.1518 218.553 97.9535C215.049 109.008 212.442 120.305 209.095 131.409C205.604 142.994 201.737 154.479 198.91 166.269C196.378 176.837 193.288 187.267 190.587 197.797C189.684 201.303 189.139 204.909 188.568 208.49C187.992 212.133 186.832 215.564 184.977 218.714C182.645 222.682 178.879 224.335 174.391 224.778C167.146 225.489 160.069 224.347 152.937 223.362C141.912 221.827 130.793 220.929 119.806 219.195C105.29 216.905 90.649 215.807 76.083 213.979C67.7219 212.931 59.1917 212.95 50.9623 211.166C42.3505 209.294 33.651 207.591 25.3903 204.366C25.102 204.254 24.8325 204.042 24.5316 203.992C14.6162 202.395 13.043 194.054 11.0687 186.625C8.86252 178.315 11.2756 170.199 14.002 162.245C18.1762 150.087 21.8929 137.766 26.3179 125.695C30.6112 113.967 33.3126 101.79 37.2424 89.9809C40.8714 79.0514 44.8576 68.2155 51.119 58.4277C52.8488 55.7265 54.9046 53.2 57.0168 50.7795C59.8937 47.4857 64.0679 47.0053 68.0479 46.2505C74.9799 44.9405 81.9871 45.7015 90.5863 45.4645ZM107.139 200.991C110.123 205.495 113.087 210.012 116.114 214.485C116.465 215.009 117.268 215.109 117.813 214.691C118.609 214.085 117.825 213.63 117.506 213.181C114.397 208.833 110.799 204.89 107.145 200.998C104.256 197.997 100.464 198.945 96.2836 198.24C98.7342 201.54 100.771 204.179 103.623 206.656C103.592 205.938 103.648 205.701 103.56 205.558C102.601 204.004 101.805 202.258 102.952 200.661C104.2 198.933 105.459 201.422 106.832 201.06C106.932 201.035 107.033 201.01 107.139 200.991ZM88.5995 49.1326C83.5916 49.1326 78.5587 48.7833 73.5947 49.2324C68.9191 49.6566 63.7984 49.4258 60.088 53.1189C57.2174 55.9822 54.9046 59.3884 53.0118 62.9379C47.4273 73.412 43.0086 84.4039 39.856 95.8324C34.1713 116.45 27.1452 136.625 20.0816 156.799C18.0007 162.738 15.4122 168.59 14.823 174.996C14.3843 179.731 16.064 182.457 20.6018 183.898C23.8672 184.934 27.1452 185.801 30.6112 186.119C44.2057 187.361 57.7564 189.407 71.376 189.981C90.8119 190.798 109.815 194.036 128.794 197.835C137.355 199.55 145.892 201.484 154.767 200.611C160.044 200.087 165.083 199.457 166.763 193.3C167.39 191.004 167.992 188.664 168.261 186.313C169.515 175.564 171.426 164.978 175.845 155.003C179.035 147.804 182.088 140.58 183.661 132.819C185.453 123.961 188.694 115.508 191 106.793C192.749 100.187 195.018 93.7239 197.951 87.5293C202 78.9828 205.529 70.2367 207.91 61.0976C209.559 54.7783 207.541 52.7571 201.022 52.2892C191.132 51.5843 181.235 51.7028 171.345 51.3722C161.674 51.0415 152.009 50.112 142.357 49.9249C124.438 49.588 106.506 49.6441 88.5932 49.1326H88.5995ZM194.654 157.797C196.629 151.16 198.546 144.734 200.684 137.554C199.236 138.646 198.584 139.401 197.763 139.7C195.826 140.399 195.312 141.197 196.184 143.343C196.986 145.321 196.541 147.535 194.867 149.313C193.056 151.235 192.824 155.963 194.654 157.804V157.797ZM178.973 162.825C177.136 165.957 176.835 167.136 178.02 167.779C181.705 169.769 182.382 173.58 183.993 176.849C185.046 178.976 185.541 181.409 187.547 183.586C187.008 175.389 182.207 169.575 178.966 162.832L178.973 162.825ZM211.94 65.1712C211.339 67.7726 208.631 69.8375 209.339 72.1269C210.173 74.8281 212.335 77.1176 213.915 79.5879C214.165 79.4944 214.416 79.407 214.667 79.3135C212.968 74.7533 214.598 69.6691 211.94 65.1775V65.1712ZM128.781 215.477C123.636 210.891 120.025 205.158 114.435 201.434C114.504 202.869 115.262 203.699 116.089 204.497C119.229 207.517 122.344 210.573 124.67 214.266C125.635 215.795 126.707 216.088 128.775 215.477H128.781ZM84.1745 209.475C83.2218 204.915 78.1638 203.218 77.1861 198.639C76.9354 197.467 75.2368 197.479 74.4847 197.828C73.1999 198.427 74.3343 199.532 74.7542 200.074C76.8226 202.775 79.0538 205.358 81.2225 207.984C82.0372 208.97 82.8646 209.906 84.1745 209.475ZM212.987 58.3528C213.67 63.331 217.519 66.7371 219.349 71.1662C219.248 65.9261 217.976 61.2536 212.987 58.3528ZM136.729 211.977C136.616 210.617 136.497 209.413 136.422 208.209C136.353 207.099 137.669 205.346 135.826 205.059C133.877 204.753 131.771 205.265 129.759 205.608C129.345 205.676 129.464 206.55 129.916 206.924C132.053 208.696 133.827 210.954 136.729 211.983V211.977ZM51.0751 206.961C49.6586 204.435 48.0102 202.208 46.8131 199.688C45.898 197.766 44.2308 196.194 42.8206 194.528C42.056 193.618 40.8212 193.374 40.019 194.154C38.9848 195.165 40.3198 195.701 40.9278 196.256C44.0804 199.126 47.4211 201.84 49.0068 206.001C49.2763 206.706 49.7213 207.292 51.0751 206.961ZM191.113 123.624C190.064 128.81 190.183 132.543 191.47 134.822C192.711 131.085 194.98 127.517 191.113 123.624ZM178.233 179.993C178.728 176.518 179.386 173.275 176.629 170.318C174.792 174.048 174.88 177.161 178.233 179.993ZM93.6951 203.106C93.5634 205.445 95.4437 206.344 95.381 207.623C95.1805 211.696 97.8756 211.578 101.285 211.653C98.7029 208.745 96.434 206.188 93.6951 203.106ZM174.084 212.214C174.278 212.102 174.479 211.996 174.673 211.883C173.407 208.852 172.116 205.832 170.9 202.788C170.599 202.039 170.712 200.948 169.408 201.59C168.368 202.102 168.186 202.906 168.819 203.898C170.58 206.668 172.329 209.444 174.084 212.214ZM198.766 129.856C197.656 126.051 196.729 122.171 193.821 119.239C193.821 123.537 196.86 126.456 198.766 129.856ZM185.867 162.407C185.403 159.706 185.955 157.429 184.726 155.364C184.325 154.697 184.87 153.063 183.448 153.537C182.175 153.961 181.016 155.733 181.969 156.693C183.523 158.265 183.98 160.455 185.867 162.407ZM160.615 219.294C159.706 215.626 157.355 212.289 158.434 208.265C158.703 207.255 157.437 207.591 156.779 207.61C155.72 207.635 155.757 208.09 156.02 209.008C156.854 211.871 158.283 214.553 158.59 217.598C158.665 218.334 159.016 219.5 160.615 219.294ZM173.582 197.411L179.023 208.359C179.355 203.605 176.202 200.648 173.582 197.411ZM64.8012 197.498C66.8257 200.399 68.8564 203.306 72.103 205.027C69.4079 202.751 68.7937 198.558 64.8012 197.498ZM183.341 201.178C184.056 198.059 184.733 195.109 185.397 192.152C185.522 191.59 186.03 190.954 185.372 190.48C185.109 190.293 184.557 190.349 184.206 190.48C183.222 190.829 183.554 191.578 183.761 192.276C184.425 194.585 183.937 196.756 182.677 198.696C182.012 199.712 182.081 200.324 183.347 201.178H183.341ZM69.972 209.956C68.1481 208.184 66.8695 206.531 64.7824 205.514C65.3967 208.795 67.1265 210.276 69.972 209.956ZM207.478 77.0365C206.224 78.6584 206.212 80.7046 205.403 82.4201C205.303 82.626 205.428 83.0627 205.604 83.2311C205.76 83.3808 206.199 83.4182 206.4 83.3122C207.935 82.47 208.662 78.6023 207.484 77.0365H207.478ZM200.684 94.0545C199.255 96.4188 198.565 98.7145 201.404 100.705C201.918 98.4026 200.665 96.2878 200.684 94.0545ZM204.852 118.259C206.644 116.381 207.409 114.154 207.19 111.597C206.538 113.861 205.221 115.901 204.852 118.259ZM167.992 209.475C166.744 207.959 166.82 206.269 165.071 206.069C164.758 206.032 164.018 206.743 164.068 206.986C164.4 208.59 165.616 209.182 167.985 209.475H167.992ZM151.921 218.421C151.082 216.032 149.753 214.89 148.286 213.861C148.806 215.645 148.976 217.66 151.921 218.421Z" fill="#292929"/>
<path d="M22.0206 7.99106C22.0206 8.82075 22.077 9.65044 22.008 10.4801C21.7949 13.2187 22.6411 14.8781 25.7999 14.5787C26.5834 14.5038 27.417 14.8781 28.213 15.084C29.3036 15.371 30.2374 15.9574 30.087 17.1925C29.9178 18.6336 28.7645 18.8894 27.5173 18.8207C26.7902 18.7833 26.0507 18.7895 25.3361 18.6772C23.5185 18.3903 22.5721 19.0266 22.5658 20.9542C22.5658 21.6592 22.2211 22.3578 22.1647 23.069C22.0707 24.1981 22.2838 25.6329 21.0428 26.0571C19.8018 26.4876 19.0058 25.3335 18.354 24.3666C17.4953 23.0877 16.6617 22.4389 15.709 24.3042C15.3894 24.9343 14.7438 25.1089 14.0983 24.9467C13.1644 24.7159 13.2396 23.8862 13.2271 23.1751C13.2145 22.3454 13.2772 21.5157 13.3023 20.6922C13.3649 18.9517 13.7034 17.1738 11.0647 16.8307C10.3189 16.7371 9.56049 15.739 9.06534 14.9842C8.53886 14.1857 7.59871 13.1189 8.65794 12.2331C9.69837 11.3597 10.7451 11.7652 11.5035 12.963C12.5815 14.6723 13.4715 13.3497 14.1735 12.6074C15.9786 10.6922 16.8748 8.19692 18.1409 5.9449C18.9494 4.51633 19.9209 2.12082 21.1055 2.40155C22.8918 2.81951 21.7448 5.22126 22.0268 6.7434C22.102 7.14265 22.0394 7.57309 22.0394 7.98482H22.0018L22.0206 7.99106ZM19.4571 11.5968C15.0008 15.1589 14.7814 17.0491 18.6172 19.6317C19.3756 16.9742 20.3784 14.3853 19.4571 11.5968Z" fill="#292929"/>
<path d="M34.3113 6.71318C34.2799 8.00451 33.7096 8.67201 32.5939 8.54724C31.4783 8.42247 29.9615 8.10432 30.1119 6.80052C30.2624 5.45928 31.472 3.93714 32.8133 3.94338C34.117 3.94962 33.791 5.86477 34.3175 6.71318H34.3113Z" fill="#292929"/>
<path d="M7.34915 31.9898C6.37767 31.9149 5.08026 31.9274 5.41245 30.6361C5.7697 29.2325 7.16739 28.6586 8.59014 28.5962C9.61804 28.5525 10.671 29.1015 10.4955 30.1557C10.226 31.8089 8.68416 31.8837 7.34915 31.9898Z" fill="#292929"/>
<path d="M28.6366 30.1057C28.2605 31.135 27.3705 31.3097 26.4304 31.3221C25.5153 31.3346 25.133 30.7607 25.2458 29.931C25.3962 28.8331 26.2799 28.8206 27.1198 28.8705C27.8782 28.9204 28.5112 29.1824 28.6303 30.0994L28.6366 30.1057Z" fill="#292929"/>
<path d="M104.049 72.2635C103.786 70.105 103.529 67.9403 103.259 65.7819C103.159 64.9896 102.67 64.0601 103.636 63.5423C104.45 63.1056 105.309 63.5486 105.961 64.0539C107.716 65.3951 109.032 67.1106 110.204 68.9759C112.667 72.8686 114.272 72.9871 117.236 69.4063C119.223 67.0108 121.022 64.4531 122.909 61.9703C123.491 61.203 124.093 60.4045 125.215 60.9659C126.212 61.465 126.299 62.4007 126.168 63.3801C125.842 65.7382 125.303 68.09 125.234 70.4544C125.146 73.5111 126.531 74.2036 129.126 72.5192C132.799 70.13 136.165 67.3539 139.167 64.1662C139.988 63.299 140.809 62.3071 142.056 62.9372C143.454 63.6421 143.209 64.9709 142.746 66.2123C141.805 68.7326 140.872 71.2591 139.913 73.7731C139.424 75.0582 139.574 76.3932 140.414 77.2853C141.461 78.3957 142.514 77.1667 143.473 76.6989C145.999 75.4824 148.512 74.2223 150.988 72.906C152.103 72.3134 153.225 72.0014 154.14 72.9871C155.206 74.1412 154.554 75.2516 153.733 76.3121C151.382 79.3502 149.114 82.4568 146.732 85.4699C144.432 88.377 139.267 88.7263 136.679 86.1312C135.381 84.8336 133.94 84.0601 132.16 83.5797C127.547 82.3383 123.059 80.6727 118.258 80.0738C115.72 79.7556 113.275 80.1424 110.793 80.2547C105.848 80.4793 104.181 79.0258 103.905 74.1412C103.874 73.5174 103.905 72.8935 103.905 72.2759C103.955 72.2759 104.005 72.2635 104.055 72.2572L104.049 72.2635ZM106.331 69.2628C106.537 72.0888 106.738 73.9416 106.788 75.7943C106.82 77.0981 107.421 77.2603 108.574 77.1792C116.791 76.624 124.726 78.1337 132.523 80.5417C134.309 81.0906 136.221 81.5024 137.794 82.4381C140.815 84.241 141.448 84.241 143.567 81.2279C137.236 81.047 136.854 80.6727 135.557 73.1867C133.382 74.4656 131.194 75.6321 128.794 76.2684C124.776 77.3289 123.755 76.8923 122.062 73.0432C121.448 71.6459 120.922 71.5149 119.875 72.5629C119.217 73.2242 118.459 73.7856 117.731 74.372C114.936 76.6365 112.887 76.5367 110.373 73.9166C109.176 72.6689 108.098 71.309 106.331 69.2691V69.2628Z" fill="#292929"/>
<path d="M102.168 120.623C101.222 123.873 100.294 127.136 99.3165 130.373C98.928 131.658 98.5206 132.956 97.9439 134.16C97.5177 135.052 96.6277 135.52 95.581 135.258C94.4466 134.971 94.1771 134.041 94.3338 133.062C94.7412 130.504 94.9731 127.878 95.7628 125.433C98.6584 116.474 100.576 107.198 104.807 98.6704C105.691 96.8924 106.412 95.8195 108.505 96.6367C109.451 97.0047 110.272 96.6991 111.169 96.2624C116.709 93.5799 121.824 97.2293 121.372 103.505C120.971 109.126 116.264 114.902 110.028 116.649C107.107 117.466 106.794 118.433 107.928 121.041C109.458 124.565 110.818 128.146 112.842 131.44C113.438 132.401 113.851 133.48 114.271 134.541C114.672 135.551 114.346 136.412 113.4 136.93C112.46 137.441 111.839 136.793 111.275 136.15C108.405 132.906 106.769 128.957 104.951 125.114C104.249 123.63 103.616 122.108 102.952 120.598C102.689 120.598 102.432 120.61 102.168 120.617V120.623ZM116.841 101.683C116.126 100.86 116.841 98.2961 114.503 98.5082C112.278 98.7078 110.04 99.7309 108.749 101.783C106.8 104.89 105.879 108.421 104.882 111.914C104.657 112.713 104.512 113.33 105.703 113.337C110.084 113.362 116.835 106.605 116.835 101.683H116.841Z" fill="#292929"/>
<path d="M152.419 107.778C151.159 115.439 149.103 124.36 143.011 131.796C140.059 135.401 136.843 136.624 133.534 135.495C130.112 134.322 127.636 130.648 127.473 126.493C127.104 116.799 135.07 103.455 143.293 99.9929C149.611 97.3291 152.525 99.3191 152.419 107.778ZM148.019 104.996C147.918 104.335 147.893 103.362 147.223 103.137C146.044 102.75 145.023 103.549 144.139 104.241C138.931 108.321 134.869 113.33 133.12 119.743C132.318 122.7 131.083 125.819 132.519 129.063C133.885 132.164 136.248 132.987 138.116 130.61C144.007 123.118 146.596 114.297 148.025 104.996H148.019Z" fill="#292929"/>
<path d="M96.1781 98.7149C95.614 100.786 95.144 103.406 93.1132 105.215C89.0643 108.827 84.4702 111.441 78.8732 111.566C77.0493 111.603 76.153 112.152 75.3633 113.824C73.0756 118.69 70.5685 123.456 68.0803 128.234C67.3344 129.663 66.1937 131.117 64.4137 130.15C62.8029 129.276 63.8559 127.698 64.3134 126.525C68.1555 116.631 72.8876 107.149 77.8265 97.7667C78.4532 96.5689 79.3182 95.4772 79.8196 94.242C80.6845 92.1273 81.5118 90.5365 84.3762 91.6469C85.3539 92.0275 86.7704 91.1728 87.9988 91.0231C92.9879 90.4367 96.1593 93.2751 96.1719 98.7211L96.1781 98.7149ZM92.5241 96.8746C92.3674 95.5334 91.6341 94.398 90.5122 94.3356C88.2182 94.2109 85.5983 94.0112 84.2195 96.4255C82.64 99.2015 81.3489 102.146 79.9512 105.028C79.6942 105.558 79.1239 106.12 79.6253 106.719C80.1016 107.286 80.7973 106.981 81.374 106.806C86.175 105.327 89.7099 102.308 92.148 97.9725C92.3423 97.6232 92.4175 97.199 92.5241 96.8746Z" fill="#292929"/>
<path d="M109.269 161.121C98.4007 161.926 85.69 160.104 72.9666 158.595C70.7792 158.333 68.7047 157.659 66.6739 156.823C65.9281 156.517 64.7498 156.436 64.9629 155.382C65.2324 154.047 66.5611 154.571 67.3132 154.74C74.0447 156.249 80.9077 156.636 87.7332 157.397C95.3923 158.252 103.083 158.339 110.779 158.089C117.222 157.877 123.672 157.721 130.015 159.231C130.779 159.412 132.008 159.331 131.82 160.441C131.651 161.414 130.554 161.14 129.708 161.134C123.572 161.09 117.429 161.109 109.281 161.109L109.269 161.121Z" fill="#292929"/>
<path d="M155.255 178.483C156.264 168.277 158.595 158.315 160.858 148.34C161.14 147.086 161.623 145.751 163.265 146.119C164.857 146.474 164.794 147.909 164.637 149.169C163.835 155.638 162.632 162.039 161.115 168.389C160.256 171.976 159.83 175.663 159.203 179.3C159.116 179.812 159.072 180.348 158.865 180.81C158.382 181.889 158.207 183.686 156.69 183.374C155.267 183.081 155.004 181.465 155.123 180.03C155.167 179.512 155.205 179.001 155.248 178.483H155.255Z" fill="#292929"/>
<path d="M58.6327 180.011C54.8972 180.173 52.1395 178.62 49.1185 178.37C44.9881 178.027 40.8514 177.646 36.7399 177.154C33.7251 176.792 31.5503 175.157 30.3782 172.319C30.0962 171.645 29.8204 170.884 30.6853 170.416C31.3622 170.054 31.9138 170.466 32.2773 170.99C34.6841 174.465 38.3444 175.182 42.1676 175.251C47.6017 175.345 52.8352 176.885 58.2379 177.191C59.3347 177.253 60.9643 177.303 60.933 178.701C60.8954 180.491 59.1279 179.905 58.6327 180.005V180.011Z" fill="#292929"/>
<path d="M147.694 174.286C147.831 174.329 147.932 174.36 148.032 174.385C149.774 174.828 154.068 182.732 153.485 184.404C153.115 185.471 152.3 185.408 151.448 185.215C149.016 184.66 145.249 178.153 146.051 175.839C146.321 175.065 146.684 174.279 147.694 174.279V174.286Z" fill="#292929"/>
<path d="M144.922 189.051C142.835 189.163 140.772 188.951 138.873 188.053C137.877 187.585 137.263 186.612 137.526 185.501C137.839 184.185 139.024 184.591 139.851 184.784C142.647 185.439 145.668 184.921 148.312 186.381C148.902 186.705 149.873 186.637 149.622 187.697C149.441 188.49 148.814 188.851 148.018 188.895C146.99 188.951 145.956 188.995 144.922 189.045V189.051Z" fill="#292929"/>
</g>
<defs>
<clipPath id="clip0_96_757">
<rect width="225" height="225" fill="white" transform="translate(0.5)"/>
</clipPath>
</defs>
</svg>
