<svg width="226" height="225" viewBox="0 0 226 225" fill="none" xmlns="http://www.w3.org/2000/svg">
<g clip-path="url(#clip0_96_742)">
<path d="M133.099 43.5896C142.214 44.0563 151.126 45.9814 160.129 47.3921C167.443 48.5376 173.921 50.7915 179.978 54.7531C180.346 54.997 180.772 55.1826 181.076 55.4902C185.471 59.9503 191.027 62.7717 196.168 66.1817C203.029 70.7372 208.681 76.4277 213.215 83.3644C219.421 92.852 223.475 103.05 224.945 114.261C225.926 121.734 225.526 129.164 224.311 136.594C222.932 145.047 221.541 153.469 218.835 161.646C215.175 172.704 208.857 182.059 200.909 190.422C195.912 195.678 191.134 201.183 185.343 205.621C174.848 213.661 163.283 219.744 150.487 223.165C142.118 225.403 133.504 225.323 124.906 224.337C111.023 222.746 97.4332 220.094 84.7278 213.969C81.0094 212.176 76.9075 210.304 74.9577 206.921C71.543 200.997 65.5232 198.605 60.6329 194.782C50.3407 186.726 44.3955 176.231 40.9169 163.922C37.8484 153.071 39.079 142.268 40.5866 131.444C42.4511 118.048 46.5211 105.378 53.3026 93.5679C59.5887 82.6219 67.6168 73.3146 77.6959 65.6248C83.7636 60.9951 89.8473 56.466 96.6768 53.003C108.114 47.2065 120.085 43.4517 133.099 43.5896ZM205.421 107.521C205.373 102.843 204.569 97.7416 203.152 92.6929C199.897 81.0734 192.721 71.9888 184.427 63.6361C179.185 58.354 173.101 54.0583 165.829 52.2499C157.78 50.2453 149.725 48.0974 141.356 47.5671C130.904 46.9042 120.665 47.5512 110.714 51.1839C100.646 54.8591 91.504 60.1094 82.8686 66.4044C71.82 74.4548 62.8916 84.2553 56.3711 96.2779C50.0317 107.972 46.1428 120.413 44.1665 133.523C42.7761 142.73 41.8704 151.931 43.9374 161.143C47.6132 177.519 57.1062 189.611 71.6442 197.847C80.0452 202.604 89.3572 204.656 98.6745 206.894C113.367 210.421 127.356 208.538 141.02 202.858C150.668 198.849 159.064 192.756 167.31 186.477C176.787 179.264 185.487 171.304 191.783 161.052C197.009 152.551 200.264 143.271 202.837 133.703C205.096 125.298 206.252 116.781 205.416 107.526L205.421 107.521ZM215.495 146.399C214.653 149.491 213.801 152.535 213.002 155.59C211.59 160.999 208.793 165.799 206.359 170.763C202.965 177.684 199.151 184.329 194.127 190.21C189.21 195.969 183.564 200.896 176.91 204.624C176.26 204.985 175.163 205.494 175.711 206.364C176.324 207.329 177.139 206.279 177.698 205.934C181.534 203.58 185.178 200.981 188.257 197.651C194.127 191.292 200.36 185.251 205.576 178.304C210.69 171.484 213.497 163.635 216.177 155.67C217.29 152.36 217.418 149.444 215.495 146.405V146.399ZM128.72 220.529C129.764 221.33 130.776 221.181 131.735 221.234C146.955 222.099 160.465 217.268 172.925 208.963C173.415 208.639 174.555 208.369 173.943 207.478C173.367 206.645 172.696 207.541 172.121 207.828C165.632 211.041 159.165 214.308 152.106 216.17C150.125 216.695 147.85 216.127 146.129 216.902C140.6 219.405 134.745 219.914 128.72 220.524V220.529ZM209.651 98.9243C210.487 109.801 209.997 120.62 207.669 131.64C209.928 128.755 211.231 125.503 211.579 121.882C211.638 121.267 211.729 120.657 211.771 120.042C212.272 112.914 212.123 105.84 209.646 98.9243H209.651ZM179.153 199.337C187.111 193.71 194.143 187.224 198.389 178.267C191.805 185.124 184.528 191.356 179.153 199.337ZM206.886 90.4708C205.512 83.9637 201.953 73.6434 196.7 71.4479C200.898 77.7005 204.414 83.8152 206.886 90.4708ZM176.042 190.746C170.469 194.835 164.897 198.923 159.325 203.007C165.568 199.851 171.966 196.919 176.042 190.746ZM104.359 216.801C102.015 215.189 99.921 214.351 98.7863 212.346C97.4226 209.944 95.5367 209.286 92.4683 210.018C95.4835 213.428 98.9089 215.989 104.364 216.801H104.359ZM90.4173 212.404C89.2453 209.615 88.084 207.159 84.4135 207.584C85.7879 210.023 87.2689 212.007 90.4173 212.404ZM220.593 128.909C219.538 133.306 218.675 137.723 219 142.258C219.544 137.808 221.115 133.465 220.593 128.909Z" fill="#292929"/>
<path d="M69.6271 23.9147C68.7748 23.8352 68.306 22.923 67.7306 22.1646C65.3814 19.0463 63.975 15.4029 62.1637 11.9876C60.1021 8.10025 57.3319 4.62128 55.6858 0.516522C55.3129 -0.41686 54.3167 -1.54646 55.6006 -2.26241C56.7726 -2.92002 57.5131 -1.6101 58.115 -0.846427C62.2063 4.35611 65.717 9.92989 68.7268 15.8219C69.6112 17.5454 70.6287 19.2001 71.497 20.9289C72.2854 22.4987 71.449 23.9889 69.6271 23.9147Z" fill="#292929"/>
<path d="M2.11365 54.8373C5.001 55.6965 7.69124 56.8367 10.2909 58.1625C14.6965 60.4111 19.0489 62.7605 23.4012 65.1045C24.3281 65.603 25.1965 66.2394 26.0168 66.897C26.8266 67.5494 27.3273 68.3661 26.6295 69.4214C25.9636 70.4343 25.0047 70.4874 24.0618 70.0154C21.5313 68.7532 19.0222 67.4486 16.5397 66.0856C11.4203 63.2749 6.35944 60.3687 1.58626 56.9905C1.02157 56.5927 0.26511 56.2321 0.563434 55.3624C0.840449 54.5616 1.60757 54.9381 2.10832 54.832L2.11365 54.8373Z" fill="#292929"/>
<path d="M127.551 2.90219C127.727 -0.719971 128.142 -4.2997 128.925 -7.8317C129.154 -8.86054 129.527 -10.2129 130.811 -9.97424C132.1 -9.73559 131.514 -8.37264 131.472 -7.48168C131.227 -2.39582 130.923 2.68475 130.657 7.76532C130.603 8.81007 130.8 10.173 129.389 10.2473C127.993 10.3215 127.913 8.91083 127.806 7.9032C127.636 6.24327 127.625 4.56742 127.551 2.89688V2.90219Z" fill="#292929"/>
<path d="M109.515 195.481C93.9062 195.576 80.1727 190.888 69.2785 179.476C57.1378 166.758 53.3875 151.315 55.497 134.254C57.3402 119.347 62.6941 105.585 70.2214 92.6924C77.312 80.5478 87.3537 71.5322 100.373 65.7887C106.553 63.0628 112.887 60.8885 119.376 59.1119C127.457 56.9004 135.57 58.1149 143.636 59.2657C146.949 59.7377 150.178 60.8089 153.443 61.5991C168.732 65.2796 178.39 75.3718 184.874 89.0278C189.455 98.6745 191.666 108.857 191.122 119.527C190.057 140.417 182.37 158.172 165.994 171.828C156.32 179.895 145.697 186.147 133.663 190.109C128.213 191.901 122.966 194.325 117.207 195.014C114.661 195.322 112.077 195.333 109.515 195.476V195.481ZM187.622 113.598C187.905 107.865 186.248 100.106 183.046 92.6022C177.884 80.5054 169.494 71.5852 157.241 66.5365C149.714 63.4341 141.713 62.3045 133.658 61.5832C129.865 61.2438 126.003 60.9839 122.295 61.9491C115.876 63.625 109.611 65.8046 103.559 68.5783C93.9542 72.98 85.3347 78.4636 78.8941 87.1611C73.6255 94.2781 69.5928 101.984 66.2793 110.071C61.2451 122.364 58.2246 135.108 59.5723 148.51C60.3981 156.746 62.481 164.732 67.5472 171.462C79.4588 187.303 95.9199 193.609 115.156 191.472C133.988 189.377 150.518 181.417 164.731 168.673C180.495 154.54 187.654 136.88 187.633 113.598H187.622Z" fill="#292929"/>
<path d="M102.726 143.494C102.949 141.076 102.694 138.329 103.221 135.614C103.637 133.461 102.699 132.13 100.643 131.323C97.7712 130.194 94.7294 129.536 91.9966 127.982C88.3155 125.888 87.9212 122.477 91.7142 119.524C94.8786 117.058 98.565 115.461 102.358 114.241C105.245 113.313 107.03 111.855 107.419 108.631C107.957 104.155 109.081 99.79 110.961 95.6428C111.798 93.7919 112.725 92.063 115.021 91.957C117.221 91.8562 117.967 93.7495 118.803 95.2238C120.982 99.0581 122.948 102.998 125.505 106.626C126.879 108.572 128.456 109.023 130.736 108.774C135.253 108.281 139.393 106.239 143.926 105.852C148.012 105.507 149.866 107.512 148.556 111.356C147.048 115.779 143.713 118.866 140.234 121.777C136.484 124.917 136.298 125.315 138.002 129.886C139.819 134.771 141.881 139.544 145.274 143.616C146.057 144.555 146.973 145.573 146.275 146.942C145.626 148.225 144.267 148.315 143.058 148.464C141.529 148.649 140.069 148.124 138.647 147.636C133.203 145.754 127.7 143.988 123.113 140.313C121.845 139.294 120.881 139.618 120.012 140.859C117.173 144.905 114.12 148.808 111.686 153.136C111.169 154.053 110.583 154.992 109.821 155.703C107.659 157.729 104.654 158.158 103.647 154.297C102.736 150.797 102.758 147.323 102.72 143.5L102.726 143.494ZM139.872 143.728C139.952 142.582 139.585 141.983 139.27 141.347C137.592 137.947 135.653 134.638 134.348 131.106C132.041 124.864 132.238 122.896 136.889 119.306C139.329 117.423 141.529 115.18 143.282 112.608C143.782 111.876 144.789 111.001 144.075 110.036C143.516 109.283 142.461 109.681 141.572 109.755C139.334 109.94 137.273 110.81 135.11 111.256C126.821 112.963 124.2 112.375 120.071 105.655C118.302 102.781 116.55 99.896 114.6 96.7087C112.272 101.19 111.446 105.571 110.876 110.031C110.434 113.457 109.049 116.458 105.645 117.699C102.06 119.009 98.5437 120.404 95.2035 122.234C94.7081 122.504 93.7971 122.478 93.8824 123.3C93.9623 124.106 94.772 124.344 95.4273 124.578C98.4212 125.644 101.431 126.646 104.329 127.988C106.79 129.128 107.962 130.809 107.701 133.609C107.35 137.385 107.158 141.182 107.046 144.974C106.987 146.989 106.859 149.084 108.063 151.274C110.567 146.523 113.694 142.582 116.944 138.732C119.89 135.237 121.989 134.898 125.819 137.374C130.134 140.164 134.668 142.444 139.878 143.723L139.872 143.728Z" fill="#292929"/>
</g>
<defs>
<clipPath id="clip0_96_742">
<rect width="225" height="225" fill="white" transform="translate(0.5)"/>
</clipPath>
</defs>
</svg>
