<svg width="14" height="11" viewBox="0 0 14 11" fill="none" xmlns="http://www.w3.org/2000/svg">
<path d="M0.895748 4.75489C4.3945 3.2427 6.72698 2.24568 7.89323 1.76401C11.227 0.388564 11.9188 0.14968 12.3707 0.14168C12.4701 0.140006 12.6913 0.164378 12.8357 0.280285C12.9557 0.377959 12.9895 0.510053 13.0064 0.602704C13.0214 0.695355 13.042 0.906518 13.0251 1.07136C12.8451 2.95415 12.0632 7.52308 11.6657 9.63191C11.4989 10.5242 11.167 10.8234 10.8464 10.8526C10.1489 10.9162 9.62007 10.3957 8.94507 9.95675C7.88944 9.26968 7.29323 8.84215 6.2676 8.17182C5.0826 7.39712 5.85134 6.97126 6.52634 6.27545C6.70259 6.09331 9.77382 3.32215 9.83194 3.0708C9.83944 3.03935 9.84698 2.92215 9.77573 2.86038C9.70635 2.79842 9.60317 2.81963 9.52817 2.83638C9.4213 2.86019 7.73567 3.9668 4.46567 6.15601C3.98755 6.48233 3.55442 6.6414 3.16442 6.63303C2.73692 6.62391 1.91198 6.39266 1.29885 6.19508C0.548854 5.95266 -0.0492893 5.82447 0.00321068 5.41275C0.0294607 5.19843 0.327623 4.97908 0.895748 4.75489Z" fill="white"/>
</svg>
