<svg width="16" height="17" viewBox="0 0 16 17" fill="none" xmlns="http://www.w3.org/2000/svg">
<g clip-path="url(#clip0_103_194)">
<path d="M9.54286 10.0429C8.28572 11.34 8.19429 12.9571 8.08571 16.5C11.3886 16.5 13.6686 16.4886 14.8457 15.3457C15.9886 14.1686 16 11.78 16 8.58571C12.4571 8.7 10.84 8.78572 9.54286 10.0429ZM0 8.58571C0 11.78 0.0114286 14.1686 1.15429 15.3457C2.33143 16.4886 4.61143 16.5 7.91429 16.5C7.8 12.9571 7.71429 11.34 6.45714 10.0429C5.16 8.78572 3.54286 8.69429 0 8.58571ZM7.91429 0.5C4.61714 0.5 2.33143 0.511429 1.15429 1.65429C0.0114286 2.83143 0 5.22 0 8.41429C3.54286 8.3 5.16 8.21429 6.45714 6.95714C7.71429 5.66 7.80572 4.04286 7.91429 0.5ZM9.54286 6.95714C8.28572 5.66 8.19429 4.04286 8.08571 0.5C11.3886 0.5 13.6686 0.511429 14.8457 1.65429C15.9886 2.83143 16 5.22 16 8.41429C12.4571 8.3 10.84 8.21429 9.54286 6.95714Z" fill="#292929"/>
<path d="M16 8.58571V8.41429C12.4571 8.3 10.84 8.21429 9.54286 6.95714C8.28572 5.66 8.19429 4.04286 8.08571 0.5H7.91429C7.8 4.04286 7.71429 5.66 6.45714 6.95714C5.16 8.21429 3.54286 8.30572 0 8.41429V8.58571C3.54286 8.7 5.16 8.78572 6.45714 10.0429C7.71429 11.34 7.80572 12.9571 7.91429 16.5H8.08571C8.2 12.9571 8.28572 11.34 9.54286 10.0429C10.84 8.78572 12.4571 8.69429 16 8.58571Z" fill="white"/>
</g>
<defs>
<clipPath id="clip0_103_194">
<rect width="16" height="16" fill="white" transform="translate(0 0.5)"/>
</clipPath>
</defs>
</svg>
